<svg width="621" height="901" viewBox="0 0 621 901" fill="none" xmlns="http://www.w3.org/2000/svg">
<path fill-rule="evenodd" clip-rule="evenodd" d="M420.5 373C417.778 371.919 410 370 410 370C410 370 394.483 424.743 372.469 451.031C355.145 471.719 329.797 483.82 329.797 483.82L320.797 593.003L276.483 681.42L340.669 678.033L379.539 720.813L412.341 683.657L450.951 708.592L477.758 657.108L525.739 658.86L462.55 582.601L430 377C430 377 425.986 375.179 420.5 373ZM360.974 526.954C359.97 532.385 354.754 535.974 349.323 534.969C343.892 533.965 340.304 528.749 341.308 523.318C342.312 517.887 347.528 514.299 352.959 515.303C358.39 516.307 361.978 521.523 360.974 526.954ZM434.873 550.787C440.304 551.791 445.52 548.202 446.524 542.771C447.529 537.34 443.94 532.124 438.509 531.12C433.078 530.116 427.862 533.704 426.858 539.135C425.854 544.566 429.442 549.782 434.873 550.787ZM408.472 556.075C407.468 561.506 402.251 565.094 396.82 564.09C391.389 563.086 387.801 557.869 388.805 552.439C389.809 547.008 395.026 543.419 400.456 544.423C405.887 545.427 409.476 550.644 408.472 556.075ZM354.082 619.239C359.512 620.243 364.729 616.654 365.733 611.224C366.737 605.793 363.148 600.576 357.718 599.572C352.287 598.568 347.07 602.157 346.066 607.588C345.062 613.018 348.651 618.235 354.082 619.239ZM449.465 636.874C448.461 642.305 443.244 645.894 437.814 644.889C432.383 643.885 428.794 638.669 429.798 633.238C430.802 627.807 436.019 624.219 441.45 625.223C446.881 626.227 450.469 631.443 449.465 636.874ZM401.168 485.572C406.599 486.576 411.815 482.987 412.819 477.557C413.823 472.126 410.235 466.909 404.804 465.905C399.373 464.901 394.157 468.49 393.152 473.92C392.148 479.351 395.737 484.568 401.168 485.572Z" fill="white"/>
<path d="M341 372C338.855 386.349 335.358 424.591 331.93 458.533C331.93 458.533 351.54 448.724 370.194 419.337C381.794 401.062 389.535 366.981 389.535 366.981C389.535 366.981 375.545 365.772 366.682 366.823C357.053 367.965 341 372 341 372Z" fill="white"/>
<rect x="194" y="278.514" width="38.1655" height="155.91" rx="19.0827" transform="rotate(-8.04022 194 278.514)" fill="white"/>
<rect x="367.268" y="367" width="39.4194" height="160.289" rx="19.7097" transform="rotate(78.8577 367.268 367)" fill="white"/>
<path d="M425.37 278.921C436.785 309.311 427.906 340.759 405.538 349.16C383.171 357.561 355.785 339.735 344.37 309.345C332.955 278.954 332.17 251.137 364.202 239.106C392.445 228.498 413.955 248.53 425.37 278.921Z" fill="white"/>
<rect x="513.321" y="133.054" width="11.3099" height="582" rx="5.65495" transform="rotate(61.5456 513.321 133.054)" fill="white"/>
<path d="M559.008 111.167C560.998 110.666 562.361 113.13 560.88 114.55L501.06 171.917C500.113 172.826 498.561 172.591 497.926 171.442L477.365 134.282C476.729 133.134 477.354 131.694 478.627 131.374L559.008 111.167Z" fill="white"/>
<rect x="619.197" y="430" width="39.4194" height="160.289" rx="19.7097" transform="rotate(88.0579 619.197 430)" fill="white"/>
<rect x="506.347" y="455.073" width="39.7327" height="117.463" rx="19.8663" transform="rotate(137.58 506.347 455.073)" fill="white"/>
<path d="M481.454 676L529.427 677.605L522.776 876.406C522.332 889.653 511.234 900.033 497.987 899.59V899.59C484.739 899.147 474.359 888.048 474.803 874.801L481.454 676Z" fill="white"/>
<path d="M333.861 693.315L366.068 728.905L218.58 862.372C208.752 871.265 193.575 870.508 184.681 860.68V860.68C175.788 850.852 176.545 835.675 186.373 826.781L333.861 693.315Z" fill="white"/>
</svg>
