<svg width="421" height="200" viewBox="0 0 421 200" fill="none" xmlns="http://www.w3.org/2000/svg">
<rect x="0.5" width="90" height="90" rx="10" fill="white"/>
<rect x="48.5" y="70" width="50" height="8" rx="2" transform="rotate(-90 48.5 70)" fill="#001F47"/>
<rect x="62.5" y="70" width="25.1908" height="8" rx="2" transform="rotate(-90 62.5 70)" fill="#A8A8A8"/>
<rect x="34.5" y="70" width="41.6031" height="8" rx="2" transform="rotate(-90 34.5 70)" fill="#A8A8A8"/>
<rect x="20.5" y="70" width="24.4275" height="8" rx="2" transform="rotate(-90 20.5 70)" fill="#C82C2C"/>
<rect x="110.5" width="90" height="90" rx="10" fill="white"/>
<path d="M155.5 20C151.389 20 147.341 21.0139 143.715 22.952C140.089 24.89 136.997 27.6923 134.713 31.1107C132.429 34.5291 131.023 38.4581 130.62 42.5496C130.217 46.641 130.83 50.7688 132.403 54.5671C133.976 58.3654 136.462 61.7171 139.64 64.3253C142.818 66.9334 146.59 68.7176 150.623 69.5196C154.655 70.3217 158.823 70.1169 162.757 68.9235C166.691 67.7301 170.271 65.5848 173.178 62.6777L155.5 45V20Z" fill="#001F47"/>
<path d="M155.5 20C160.445 20 165.278 21.4662 169.389 24.2133C173.5 26.9603 176.705 30.8648 178.597 35.4329C180.489 40.0011 180.984 45.0277 180.02 49.8773C179.055 54.7268 176.674 59.1814 173.178 62.6777L155.5 45V20Z" fill="#C82C2C"/>
<rect x="220.5" width="90" height="90" rx="10" fill="white"/>
<path d="M243.277 40C244.811 40 246.055 41.2434 246.056 42.7773C246.056 43.1012 245.996 43.4112 245.895 43.7002L257.052 58.9727C257.266 58.9194 257.49 58.8887 257.722 58.8887C257.939 58.8887 258.15 58.9166 258.354 58.9639L270.503 49.5039C270.503 49.4841 270.5 49.4642 270.5 49.4443C270.5 47.9104 271.743 46.6672 273.277 46.667C274.417 46.667 275.395 47.3534 275.823 48.335L286.271 52.6338C286.693 52.374 287.189 52.2227 287.722 52.2227C289.256 52.2227 290.5 53.4659 290.5 55C290.5 56.5341 289.256 57.7773 287.722 57.7773C286.442 57.7773 285.367 56.9112 285.045 55.7334L275.017 51.6074C274.54 51.9907 273.936 52.2227 273.277 52.2227C273.029 52.2226 272.79 52.1859 272.562 52.125L260.492 61.5225C260.495 61.5703 260.5 61.6186 260.5 61.667C260.5 63.201 259.256 64.4443 257.722 64.4443C256.214 64.4442 254.988 63.2423 254.947 61.7441L243.115 45.5469C241.657 45.4626 240.5 44.2568 240.5 42.7773C240.5 41.2435 241.744 40.0002 243.277 40Z" fill="#C82C2C"/>
<path d="M286.611 20C288.145 20.0001 289.388 21.2435 289.389 22.7773C289.389 24.2612 288.225 25.47 286.761 25.5479L274.94 41.7275C274.908 43.2335 273.681 44.4443 272.167 44.4443C270.945 44.4443 269.91 43.6548 269.538 42.5586L258.725 37.5879C258.447 37.6953 258.15 37.7587 257.838 37.7715L246.032 51.3271C246.046 51.4385 246.056 51.5519 246.056 51.667C246.056 53.201 244.811 54.4443 243.277 54.4443C241.744 54.4441 240.5 53.2008 240.5 51.667C240.5 50.133 241.743 48.8889 243.277 48.8887C243.422 48.8887 243.565 48.9033 243.704 48.9248L255.082 35.8613C254.994 35.59 254.944 35.3009 254.944 35C254.944 33.4659 256.188 32.2228 257.722 32.2227C259.164 32.2227 260.349 33.3224 260.485 34.7295L270.597 39.376C271.043 39.0691 271.584 38.8887 272.167 38.8887C272.395 38.8887 272.615 38.919 272.827 38.9707L283.989 23.6904C283.89 23.4044 283.833 23.0973 283.833 22.7773C283.833 21.2434 285.077 20 286.611 20Z" fill="#001F47"/>
<rect x="240.5" y="66.6666" width="50" height="3.33333" rx="1.66667" fill="#A8A8A8"/>
<rect x="330.5" width="90" height="90" rx="10" fill="white"/>
<ellipse cx="371.245" cy="50.9783" rx="13.2979" ry="13.587" fill="#C82C2C"/>
<ellipse cx="382.947" cy="27.0652" rx="6.91491" ry="7.06522" fill="#001F47"/>
<ellipse cx="393.585" cy="41.1958" rx="6.91491" ry="7.06522" fill="#001F47"/>
<ellipse cx="395.712" cy="27.0652" rx="2.65958" ry="2.71739" fill="#A8A8A8"/>
<ellipse cx="370.181" cy="31.4131" rx="2.65958" ry="2.71739" fill="#A8A8A8"/>
<ellipse cx="358.479" cy="34.674" rx="2.65958" ry="2.71739" fill="#A8A8A8"/>
<ellipse cx="353.16" cy="44.4566" rx="2.65958" ry="2.71739" fill="#A8A8A8"/>
<ellipse cx="361.67" cy="67.2826" rx="2.65958" ry="2.71739" fill="#A8A8A8"/>
<ellipse cx="392.522" cy="57.5" rx="2.65958" ry="2.71739" fill="#A8A8A8"/>
<rect x="0.5" y="110" width="90" height="90" rx="10" fill="white"/>
<path d="M20.5 171.302C20.5 170.98 20.655 170.678 20.9164 170.49L34.352 160.834C35.9497 159.686 38.0724 159.581 39.7752 160.567L51.738 167.493C53.1676 168.321 54.9138 168.389 56.4036 167.675L69.0679 161.607C69.7317 161.289 70.5 161.773 70.5 162.509V179C70.5 179.552 70.0523 180 69.5 180H21.5C20.9477 180 20.5 179.552 20.5 179V171.302Z" fill="#C82C2C"/>
<path d="M20.5 158.88C20.5 157.27 21.2749 155.759 22.582 154.819L35.242 145.721C36.3503 144.924 37.7362 144.615 39.0779 144.866L51.8254 147.247C53.5425 147.567 55.3025 146.969 56.4679 145.667L68.7551 131.948C69.3673 131.265 70.5 131.698 70.5 132.615V155.708C70.5 156.081 70.292 156.424 69.9607 156.596L56.4574 163.605C54.9409 164.392 53.1274 164.35 51.6488 163.494L39.7752 156.62C38.0724 155.634 35.9497 155.738 34.352 156.887L22.0836 165.704C21.422 166.179 20.5 165.707 20.5 164.892V158.88Z" fill="#001F47"/>
<rect x="110.5" y="110" width="90" height="90" rx="10" fill="white"/>
<rect x="130.5" y="158" width="50" height="8" rx="2" fill="#001F47"/>
<rect x="130.5" y="172" width="25.1908" height="8" rx="2" fill="#A8A8A8"/>
<rect x="130.5" y="144" width="41.6031" height="8" rx="2" fill="#A8A8A8"/>
<rect x="130.5" y="130" width="24.4275" height="8" rx="2" fill="#C82C2C"/>
<rect x="220.5" y="110" width="90" height="90" rx="10" fill="white"/>
<rect x="281.5" y="180" width="50" height="6" transform="rotate(-90 281.5 180)" fill="#001F47"/>
<path d="M287.5 180V130H288.5C289.605 130 290.5 130.895 290.5 132V178C290.5 179.105 289.605 180 288.5 180H287.5Z" fill="#A8A8A8"/>
<rect x="264.5" y="180" width="50" height="17" transform="rotate(-90 264.5 180)" fill="#A8A8A8"/>
<path d="M242.5 180C241.395 180 240.5 179.105 240.5 178V132C240.5 130.895 241.395 130 242.5 130H271.5V180H242.5Z" fill="#C82C2C"/>
<rect x="330.5" y="110" width="90" height="90" rx="10" fill="white"/>
<path d="M374.877 140.009C378.848 139.908 382.786 140.769 386.364 142.52C389.942 144.272 393.057 146.863 395.451 150.08L381.515 160.758C380.793 159.788 379.854 159.006 378.775 158.478C377.697 157.95 376.51 157.691 375.312 157.722C374.115 157.752 372.942 158.071 371.891 158.653C370.839 159.235 369.94 160.063 369.267 161.068L354.823 151.108C357.056 147.775 360.04 145.029 363.527 143.099C367.015 141.168 370.906 140.109 374.877 140.009Z" fill="#001F47"/>
<path d="M369.287 161.037C368.727 161.865 368.332 162.797 368.127 163.779C367.921 164.762 367.909 165.776 368.09 166.763L350.921 169.999C350.321 166.724 350.363 163.361 351.044 160.103C351.725 156.844 353.032 153.754 354.89 151.008L369.287 161.037Z" fill="#A8A8A8"/>
<path d="M395.238 149.799C399.307 155.111 401.13 161.845 400.306 168.52L382.979 166.317C383.227 164.305 382.677 162.275 381.45 160.673L395.238 149.799Z" fill="#C82C2C"/>
</svg>
