<svg width="194" height="36" viewBox="0 0 194 36" fill="none" xmlns="http://www.w3.org/2000/svg">
<path d="M23.8933 30.0869C23.3008 30.5241 22.6813 30.9172 22.0313 31.2593C18.9574 32.886 15.3822 33.3875 11.9766 32.703C9.11937 32.127 6.44805 30.6731 4.3895 28.6095C2.33108 26.5489 0.87531 23.8786 0.299773 21.0187C-0.306357 18.013 0.0118951 14.8921 1.20726 12.0725C2.3381 9.40574 4.26777 7.11488 6.66481 5.49844C8.83153 4.04131 11.3808 3.18388 13.9808 3.00439V11.1034C13.9741 11.1034 13.9875 11.1069 13.9808 11.1069C13.8894 11.1204 13.7437 11.1373 13.6558 11.1578C13.297 11.2288 12.9449 11.3273 12.603 11.4527C12.5048 11.4866 12.4065 11.5272 12.3084 11.5646H12.3049C12.3049 11.5646 12.3014 11.5646 12.3014 11.5681H12.2979C12.2573 11.585 12.2199 11.602 12.1793 11.6189C12.0304 11.6867 11.8815 11.7613 11.7393 11.8358C11.4109 12.012 11.0996 12.2084 10.8015 12.4323C10.7778 12.4492 10.7542 12.4662 10.7305 12.4866C10.7408 12.4799 10.751 12.4697 10.7609 12.4629C10.7305 12.4697 10.6797 12.5272 10.6561 12.5477C10.5986 12.595 10.541 12.6427 10.4867 12.69C10.3513 12.8052 10.2228 12.9273 10.0975 13.0527C9.96206 13.1883 9.83009 13.3271 9.70483 13.4729C9.64731 13.5407 9.58979 13.6085 9.5355 13.6763C9.51856 13.6968 9.50163 13.7204 9.48469 13.7406C9.48469 13.7406 9.48469 13.7441 9.4812 13.7441L9.47771 13.7476C9.47771 13.7476 9.47771 13.7511 9.47421 13.7511C9.25407 14.0527 9.05113 14.361 8.87158 14.6863C8.7869 14.8421 8.70573 15.0049 8.63128 15.1676C8.61434 15.205 8.59741 15.2456 8.58047 15.2828C8.58047 15.2863 8.58047 15.2863 8.57698 15.2895V15.293C8.56004 15.3336 8.54311 15.3778 8.52618 15.4184C8.50924 15.459 8.49231 15.5031 8.47887 15.5437C8.35361 15.886 8.252 16.2384 8.17755 16.5944C8.1539 16.6993 8.13347 16.8045 8.11654 16.9129C8.10981 16.957 8.0996 17.0044 8.09288 17.0485L8.08939 17.052C8.08939 17.2385 8.05202 17.4247 8.0453 17.6146C8.04181 17.6757 8.03858 17.7332 8.03858 17.7943C8.03858 17.8247 8.03509 17.8554 8.03509 17.8858V18.0687C8.03858 18.2824 8.04853 18.4957 8.06896 18.7091C8.07568 18.7701 8.0824 18.8344 8.08939 18.8955C8.08939 18.909 8.09288 18.9227 8.09611 18.9361C8.09611 18.9227 8.09262 18.9125 8.08939 18.8987C8.08939 18.9022 8.0859 18.909 8.0859 18.9157V18.9259V18.9633C8.08939 18.9937 8.09611 19.0244 8.10283 19.0583C8.10283 19.0618 8.10283 19.0618 8.10632 19.065C8.10982 19.0717 8.10982 19.082 8.11304 19.0887C8.11976 19.1124 8.12325 19.1328 8.12997 19.153C8.13347 19.1632 8.13347 19.1699 8.13669 19.1767C8.16707 19.3427 8.20094 19.5087 8.24152 19.6714C8.28883 19.8646 8.34313 20.0511 8.40737 20.2407C8.43452 20.3255 8.46489 20.4102 8.49876 20.495C8.52591 20.5628 8.54956 20.6949 8.59687 20.7457C8.57994 20.7051 8.56972 20.6814 8.5665 20.6712C8.56999 20.6779 8.57322 20.6917 8.58343 20.7086C8.59687 20.7358 8.60708 20.7629 8.62079 20.7899C8.63773 20.8305 8.65815 20.8711 8.67831 20.9117C8.70869 20.9795 8.74256 21.0473 8.77643 21.1116C8.8576 21.2709 8.94228 21.4267 9.03366 21.5792C9.13177 21.7452 9.23687 21.9045 9.34842 22.0638C9.38578 22.1181 9.44653 22.2467 9.50754 22.2774C9.49411 22.2605 9.48389 22.247 9.47717 22.2368C9.48067 22.2403 9.48067 22.2435 9.48389 22.247C9.49411 22.2572 9.50082 22.2707 9.51104 22.2809C9.52797 22.3046 9.5484 22.3283 9.56534 22.3487C9.79891 22.6333 10.0529 22.9045 10.3236 23.1553C10.4556 23.274 10.5876 23.3891 10.7266 23.501C10.7502 23.518 10.7739 23.5384 10.7975 23.5554C10.7739 23.5384 10.7534 23.5215 10.7298 23.5045C10.7432 23.5317 10.811 23.5656 10.8381 23.5825C10.9091 23.6369 10.9838 23.6875 11.0547 23.7351C11.3561 23.9385 11.6708 24.1247 11.9958 24.2839C12.0837 24.3281 12.1719 24.3687 12.2598 24.4058C12.2869 24.416 12.3141 24.4295 12.3409 24.4397C12.3138 24.4295 12.2866 24.416 12.263 24.4058C12.2901 24.4295 12.3544 24.4432 12.3882 24.4567C12.5576 24.5245 12.7269 24.582 12.8995 24.6364C13.2481 24.7448 13.6069 24.8296 13.9693 24.8871C13.9997 24.8906 14.0303 24.8974 14.0607 24.9006C14.0674 24.9006 14.0741 24.9041 14.0811 24.9041C14.0677 24.9006 14.0472 24.9006 14.0201 24.8974C14.0575 24.9143 14.1182 24.9108 14.1588 24.9143C14.2537 24.9245 14.3451 24.9313 14.4397 24.9415C14.6292 24.9549 14.8189 24.9619 15.0084 24.9619C15.2385 24.9619 15.4654 24.9517 15.6958 24.9315C15.7533 24.928 15.8076 24.9213 15.8651 24.9146C15.8718 24.9146 15.8955 24.9111 15.9194 24.9079C15.9229 24.9079 15.9296 24.9079 15.9363 24.9044H15.9398C16.0414 24.8941 16.143 24.8705 16.2411 24.8535C16.6744 24.7723 17.101 24.6536 17.5141 24.4978C17.5819 24.4706 17.6496 24.4435 17.7173 24.4198C17.7241 24.4163 17.7308 24.4163 17.7343 24.4131C17.741 24.4096 17.7477 24.4063 17.7547 24.4029C17.8528 24.3587 17.9512 24.3114 18.0493 24.264C18.2356 24.1726 18.4149 24.0744 18.5909 23.9692C18.7398 24.1419 18.8922 24.3149 19.0412 24.4876C19.1901 24.6571 19.3357 24.8298 19.4847 24.9993L19.4882 25.0028C19.7489 25.3044 20.0096 25.606 20.2703 25.9041C21.1845 26.958 22.0984 28.0086 23.0094 29.0624C23.1583 29.2319 23.3072 29.4046 23.4564 29.5774C23.5612 29.6992 23.6663 29.8179 23.7711 29.94C23.8055 29.9882 23.8496 30.039 23.8934 30.0867L23.8933 30.0869Z" fill="#001F47"/>
<path d="M28.758 23.9796C27.986 25.7755 26.8453 27.4124 25.4368 28.7745C25.2879 28.605 25.1422 28.4323 24.9933 28.2628C24.8444 28.0901 24.6955 27.9206 24.5463 27.7478C24.2958 27.4565 24.0452 27.1683 23.7912 26.8769C22.8738 25.8195 21.9562 24.7625 21.0388 23.7051C20.8898 23.5324 20.7409 23.3629 20.5918 23.1902C20.4902 23.075 20.392 22.9599 20.2904 22.8445C20.2431 22.7869 20.1923 22.7325 20.1448 22.675C20.2326 22.58 20.3173 22.4853 20.3988 22.3868C20.4394 22.3395 20.4834 22.2886 20.5205 22.2378C20.5205 22.2343 20.524 22.2343 20.524 22.231C20.5307 22.2176 20.541 22.2074 20.5444 22.2039C20.6055 22.1226 20.6662 22.0379 20.724 21.9531C20.8391 21.7836 20.9474 21.6109 21.049 21.4312C21.1506 21.2515 21.2455 21.0685 21.3334 20.8823C21.3538 20.835 21.3774 20.7873 21.3976 20.74C21.4011 20.7333 21.4078 20.7195 21.4145 20.7026C21.4145 20.7061 21.411 20.7093 21.411 20.7128C21.4583 20.6213 21.489 20.5161 21.5229 20.4214C21.6651 20.0249 21.7769 19.6184 21.8546 19.2048C21.868 19.1338 21.8782 19.066 21.8884 18.9947C21.8884 18.9845 21.8951 18.9608 21.8986 18.9371C21.8986 18.9336 21.9021 18.9269 21.9021 18.9237C21.9156 18.8322 21.9226 18.734 21.9293 18.6425C21.9462 18.4257 21.9564 18.2088 21.9564 17.9885C21.9564 17.7988 21.9497 17.6089 21.936 17.4192C21.9293 17.3242 21.9191 17.2327 21.9088 17.138C21.9054 17.1006 21.9088 17.0363 21.8919 16.9992C21.8986 17.0398 21.9021 17.0635 21.9021 17.0772C21.9021 17.0705 21.8986 17.0568 21.8986 17.0398C21.8951 17.0229 21.8951 17.0094 21.8919 16.9957C21.8376 16.633 21.7532 16.2739 21.6481 15.9249C21.5906 15.7385 21.5264 15.5523 21.4551 15.3691C21.4417 15.3352 21.428 15.2674 21.4043 15.2437C21.4145 15.2641 21.4213 15.2811 21.4247 15.291C21.4213 15.2875 21.4213 15.2843 21.418 15.2808C21.4113 15.2674 21.4046 15.2536 21.4011 15.2402C21.3637 15.1589 21.3266 15.0774 21.2893 14.9962C21.1336 14.6741 20.9541 14.3658 20.7579 14.0677C20.7003 13.983 20.6393 13.8982 20.5783 13.8135C20.5614 13.7863 20.5275 13.722 20.5004 13.7051C20.5138 13.722 20.524 13.7355 20.5307 13.7457C20.5272 13.7422 20.5272 13.739 20.524 13.7355C20.5138 13.7252 20.5071 13.7118 20.4969 13.7016C20.3953 13.5727 20.2904 13.4508 20.1821 13.3289C19.9351 13.0545 19.6676 12.8003 19.3833 12.563C19.3392 12.5256 19.2919 12.4884 19.2446 12.451C19.1497 12.373 19.2717 12.468 19.275 12.4747C19.2478 12.4204 19.1123 12.3528 19.0615 12.3189C18.9159 12.2172 18.7669 12.119 18.6145 12.0276C18.4487 11.9259 18.2793 11.8344 18.1068 11.7464C18.0323 11.709 17.9611 11.6754 17.8866 11.638C17.8224 11.6076 17.731 11.5465 17.6633 11.5363C17.6869 11.5465 17.7074 11.5532 17.7176 11.56C17.7108 11.5565 17.7074 11.5565 17.7006 11.5532C17.6735 11.543 17.6463 11.5296 17.616 11.5193C17.5754 11.5024 17.5313 11.4854 17.4907 11.472C17.406 11.4416 17.3214 11.4109 17.2367 11.3805C17.0641 11.3229 16.8881 11.2721 16.712 11.228C16.5325 11.1838 16.3532 11.1432 16.1736 11.1128C16.1295 11.1061 16.0618 11.0824 15.9976 11.0722C16.0011 10.9027 15.9976 3.2142 15.9976 3C16.4241 3.0304 16.8711 3.07452 17.2942 3.1356C20.1924 3.56607 22.9276 4.89785 25.0981 6.86644C27.2514 8.81837 28.8187 11.4173 29.5364 14.2334C30.363 17.4797 30.0719 20.9158 28.7582 23.9792L28.758 23.9796Z" fill="#C82C2C"/>
<path d="M38.1 28V6.55H41.64L51.24 6.52C55.12 6.52 58.13 7.43 60.27 9.25C62.41 11.07 63.48 13.74 63.48 17.26C63.48 20.78 62.41 23.45 60.27 25.27C58.13 27.09 55.12 28 51.24 28H38.1ZM50.91 10.42H42.9V24.1H50.91C53.43 24.1 55.34 23.55 56.64 22.45C57.94 21.35 58.59 19.62 58.59 17.26C58.59 14.88 57.94 13.15 56.64 12.07C55.34 10.97 53.43 10.42 50.91 10.42ZM70.1487 28C68.5287 28 67.2887 27.59 66.4287 26.77C65.5687 25.95 65.1387 24.78 65.1387 23.26C65.1387 21.76 65.5687 20.6 66.4287 19.78C67.2887 18.96 68.5287 18.55 70.1487 18.55H81.6687V17.83C81.6687 16.61 81.0687 16 79.8687 16H67.1487V12.55H81.0087C82.8287 12.55 84.1187 12.97 84.8787 13.81C85.6387 14.63 86.0187 15.79 86.0187 17.29V28H70.1487ZM70.9287 24.55H81.6687V22H70.9287C70.5487 22 70.2487 22.12 70.0287 22.36C69.8287 22.58 69.7287 22.88 69.7287 23.26C69.7287 23.64 69.8287 23.95 70.0287 24.19C70.2487 24.43 70.5487 24.55 70.9287 24.55ZM97.3697 28C95.6297 28 94.3497 27.57 93.5297 26.71C92.7097 25.83 92.2997 24.68 92.2997 23.26V16H87.8297V12.55H92.2997V7.81H96.6497V12.55H103.07V16H96.6497V22.72C96.6497 23.94 97.2497 24.55 98.4497 24.55H103.91V28H97.3697ZM110.256 28C108.636 28 107.396 27.59 106.536 26.77C105.676 25.95 105.246 24.78 105.246 23.26C105.246 21.76 105.676 20.6 106.536 19.78C107.396 18.96 108.636 18.55 110.256 18.55H121.776V17.83C121.776 16.61 121.176 16 119.976 16H107.256V12.55H121.116C122.936 12.55 124.226 12.97 124.986 13.81C125.746 14.63 126.126 15.79 126.126 17.29V28H110.256ZM111.036 24.55H121.776V22H111.036C110.656 22 110.356 22.12 110.136 22.36C109.936 22.58 109.836 22.88 109.836 23.26C109.836 23.64 109.936 23.95 110.136 24.19C110.356 24.43 110.656 24.55 111.036 24.55ZM134.304 28L127.794 12.55H132.354L137.394 24.52H138.894L143.934 12.55H148.494L141.984 28H134.304ZM155.363 28C153.603 28 152.313 27.56 151.493 26.68C150.693 25.8 150.293 24.66 150.293 23.26V12.55H154.643V22.75C154.643 23.95 155.243 24.55 156.443 24.55H162.683C163.883 24.55 164.483 23.95 164.483 22.75V12.55H168.833V23.26C168.833 24.66 168.423 25.8 167.603 26.68C166.803 27.56 165.523 28 163.763 28H155.363ZM179.896 28.15C177.216 28.15 175.126 27.49 173.626 26.17C172.126 24.83 171.376 22.87 171.376 20.29C171.376 17.69 172.126 15.73 173.626 14.41C175.126 13.07 177.216 12.4 179.896 12.4H187.396C189.156 12.4 190.496 12.82 191.416 13.66C192.356 14.48 192.826 15.66 192.826 17.2C192.826 20.34 191.016 21.91 187.396 21.91H176.056C176.476 23.77 177.756 24.7 179.896 24.7H192.046V28.15H179.896ZM179.896 15.85C177.836 15.85 176.566 16.72 176.086 18.46H187.186C187.586 18.46 187.896 18.34 188.116 18.1C188.356 17.86 188.476 17.53 188.476 17.11C188.476 16.27 188.046 15.85 187.186 15.85H179.896Z" fill="#001F47"/>
</svg>
