<svg width="207" height="48" viewBox="0 0 207 48" fill="none" xmlns="http://www.w3.org/2000/svg">
<g filter="url(#filter0_d_76_35)">
<path d="M45.1 34V12.55H48.64L58.24 12.52C62.12 12.52 65.13 13.43 67.27 15.25C69.41 17.07 70.48 19.74 70.48 23.26C70.48 26.78 69.41 29.45 67.27 31.27C65.13 33.09 62.12 34 58.24 34H45.1ZM57.91 16.42H49.9V30.1H57.91C60.43 30.1 62.34 29.55 63.64 28.45C64.94 27.35 65.59 25.62 65.59 23.26C65.59 20.88 64.94 19.15 63.64 18.07C62.34 16.97 60.43 16.42 57.91 16.42ZM77.1487 34C75.5287 34 74.2887 33.59 73.4287 32.77C72.5687 31.95 72.1387 30.78 72.1387 29.26C72.1387 27.76 72.5687 26.6 73.4287 25.78C74.2887 24.96 75.5287 24.55 77.1487 24.55H88.6687V23.83C88.6687 22.61 88.0687 22 86.8687 22H74.1487V18.55H88.0087C89.8287 18.55 91.1187 18.97 91.8787 19.81C92.6387 20.63 93.0187 21.79 93.0187 23.29V34H77.1487ZM77.9287 30.55H88.6687V28H77.9287C77.5487 28 77.2487 28.12 77.0287 28.36C76.8287 28.58 76.7287 28.88 76.7287 29.26C76.7287 29.64 76.8287 29.95 77.0287 30.19C77.2487 30.43 77.5487 30.55 77.9287 30.55ZM104.37 34C102.63 34 101.35 33.57 100.53 32.71C99.7097 31.83 99.2997 30.68 99.2997 29.26V22H94.8297V18.55H99.2997V13.81H103.65V18.55H110.07V22H103.65V28.72C103.65 29.94 104.25 30.55 105.45 30.55H110.91V34H104.37ZM117.256 34C115.636 34 114.396 33.59 113.536 32.77C112.676 31.95 112.246 30.78 112.246 29.26C112.246 27.76 112.676 26.6 113.536 25.78C114.396 24.96 115.636 24.55 117.256 24.55H128.776V23.83C128.776 22.61 128.176 22 126.976 22H114.256V18.55H128.116C129.936 18.55 131.226 18.97 131.986 19.81C132.746 20.63 133.126 21.79 133.126 23.29V34H117.256ZM118.036 30.55H128.776V28H118.036C117.656 28 117.356 28.12 117.136 28.36C116.936 28.58 116.836 28.88 116.836 29.26C116.836 29.64 116.936 29.95 117.136 30.19C117.356 30.43 117.656 30.55 118.036 30.55ZM141.304 34L134.794 18.55H139.354L144.394 30.52H145.894L150.934 18.55H155.494L148.984 34H141.304ZM162.363 34C160.603 34 159.313 33.56 158.493 32.68C157.693 31.8 157.293 30.66 157.293 29.26V18.55H161.643V28.75C161.643 29.95 162.243 30.55 163.443 30.55H169.683C170.883 30.55 171.483 29.95 171.483 28.75V18.55H175.833V29.26C175.833 30.66 175.423 31.8 174.603 32.68C173.803 33.56 172.523 34 170.763 34H162.363ZM186.896 34.15C184.216 34.15 182.126 33.49 180.626 32.17C179.126 30.83 178.376 28.87 178.376 26.29C178.376 23.69 179.126 21.73 180.626 20.41C182.126 19.07 184.216 18.4 186.896 18.4H194.396C196.156 18.4 197.496 18.82 198.416 19.66C199.356 20.48 199.826 21.66 199.826 23.2C199.826 26.34 198.016 27.91 194.396 27.91H183.056C183.476 29.77 184.756 30.7 186.896 30.7H199.046V34.15H186.896ZM186.896 21.85C184.836 21.85 183.566 22.72 183.086 24.46H194.186C194.586 24.46 194.896 24.34 195.116 24.1C195.356 23.86 195.476 23.53 195.476 23.11C195.476 22.27 195.046 21.85 194.186 21.85H186.896Z" fill="white"/>
</g>
<g filter="url(#filter1_d_76_35)">
<path d="M29.8933 36.0869C29.3008 36.5241 28.6813 36.9172 28.0313 37.2594C24.9574 38.886 21.3822 39.3875 17.9766 38.7031C15.1194 38.127 12.4481 36.6731 10.3895 34.6095C8.33108 32.5489 6.87531 29.8786 6.29977 27.0188C5.69364 24.013 6.0119 20.8921 7.20726 18.0725C8.3381 15.4058 10.2678 13.1149 12.6648 11.4985C14.8315 10.0413 17.3808 9.1839 19.9808 9.00441V17.1035C19.9741 17.1035 19.9875 17.107 19.9808 17.107C19.8894 17.1204 19.7437 17.1374 19.6558 17.1578C19.297 17.2288 18.9449 17.3273 18.603 17.4527C18.5048 17.4866 18.4065 17.5272 18.3084 17.5646H18.3049C18.3049 17.5646 18.3014 17.5646 18.3014 17.5681H18.2979C18.2573 17.5851 18.2199 17.602 18.1793 17.619C18.0304 17.6868 17.8815 17.7613 17.7393 17.8358C17.4109 18.012 17.0996 18.2084 16.8015 18.4323C16.7778 18.4492 16.7542 18.4662 16.7305 18.4866C16.7408 18.4799 16.751 18.4697 16.7609 18.4629C16.7305 18.4697 16.6797 18.5272 16.6561 18.5477C16.5986 18.595 16.541 18.6427 16.4867 18.69C16.3513 18.8052 16.2228 18.9273 16.0975 19.0527C15.9621 19.1883 15.8301 19.3271 15.7048 19.4729C15.6473 19.5407 15.5898 19.6085 15.5355 19.6763C15.5186 19.6968 15.5016 19.7205 15.4847 19.7406C15.4847 19.7406 15.4847 19.7441 15.4812 19.7441L15.4777 19.7476C15.4777 19.7476 15.4777 19.7511 15.4742 19.7511C15.2541 20.0527 15.0511 20.3611 14.8716 20.6863C14.7869 20.8421 14.7057 21.0049 14.6313 21.1676C14.6143 21.205 14.5974 21.2457 14.5805 21.2828C14.5805 21.2863 14.5805 21.2863 14.577 21.2895V21.293C14.56 21.3336 14.5431 21.3778 14.5262 21.4184C14.5092 21.459 14.4923 21.5031 14.4789 21.5438C14.3536 21.886 14.252 22.2384 14.1776 22.5944C14.1539 22.6993 14.1335 22.8045 14.1165 22.9129C14.1098 22.9571 14.0996 23.0044 14.0929 23.0485L14.0894 23.052C14.0894 23.2385 14.052 23.4247 14.0453 23.6146C14.0418 23.6757 14.0386 23.7333 14.0386 23.7943C14.0386 23.8247 14.0351 23.8554 14.0351 23.8858V24.0688C14.0386 24.2824 14.0485 24.4957 14.069 24.7091C14.0757 24.7702 14.0824 24.8345 14.0894 24.8955C14.0894 24.909 14.0929 24.9227 14.0961 24.9362C14.0961 24.9227 14.0926 24.9125 14.0894 24.8988C14.0894 24.9023 14.0859 24.909 14.0859 24.9157V24.9259V24.9633C14.0894 24.9937 14.0961 25.0244 14.1028 25.0583C14.1028 25.0618 14.1028 25.0618 14.1063 25.065C14.1098 25.0718 14.1098 25.082 14.113 25.0887C14.1198 25.1124 14.1233 25.1328 14.13 25.153C14.1335 25.1632 14.1335 25.17 14.1367 25.1767C14.1671 25.3427 14.2009 25.5087 14.2415 25.6715C14.2888 25.8646 14.3431 26.0511 14.4074 26.2407C14.4345 26.3255 14.4649 26.4102 14.4988 26.495C14.5259 26.5628 14.5496 26.6949 14.5969 26.7457C14.5799 26.7051 14.5697 26.6814 14.5665 26.6712C14.57 26.6779 14.5732 26.6917 14.5834 26.7086C14.5969 26.7358 14.6071 26.763 14.6208 26.7899C14.6377 26.8305 14.6582 26.8711 14.6783 26.9117C14.7087 26.9795 14.7426 27.0473 14.7764 27.1116C14.8576 27.2709 14.9423 27.4267 15.0337 27.5792C15.1318 27.7452 15.2369 27.9045 15.3484 28.0638C15.3858 28.1181 15.4465 28.2467 15.5075 28.2774C15.4941 28.2605 15.4839 28.247 15.4772 28.2368C15.4807 28.2403 15.4807 28.2435 15.4839 28.247C15.4941 28.2572 15.5008 28.2707 15.511 28.2809C15.528 28.3046 15.5484 28.3283 15.5653 28.3487C15.7989 28.6334 16.0529 28.9046 16.3236 29.1553C16.4556 29.274 16.5876 29.3891 16.7266 29.501C16.7502 29.518 16.7739 29.5384 16.7975 29.5554C16.7739 29.5384 16.7534 29.5215 16.7298 29.5045C16.7432 29.5317 16.811 29.5656 16.8381 29.5826C16.9091 29.6369 16.9838 29.6875 17.0547 29.7351C17.3561 29.9385 17.6708 30.1247 17.9958 30.284C18.0837 30.3281 18.1719 30.3687 18.2598 30.4058C18.2869 30.4161 18.3141 30.4295 18.3409 30.4397C18.3138 30.4295 18.2866 30.4161 18.263 30.4058C18.2901 30.4295 18.3544 30.4432 18.3882 30.4567C18.5576 30.5245 18.7269 30.5821 18.8995 30.6364C19.2481 30.7448 19.6069 30.8296 19.9693 30.8871C19.9997 30.8906 20.0303 30.8974 20.0607 30.9006C20.0674 30.9006 20.0741 30.9041 20.0811 30.9041C20.0677 30.9006 20.0472 30.9006 20.0201 30.8974C20.0575 30.9143 20.1182 30.9108 20.1588 30.9143C20.2537 30.9245 20.3451 30.9313 20.4397 30.9415C20.6292 30.9549 20.8189 30.9619 21.0084 30.9619C21.2385 30.9619 21.4654 30.9517 21.6958 30.9315C21.7533 30.928 21.8076 30.9213 21.8651 30.9146C21.8718 30.9146 21.8955 30.9111 21.9194 30.9079C21.9229 30.9079 21.9296 30.9079 21.9363 30.9044H21.9398C22.0414 30.8941 22.143 30.8705 22.2411 30.8535C22.6744 30.7723 23.101 30.6536 23.5141 30.4978C23.5819 30.4707 23.6496 30.4435 23.7173 30.4198C23.7241 30.4163 23.7308 30.4163 23.7343 30.4131C23.741 30.4096 23.7477 30.4064 23.7547 30.4029C23.8528 30.3587 23.9512 30.3114 24.0493 30.264C24.2356 30.1726 24.4149 30.0744 24.5909 29.9692C24.7398 30.1419 24.8922 30.3149 25.0412 30.4876C25.1901 30.6571 25.3357 30.8298 25.4847 30.9993L25.4882 31.0028C25.7489 31.3044 26.0096 31.606 26.2703 31.9041C27.1845 32.958 28.0984 34.0086 29.0094 35.0624C29.1583 35.2319 29.3072 35.4047 29.4564 35.5774C29.5612 35.6993 29.6663 35.8179 29.7711 35.94C29.8055 35.9882 29.8496 36.0391 29.8934 36.0867L29.8933 36.0869Z" fill="#C62828"/>
<path d="M34.7582 29.9796C33.9862 31.7755 32.8455 33.4124 31.437 34.7745C31.2881 34.605 31.1424 34.4323 30.9935 34.2628C30.8445 34.0901 30.6956 33.9206 30.5465 33.7478C30.2959 33.4565 30.0454 33.1683 29.7914 32.8769C28.874 31.8195 27.9563 30.7625 27.0389 29.7051C26.89 29.5324 26.7411 29.3629 26.5919 29.1902C26.4903 29.075 26.3922 28.9599 26.2906 28.8445C26.2433 28.7869 26.1925 28.7325 26.1449 28.675C26.2328 28.58 26.3175 28.4853 26.3989 28.3868C26.4395 28.3395 26.4836 28.2886 26.5207 28.2378C26.5207 28.2343 26.5242 28.2343 26.5242 28.231C26.5309 28.2176 26.5411 28.2074 26.5446 28.2039C26.6056 28.1226 26.6664 28.0379 26.7242 27.9531C26.8392 27.7836 26.9476 27.6109 27.0492 27.4312C27.1508 27.2515 27.2457 27.0685 27.3335 26.8823C27.354 26.835 27.3776 26.7873 27.3978 26.74C27.4013 26.7333 27.408 26.7195 27.4147 26.7026C27.4147 26.7061 27.4112 26.7093 27.4112 26.7128C27.4585 26.6213 27.4892 26.5161 27.523 26.4214C27.6652 26.0249 27.7771 25.6184 27.8547 25.2048C27.8682 25.1338 27.8784 25.066 27.8886 24.9947C27.8886 24.9845 27.8953 24.9608 27.8988 24.9371C27.8988 24.9336 27.9023 24.9269 27.9023 24.9237C27.9158 24.8322 27.9227 24.734 27.9295 24.6425C27.9464 24.4257 27.9566 24.2088 27.9566 23.9885C27.9566 23.7988 27.9499 23.6089 27.9362 23.4192C27.9295 23.3242 27.9192 23.2327 27.909 23.138C27.9055 23.1006 27.909 23.0363 27.8921 22.9992C27.8988 23.0398 27.9023 23.0635 27.9023 23.0772C27.9023 23.0705 27.8988 23.0568 27.8988 23.0398C27.8953 23.0229 27.8953 23.0094 27.8921 22.9957C27.8378 22.633 27.7534 22.2739 27.6483 21.9249C27.5908 21.7385 27.5265 21.5523 27.4553 21.3691C27.4419 21.3352 27.4282 21.2674 27.4045 21.2437C27.4147 21.2641 27.4214 21.2811 27.4249 21.291C27.4214 21.2875 27.4214 21.2843 27.4182 21.2808C27.4115 21.2674 27.4048 21.2536 27.4013 21.2402C27.3639 21.1589 27.3268 21.0774 27.2895 20.9962C27.1338 20.6741 26.9543 20.3658 26.7581 20.0677C26.7005 19.983 26.6395 19.8982 26.5785 19.8135C26.5616 19.7863 26.5277 19.722 26.5005 19.7051C26.514 19.722 26.5242 19.7355 26.5309 19.7457C26.5274 19.7422 26.5274 19.739 26.5242 19.7355C26.514 19.7252 26.5073 19.7118 26.4971 19.7016C26.3954 19.5727 26.2906 19.4508 26.1823 19.3289C25.9353 19.0545 25.6678 18.8003 25.3835 18.563C25.3394 18.5256 25.2921 18.4884 25.2448 18.451C25.1499 18.373 25.2719 18.468 25.2751 18.4747C25.248 18.4204 25.1125 18.3528 25.0617 18.3189C24.916 18.2172 24.7671 18.119 24.6147 18.0276C24.4489 17.9259 24.2795 17.8344 24.107 17.7464C24.0325 17.709 23.9613 17.6754 23.8868 17.638C23.8226 17.6076 23.7312 17.5465 23.6635 17.5363C23.6871 17.5465 23.7075 17.5532 23.7178 17.56C23.711 17.5565 23.7075 17.5565 23.7008 17.5532C23.6737 17.543 23.6465 17.5296 23.6161 17.5193C23.5756 17.5024 23.5315 17.4854 23.4909 17.472C23.4062 17.4416 23.3216 17.4109 23.2369 17.3805C23.0643 17.3229 22.8883 17.2721 22.7122 17.228C22.5326 17.1838 22.3534 17.1432 22.1738 17.1128C22.1297 17.1061 22.062 17.0824 21.9977 17.0722C22.0012 16.9027 21.9977 9.2142 21.9977 9C22.4243 9.0304 22.8713 9.07452 23.2944 9.1356C26.1925 9.56607 28.9278 10.8978 31.0983 12.8664C33.2516 14.8184 34.8189 17.4173 35.5366 20.2334C36.3632 23.4797 36.072 26.9158 34.7584 29.9792L34.7582 29.9796Z" fill="white"/>
</g>
<defs>
<filter id="filter0_d_76_35" x="37" y="0" width="170" height="48" filterUnits="userSpaceOnUse" color-interpolation-filters="sRGB">
<feFlood flood-opacity="0" result="BackgroundImageFix"/>
<feColorMatrix in="SourceAlpha" type="matrix" values="0 0 0 0 0 0 0 0 0 0 0 0 0 0 0 0 0 0 127 0" result="hardAlpha"/>
<feOffset/>
<feGaussianBlur stdDeviation="3"/>
<feComposite in2="hardAlpha" operator="out"/>
<feColorMatrix type="matrix" values="0 0 0 0 0 0 0 0 0 0 0 0 0 0 0 0 0 0 0.25 0"/>
<feBlend mode="normal" in2="BackgroundImageFix" result="effect1_dropShadow_76_35"/>
<feBlend mode="normal" in="SourceGraphic" in2="effect1_dropShadow_76_35" result="shape"/>
</filter>
<filter id="filter1_d_76_35" x="0" y="3" width="42" height="42.0008" filterUnits="userSpaceOnUse" color-interpolation-filters="sRGB">
<feFlood flood-opacity="0" result="BackgroundImageFix"/>
<feColorMatrix in="SourceAlpha" type="matrix" values="0 0 0 0 0 0 0 0 0 0 0 0 0 0 0 0 0 0 127 0" result="hardAlpha"/>
<feOffset/>
<feGaussianBlur stdDeviation="3"/>
<feComposite in2="hardAlpha" operator="out"/>
<feColorMatrix type="matrix" values="0 0 0 0 0 0 0 0 0 0 0 0 0 0 0 0 0 0 0.25 0"/>
<feBlend mode="normal" in2="BackgroundImageFix" result="effect1_dropShadow_76_35"/>
<feBlend mode="normal" in="SourceGraphic" in2="effect1_dropShadow_76_35" result="shape"/>
</filter>
</defs>
</svg>
