<svg width="901" height="901" viewBox="0 0 901 901" fill="none" xmlns="http://www.w3.org/2000/svg">
<circle cx="450.5" cy="450.5" r="450.5" fill="#007FA7"/>
<g filter="url(#filter0_d_153_903)">
<rect x="247.114" y="440.39" width="16.5896" height="30.891" rx="8.29481" fill="white"/>
<rect x="143" y="276.211" width="218.525" height="176.765" rx="68" fill="white"/>
<rect x="288.572" y="243" width="16.0176" height="45.6088" rx="8.00878" transform="rotate(31.35 288.572 243)" fill="white"/>
<rect x="327.443" y="355.206" width="18.3058" height="54.9174" rx="9.1529" transform="rotate(110.001 327.443 355.206)" fill="#007FA7"/>
<rect width="18.3058" height="54.9174" rx="9.1529" transform="matrix(0.342033 0.939688 0.939688 -0.342033 176.751 355.06)" fill="#007FA7"/>
<rect width="16.0176" height="45.6088" rx="8.00878" transform="matrix(-0.854005 0.520265 0.520265 0.854005 215.029 243.031)" fill="white"/>
<rect width="16.0176" height="45.6088" rx="8.00878" transform="matrix(0.683332 -0.730108 -0.730108 -0.683332 293.571 505.561)" fill="white"/>
<rect x="217.443" y="505.561" width="16.0176" height="45.6088" rx="8.00878" transform="rotate(-133.105 217.443 505.561)" fill="white"/>
<path d="M249.169 391.773C251.68 390.555 254.808 391.518 255.367 394.253C255.658 395.672 255.757 397.127 255.658 398.583C255.445 401.693 254.333 404.69 252.442 407.252C250.55 409.814 247.95 411.846 244.921 413.128C241.891 414.41 238.547 414.894 235.246 414.53C231.945 414.165 228.812 412.964 226.184 411.056C223.555 409.149 221.53 406.607 220.327 403.702C219.123 400.797 218.785 397.64 219.35 394.57C219.625 393.071 220.111 391.621 220.788 390.255C222 387.809 225.184 387.608 227.306 389.325L228.53 390.316C230.189 391.658 230.229 394.167 229.843 396.266V396.266C229.606 397.551 229.748 398.871 230.251 400.086C230.755 401.301 231.602 402.365 232.701 403.163C233.801 403.961 235.112 404.463 236.493 404.616C237.873 404.769 239.273 404.566 240.54 404.03C241.807 403.493 242.895 402.643 243.686 401.572C244.478 400.5 244.943 399.246 245.032 397.945V397.945C245.176 395.828 245.794 393.409 247.704 392.483L249.169 391.773Z" fill="#007FA7"/>
<path d="M253.641 391.773C251.129 390.555 248.001 391.518 247.442 394.253C247.151 395.672 247.052 397.127 247.151 398.583C247.364 401.693 248.476 404.69 250.367 407.252C252.259 409.814 254.859 411.846 257.888 413.128C260.918 414.41 264.262 414.894 267.563 414.53C270.864 414.165 273.997 412.964 276.626 411.056C279.254 409.149 281.279 406.607 282.483 403.702C283.687 400.797 284.024 397.64 283.459 394.57C283.184 393.071 282.698 391.621 282.021 390.255C280.809 387.809 277.625 387.608 275.504 389.325L274.279 390.316C272.62 391.658 272.581 394.167 272.967 396.266V396.266C273.203 397.551 273.062 398.871 272.558 400.086C272.054 401.301 271.207 402.365 270.108 403.163C269.008 403.961 267.698 404.463 266.317 404.616C264.936 404.769 263.536 404.566 262.269 404.03C261.002 403.493 259.914 402.643 259.123 401.572C258.331 400.5 257.866 399.246 257.777 397.945V397.945C257.633 395.828 257.015 393.409 255.105 392.483L253.641 391.773Z" fill="#007FA7"/>
<path d="M228.809 489.873C228.809 475.182 240.718 463.272 255.409 463.272V463.272C270.1 463.272 282.01 475.182 282.01 489.873V519.62C282.01 534.311 270.1 546.221 255.409 546.221V546.221C240.718 546.221 228.809 534.311 228.809 519.62V489.873Z" fill="white"/>
</g>
<g filter="url(#filter1_d_153_903)">
<rect x="644.114" y="381.39" width="16.5896" height="30.891" rx="8.29481" fill="white"/>
<rect x="540" y="217.211" width="218.525" height="176.765" rx="68" fill="white"/>
<rect x="685.572" y="184" width="16.0176" height="45.6088" rx="8.00878" transform="rotate(31.35 685.572 184)" fill="white"/>
<rect x="724.443" y="296.206" width="18.3058" height="54.9174" rx="9.1529" transform="rotate(110.001 724.443 296.206)" fill="#007FA7"/>
<rect width="18.3058" height="54.9174" rx="9.1529" transform="matrix(0.342033 0.939688 0.939688 -0.342033 573.751 296.06)" fill="#007FA7"/>
<rect width="16.0176" height="45.6088" rx="8.00878" transform="matrix(-0.854005 0.520265 0.520265 0.854005 612.029 184.031)" fill="white"/>
<rect width="16.0176" height="45.6088" rx="8.00878" transform="matrix(0.683332 -0.730108 -0.730108 -0.683332 690.571 446.561)" fill="white"/>
<rect x="614.443" y="446.561" width="16.0176" height="45.6088" rx="8.00878" transform="rotate(-133.105 614.443 446.561)" fill="white"/>
<path d="M646.169 332.773C648.68 331.555 651.808 332.518 652.367 335.253C652.658 336.672 652.757 338.127 652.658 339.583C652.445 342.693 651.333 345.69 649.442 348.252C647.55 350.814 644.95 352.846 641.921 354.128C638.891 355.41 635.547 355.894 632.246 355.53C628.945 355.165 625.812 353.964 623.184 352.056C620.555 350.149 618.53 347.607 617.327 344.702C616.123 341.797 615.785 338.64 616.35 335.57C616.625 334.071 617.111 332.621 617.788 331.255C619 328.809 622.184 328.608 624.306 330.325L625.53 331.316C627.189 332.658 627.229 335.167 626.843 337.266V337.266C626.606 338.551 626.748 339.871 627.251 341.086C627.755 342.301 628.602 343.365 629.701 344.163C630.801 344.961 632.112 345.463 633.493 345.616C634.873 345.769 636.273 345.566 637.54 345.03C638.807 344.493 639.895 343.643 640.686 342.572C641.478 341.5 641.943 340.246 642.032 338.945V338.945C642.176 336.828 642.794 334.409 644.704 333.483L646.169 332.773Z" fill="#007FA7"/>
<path d="M650.641 332.773C648.129 331.555 645.001 332.518 644.442 335.253C644.151 336.672 644.052 338.127 644.151 339.583C644.364 342.693 645.476 345.69 647.367 348.252C649.259 350.814 651.859 352.846 654.888 354.128C657.918 355.41 661.262 355.894 664.563 355.53C667.864 355.165 670.997 353.964 673.626 352.056C676.254 350.149 678.279 347.607 679.483 344.702C680.687 341.797 681.024 338.64 680.459 335.57C680.184 334.071 679.698 332.621 679.021 331.255C677.809 328.809 674.625 328.608 672.504 330.325L671.279 331.316C669.62 332.658 669.581 335.167 669.967 337.266V337.266C670.203 338.551 670.062 339.871 669.558 341.086C669.054 342.301 668.207 343.365 667.108 344.163C666.008 344.961 664.698 345.463 663.317 345.616C661.936 345.769 660.536 345.566 659.269 345.03C658.002 344.493 656.914 343.643 656.123 342.572C655.331 341.5 654.866 340.246 654.777 338.945V338.945C654.633 336.828 654.015 334.409 652.105 333.483L650.641 332.773Z" fill="#007FA7"/>
<path d="M625.809 430.873C625.809 416.182 637.718 404.272 652.409 404.272V404.272C667.1 404.272 679.01 416.182 679.01 430.873V460.62C679.01 475.311 667.1 487.221 652.409 487.221V487.221C637.718 487.221 625.809 475.311 625.809 460.62V430.873Z" fill="white"/>
</g>
<g filter="url(#filter2_d_153_903)">
<rect x="464.132" y="622.175" width="18.5045" height="34.4567" rx="9.25226" fill="white"/>
<rect x="348" y="439.044" width="243.749" height="197.169" rx="68" fill="white"/>
<rect x="510.375" y="402" width="17.8664" height="50.8733" rx="8.93322" transform="rotate(31.35 510.375 402)" fill="white"/>
<rect x="553.733" y="527.157" width="20.4188" height="61.2564" rx="10.2094" transform="rotate(110.001 553.733 527.157)" fill="#007FA7"/>
<rect width="20.4188" height="61.2564" rx="10.2094" transform="matrix(0.342033 0.939688 0.939688 -0.342033 385.647 526.994)" fill="#007FA7"/>
<rect width="17.8664" height="50.8733" rx="8.93322" transform="matrix(-0.854005 0.520265 0.520265 0.854005 428.343 402.035)" fill="white"/>
<rect width="17.8664" height="50.8733" rx="8.93322" transform="matrix(0.683332 -0.730108 -0.730108 -0.683332 515.951 694.867)" fill="white"/>
<rect x="431.037" y="694.867" width="17.8664" height="50.8733" rx="8.93322" transform="rotate(-133.105 431.037 694.867)" fill="white"/>
<path d="M466.423 567.946C469.225 566.587 472.714 567.662 473.338 570.712C473.662 572.295 473.772 573.918 473.662 575.542C473.424 579.011 472.185 582.353 470.075 585.211C467.965 588.07 465.065 590.335 461.685 591.765C458.306 593.195 454.576 593.736 450.893 593.329C447.211 592.922 443.717 591.583 440.785 589.455C437.854 587.327 435.595 584.491 434.252 581.252C432.909 578.012 432.533 574.49 433.163 571.065C433.47 569.394 434.011 567.776 434.767 566.252C436.119 563.524 439.67 563.3 442.037 565.215L443.403 566.321C445.253 567.818 445.297 570.616 444.867 572.957V572.957C444.603 574.39 444.761 575.863 445.323 577.219C445.884 578.574 446.829 579.76 448.056 580.65C449.282 581.54 450.744 582.101 452.284 582.271C453.825 582.441 455.385 582.215 456.799 581.617C458.213 581.019 459.426 580.071 460.309 578.875C461.191 577.679 461.71 576.281 461.809 574.83V574.83C461.97 572.468 462.66 569.771 464.79 568.738L466.423 567.946Z" fill="#007FA7"/>
<path d="M471.412 567.946C468.61 566.587 465.121 567.662 464.497 570.712C464.173 572.295 464.062 573.918 464.173 575.542C464.41 579.011 465.65 582.353 467.76 585.211C469.87 588.07 472.77 590.335 476.149 591.765C479.529 593.195 483.259 593.736 486.941 593.329C490.624 592.922 494.118 591.583 497.05 589.455C499.981 587.327 502.24 584.491 503.583 581.252C504.926 578.012 505.302 574.49 504.672 571.065C504.365 569.394 503.823 567.776 503.068 566.252C501.716 563.524 498.165 563.3 495.798 565.215L494.432 566.321C492.582 567.818 492.538 570.616 492.968 572.957V572.957C493.232 574.39 493.074 575.863 492.512 577.219C491.951 578.574 491.006 579.76 489.779 580.65C488.553 581.54 487.091 582.101 485.551 582.271C484.01 582.441 482.45 582.215 481.036 581.617C479.622 581.019 478.409 580.071 477.526 578.875C476.644 577.679 476.125 576.281 476.026 574.83V574.83C475.865 572.468 475.175 569.771 473.045 568.738L471.412 567.946Z" fill="#007FA7"/>
<path d="M443.713 677.369C443.713 660.982 456.998 647.698 473.384 647.698V647.698C489.771 647.698 503.055 660.982 503.055 677.369V710.549C503.055 726.936 489.771 740.22 473.384 740.22V740.22C456.998 740.22 443.713 726.936 443.713 710.549V677.369Z" fill="white"/>
</g>
<path d="M468 180C468 168.954 476.954 160 488 160H542C553.046 160 562 168.954 562 180V185.942C562 194.7 554.9 201.8 546.142 201.8V201.8L537.004 214.555C536.171 215.717 534.424 215.656 533.675 214.439L525.89 201.8H488C476.954 201.8 468 192.846 468 181.8V180Z" fill="white" fill-opacity="0.4"/>
<path d="M426 244C426 232.954 417.046 224 406 224H352C340.954 224 332 232.954 332 244V249.942C332 258.7 339.1 265.8 347.858 265.8V265.8L356.996 278.555C357.829 279.717 359.576 279.656 360.325 278.439L368.11 265.8H406C417.046 265.8 426 256.846 426 245.8V244Z" fill="white" fill-opacity="0.4"/>
<defs>
<filter id="filter0_d_153_903" x="113" y="245.996" width="278.525" height="370.224" filterUnits="userSpaceOnUse" color-interpolation-filters="sRGB">
<feFlood flood-opacity="0" result="BackgroundImageFix"/>
<feColorMatrix in="SourceAlpha" type="matrix" values="0 0 0 0 0 0 0 0 0 0 0 0 0 0 0 0 0 0 127 0" result="hardAlpha"/>
<feOffset dy="40"/>
<feGaussianBlur stdDeviation="15"/>
<feComposite in2="hardAlpha" operator="out"/>
<feColorMatrix type="matrix" values="0 0 0 0 0 0 0 0 0 0 0 0 0 0 0 0 0 0 0.25 0"/>
<feBlend mode="normal" in2="BackgroundImageFix" result="effect1_dropShadow_153_903"/>
<feBlend mode="normal" in="SourceGraphic" in2="effect1_dropShadow_153_903" result="shape"/>
</filter>
<filter id="filter1_d_153_903" x="510" y="186.996" width="278.525" height="370.224" filterUnits="userSpaceOnUse" color-interpolation-filters="sRGB">
<feFlood flood-opacity="0" result="BackgroundImageFix"/>
<feColorMatrix in="SourceAlpha" type="matrix" values="0 0 0 0 0 0 0 0 0 0 0 0 0 0 0 0 0 0 127 0" result="hardAlpha"/>
<feOffset dy="40"/>
<feGaussianBlur stdDeviation="15"/>
<feComposite in2="hardAlpha" operator="out"/>
<feColorMatrix type="matrix" values="0 0 0 0 0 0 0 0 0 0 0 0 0 0 0 0 0 0 0.25 0"/>
<feBlend mode="normal" in2="BackgroundImageFix" result="effect1_dropShadow_153_903"/>
<feBlend mode="normal" in="SourceGraphic" in2="effect1_dropShadow_153_903" result="shape"/>
</filter>
<filter id="filter2_d_153_903" x="318" y="405.342" width="303.75" height="404.878" filterUnits="userSpaceOnUse" color-interpolation-filters="sRGB">
<feFlood flood-opacity="0" result="BackgroundImageFix"/>
<feColorMatrix in="SourceAlpha" type="matrix" values="0 0 0 0 0 0 0 0 0 0 0 0 0 0 0 0 0 0 127 0" result="hardAlpha"/>
<feOffset dy="40"/>
<feGaussianBlur stdDeviation="15"/>
<feComposite in2="hardAlpha" operator="out"/>
<feColorMatrix type="matrix" values="0 0 0 0 0 0 0 0 0 0 0 0 0 0 0 0 0 0 0.25 0"/>
<feBlend mode="normal" in2="BackgroundImageFix" result="effect1_dropShadow_153_903"/>
<feBlend mode="normal" in="SourceGraphic" in2="effect1_dropShadow_153_903" result="shape"/>
</filter>
</defs>
</svg>
