<svg width="36" height="36" viewBox="0 0 36 36" fill="none" xmlns="http://www.w3.org/2000/svg">
<path d="M17.9996 33.7499C14.4092 33.744 10.903 32.8006 7.92944 31.0404C4.95558 29.2802 2.65002 26.7832 1.30771 23.8691C-0.0346035 20.955 -0.352257 17.7575 0.395087 14.6842C0.490464 14.2865 0.76287 13.9382 1.15171 13.7159C1.54054 13.4938 2.01452 13.4156 2.46911 13.4994C2.92398 13.5828 3.32204 13.8209 3.576 14.1614C3.82991 14.5017 3.9189 14.9164 3.82352 15.3142C3.57759 16.1935 3.44521 17.0942 3.42927 17.9994C3.42895 21.3162 4.9055 24.5027 7.54602 26.882C10.1866 29.2618 13.7827 30.6474 17.5713 30.7448C21.3601 30.8422 25.0434 29.644 27.8391 27.404C28.1648 27.1341 28.4563 26.8639 28.7476 26.594C29.1702 26.2029 29.7992 26.0388 30.3976 26.1633C30.9961 26.2881 31.4733 26.6825 31.649 27.1983C31.8251 27.7141 31.6729 28.2729 31.2503 28.6642C30.8901 28.9942 30.5303 29.3244 30.1533 29.6094V29.6091C26.8461 32.2842 22.5034 33.7633 17.9999 33.7491L17.9996 33.7499Z" fill="#C82C2C"/>
<path d="M33.9244 22.5006H33.5643C33.1184 22.4177 32.7283 22.183 32.4807 21.848C32.2328 21.5131 32.148 21.1055 32.2443 20.7156C32.4698 19.8241 32.5792 18.9133 32.57 18.0006C32.5706 14.6838 31.0938 11.4973 28.4532 9.11724C25.8127 6.7377 22.2165 5.35189 18.428 5.25443C14.6391 5.15701 10.9558 6.35527 8.16016 8.59526C7.70625 8.91737 7.09606 9.01478 6.54102 8.85401C5.98631 8.69295 5.56332 8.29576 5.41919 7.80004C5.27506 7.30432 5.4294 6.77872 5.82876 6.40523C9.1388 3.72257 13.4881 2.23766 18 2.25023C21.5902 2.25609 25.0967 3.19952 28.0702 4.95968C31.0441 6.71985 33.3496 9.21686 34.6919 12.131C36.0343 15.0447 36.3519 18.2426 35.6046 21.3158C35.5223 21.6519 35.3101 21.9531 35.0046 22.1686C34.6987 22.3844 34.3175 22.5016 33.9248 22.501L33.9244 22.5006Z" fill="#001F47"/>
<mask id="mask0_176_7030" style="mask-type:luminance" maskUnits="userSpaceOnUse" x="4" y="0" width="13" height="11">
<path d="M4.28125 0H16.3668V10.569H4.28125V0Z" fill="white"/>
</mask>
<g mask="url(#mask0_176_7030)">
<path d="M14.5723 10.5004H6.00133C5.54678 10.5004 5.11076 10.3424 4.78918 10.0611C4.46761 9.7797 4.28711 9.39814 4.28711 9.00037V1.5004C4.28711 0.96448 4.61375 0.469293 5.1442 0.201335C5.67466 -0.0666233 6.32793 -0.0666233 6.85839 0.201335C7.38885 0.469293 7.71548 0.96448 7.71548 1.5004V7.50044H14.5723C15.1847 7.50044 15.7506 7.78627 16.0569 8.25044C16.3631 8.71463 16.3631 9.28626 16.0569 9.75043C15.7506 10.2146 15.1847 10.5004 14.5723 10.5004Z" fill="#001F47"/>
</g>
<mask id="mask1_176_7030" style="mask-type:luminance" maskUnits="userSpaceOnUse" x="19" y="25" width="13" height="11">
<path d="M19.6328 25.4317H31.7183V36H19.6328V25.4317Z" fill="white"/>
</mask>
<g mask="url(#mask1_176_7030)">
<path d="M29.9988 36C29.5443 36 29.1082 35.842 28.7867 35.5606C28.4655 35.2793 28.2846 34.898 28.2846 34.4999V28.4999H21.4281C20.8157 28.4999 20.2498 28.2141 19.9435 27.7499C19.6373 27.286 19.6373 26.7141 19.9435 26.2499C20.2498 25.786 20.8157 25.4999 21.4281 25.4999H29.999H29.9987C30.4536 25.4999 30.8896 25.6582 31.2109 25.9392C31.5324 26.2206 31.7129 26.6022 31.7129 26.9999V34.4999C31.7129 34.8979 31.5324 35.2792 31.2109 35.5606C30.8896 35.8419 30.4536 35.9999 29.9987 35.9999L29.9988 36Z" fill="#C82C2C"/>
</g>
</svg>
