<svg width="42" height="36" viewBox="0 0 42 36" fill="none" xmlns="http://www.w3.org/2000/svg">
<path d="M39.1208 0H12.9528C11.3828 0 10.0742 1.43444 10.0742 3.15554V4.01629H14.1303C14.6536 4.01629 15.0462 4.15961 15.5696 4.30334L37.9436 4.30254V24.0963H18.5792V30.2637H39.1216C40.6916 30.2637 42.0002 28.973 42.0002 27.1082L41.9998 3.15538C41.8691 1.43428 40.6916 0.000243963 39.1212 0.000243963L39.1208 0Z" fill="#001F47"/>
<path d="M33.2333 34.5665C33.2333 35.1402 32.8407 35.7138 32.1866 35.7138H19.6258C19.1024 35.7138 18.5791 35.2835 18.5791 34.5665C18.5791 33.9928 18.9717 33.4191 19.6258 33.4191H22.7658L22.8966 32.5583H28.9152L29.046 33.4191H32.1861C32.8409 33.4191 33.2331 33.9928 33.2331 34.5665H33.2333Z" fill="#001F47"/>
<path d="M14.1306 6.3103H2.486C1.04666 6.3103 0 7.60104 0 9.17877V33.1316C0 34.7094 1.17746 36 2.486 36H14.1306C15.57 36 16.7473 34.7093 16.7473 33.1316V9.03528C16.6166 7.45746 15.4392 6.3103 14.1306 6.3103ZM8.50419 32.4143H7.98084C7.58824 32.4143 7.32675 32.1273 7.32675 31.6973C7.32675 31.2669 7.58861 30.9803 7.98084 30.9803H8.50419C8.89679 30.9803 9.15828 31.2673 9.15828 31.6973C9.15865 32.1277 8.89679 32.4143 8.50419 32.4143ZM14.1306 28.6851H2.35511V12.3339H14.1306V28.6851Z" fill="#C82C2C"/>
</svg>
