<svg width="30" height="36" viewBox="0 0 30 36" fill="none" xmlns="http://www.w3.org/2000/svg">
<path d="M15.1316 0H14.8683C9.46816 0 5.08512 3.74987 5.08512 8.36968V11.5647H4.17322C1.8761 11.5647 0 13.1546 0 15.1346V23.1598C0.000353431 30.2399 6.73328 36 15.0086 36C23.2667 36 30 30.2402 30 23.1598V15.1346C30 13.1546 28.1239 11.5647 25.8268 11.5647H24.9149L24.9152 8.36968C24.9152 3.74948 20.5321 0 15.1321 0H15.1316ZM8.59166 8.36968C8.59166 5.39965 11.3967 2.9996 14.8683 2.9996H15.1316C18.6032 2.9996 21.4082 5.39965 21.4082 8.36968V11.5496H8.59204L8.59166 8.36968ZM9.46823 23.3247C9.01581 24.2527 7.53766 24.5977 6.6102 23.8046C5.94358 23.2921 5.91213 22.2267 6.6102 21.6897C7.3019 21.0329 8.61994 21.1959 9.08222 21.6897C9.64704 22.1726 9.69267 22.8623 9.46823 23.3247ZM16.2362 23.8046C15.6353 24.3755 14.3887 24.3994 13.7641 23.8046C13.0954 23.2902 13.0682 22.2253 13.7641 21.6897C14.1996 21.2219 15.4579 20.9948 16.2362 21.6897C17.0032 22.3456 16.8353 23.3438 16.2362 23.8046ZM23.3897 23.8046C22.7928 24.3716 21.6164 24.403 20.9174 23.8046C20.2751 23.3096 20.1603 22.3377 20.9174 21.6897C21.5751 21.0653 22.8857 21.1512 23.3897 21.6897C24.1599 22.3498 23.9846 23.3462 23.3897 23.8046Z" fill="#001F47"/>
</svg>
