<svg width="762" height="501" viewBox="0 0 762 501" fill="none" xmlns="http://www.w3.org/2000/svg">
<path d="M138.645 275.011C141.573 273.242 144.726 271.873 148.018 270.942L149.945 261.67L165.61 261.398L167.877 270.591C171.2 271.404 174.399 272.663 177.386 274.331L185.321 269.14L196.598 280.021L191.691 288.114C193.455 291.041 194.823 294.189 195.76 297.476L205.031 299.414L205.303 315.067L196.088 317.368C195.264 320.689 194.007 323.886 192.348 326.878L197.528 334.812L186.658 346.079L178.565 341.171C175.634 342.939 172.482 344.311 169.191 345.251L167.265 354.512L151.6 354.795L149.333 345.591C146.013 344.778 142.818 343.519 139.835 341.851L131.901 347.042L120.634 336.161L125.542 328.068C123.771 325.145 122.402 321.995 121.473 318.706L112.212 316.711L111.94 301.047L121.133 298.78C121.955 295.462 123.213 292.268 124.873 289.281L119.682 281.347L130.563 270.08L138.656 274.988L138.645 275.011ZM146.998 295.833C144.698 298.226 143.158 301.246 142.573 304.514C141.989 307.781 142.385 311.148 143.712 314.191C145.039 317.233 147.238 319.814 150.031 321.608C152.824 323.401 156.086 324.327 159.404 324.269C162.723 324.21 165.95 323.17 168.678 321.279C171.406 319.388 173.513 316.731 174.732 313.644C175.951 310.557 176.229 307.178 175.529 303.933C174.829 300.688 173.184 297.724 170.801 295.413C169.213 293.874 167.336 292.663 165.279 291.85C163.222 291.038 161.024 290.639 158.812 290.678C156.601 290.717 154.419 291.193 152.391 292.077C150.364 292.962 148.531 294.238 146.998 295.833Z" fill="white" fill-opacity="0.4"/>
<path d="M661.94 67.6335C664.441 66.1271 667.132 64.9607 669.942 64.1651L671.586 56.2309L684.96 56.0042L686.887 63.8477C689.722 64.548 692.452 65.6229 695.003 67.0441L701.804 62.6123L711.427 71.9066L707.233 78.8094C708.73 81.3168 709.889 84.0114 710.679 86.8229L718.613 88.4665L718.851 101.841L710.996 103.768C710.296 106.603 709.221 109.333 707.8 111.884L712.231 118.684L702.948 128.308L696.034 124.125C693.533 125.632 690.842 126.798 688.032 127.593L686.389 135.528L673.014 135.766L671.087 127.911C668.255 127.216 665.529 126.145 662.983 124.726L656.182 129.158L646.559 119.863L650.753 112.949C649.248 110.47 648.078 107.802 647.273 105.015L639.339 103.36L639.101 89.9966L646.956 88.0697C647.656 85.2346 648.731 82.5054 650.152 79.9542L645.72 73.1534L655.048 63.4737L661.962 67.6562L661.94 67.6335ZM669.069 85.4515C667.097 87.4927 665.775 90.0728 665.269 92.8656C664.764 95.6583 665.098 98.5383 666.229 101.141C667.36 103.744 669.238 105.953 671.625 107.489C674.012 109.025 676.8 109.818 679.638 109.769C682.476 109.72 685.235 108.83 687.567 107.213C689.899 105.595 691.7 103.323 692.74 100.682C693.78 98.0416 694.014 95.1518 693.413 92.3782C692.811 89.6046 691.4 87.0718 689.358 85.1001C686.622 82.4634 682.952 81.0197 679.152 81.0855C675.353 81.1514 671.735 82.7215 669.092 85.4515H669.069Z" fill="white" fill-opacity="0.4"/>
<path d="M472.925 280.202C475.083 278.902 477.404 277.896 479.828 277.21L481.256 270.409L492.806 270.205L494.472 277.006C496.925 277.602 499.285 278.529 501.488 279.76L507.325 275.929L515.634 283.965L512.018 289.927C513.321 292.089 514.331 294.414 515.022 296.841L521.822 298.27L522.026 309.82L515.226 311.486C514.62 313.934 513.69 316.289 512.46 318.491L516.291 324.339L508.266 332.647L502.293 329.032C500.131 330.335 497.806 331.345 495.379 332.035L493.962 338.836L482.401 339.04L480.746 332.239C478.293 331.643 475.933 330.717 473.73 329.485L467.892 333.316L459.629 325.303L463.256 319.341C461.949 317.182 460.938 314.856 460.253 312.427L453.452 311.01L453.248 299.448L460.049 297.782C460.657 295.337 461.583 292.982 462.803 290.777L458.983 284.94L466.986 276.564L472.959 280.18L472.925 280.202ZM479.08 295.606C477.377 297.371 476.237 299.602 475.802 302.015C475.367 304.429 475.658 306.917 476.637 309.166C477.617 311.414 479.241 313.321 481.304 314.647C483.368 315.972 485.778 316.656 488.23 316.611C490.682 316.567 493.066 315.797 495.08 314.397C497.094 312.998 498.648 311.033 499.546 308.751C500.443 306.469 500.643 303.972 500.122 301.575C499.6 299.179 498.379 296.991 496.614 295.289C495.443 294.157 494.06 293.267 492.544 292.67C491.028 292.073 489.41 291.781 487.781 291.811C486.152 291.84 484.545 292.191 483.052 292.842C481.559 293.493 480.209 294.432 479.08 295.606Z" fill="white" fill-opacity="0.4"/>
<path d="M710.169 23.2132C711.153 22.6156 712.213 22.1543 713.32 21.8418L713.978 18.7134L719.248 18.6227L720.008 21.7171C721.13 21.9904 722.21 22.4176 723.215 22.9866L725.879 21.2297L729.676 24.9361L728.021 27.6564C728.623 28.6415 729.085 29.7059 729.393 30.8188L732.521 31.4648L732.612 36.7467L729.517 37.5062C729.243 38.6267 728.82 39.7055 728.259 40.7138L730.005 43.3775L726.332 47.1746L723.612 45.5197C722.625 46.1174 721.561 46.5787 720.45 46.8912L719.804 50.0195L714.522 50.1102L713.762 47.0159C712.646 46.7324 711.572 46.3057 710.566 45.7464L707.891 47.5033L704.094 43.8309L705.749 41.1106C705.153 40.1221 704.692 39.0586 704.377 37.9482L701.249 37.3021L701.158 32.0202L704.264 31.2608C704.538 30.1402 704.961 29.0614 705.522 28.0531L703.765 25.3895L707.438 21.5357L710.169 23.1906V23.2132ZM712.98 30.2407C712.2 31.046 711.675 32.0649 711.474 33.1682C711.273 34.2716 711.404 35.4099 711.85 36.4389C712.296 37.468 713.037 38.3416 713.98 38.9491C714.923 39.5566 716.024 39.8707 717.146 39.8516C718.267 39.8326 719.358 39.4812 720.279 38.842C721.201 38.2028 721.912 37.3045 722.323 36.2609C722.734 35.2173 722.826 34.0752 722.587 32.9793C722.348 31.8834 721.79 30.883 720.982 30.1047C720.447 29.584 719.814 29.1744 719.119 28.8993C718.425 28.6242 717.683 28.489 716.936 28.5017C716.189 28.5143 715.452 28.6745 714.768 28.9729C714.083 29.2713 713.464 29.7022 712.946 30.2407H712.98Z" fill="white" fill-opacity="0.4"/>
<g filter="url(#filter0_d_177_8191)">
<path d="M675.314 6.01862H449.473V174.836H675.314V6.01862Z" fill="#EDEDED"/>
<path d="M675.314 6.01862H449.473V26.8856H675.314V6.01862Z" fill="#979797"/>
<path d="M461.828 19.4501C463.487 19.4501 464.832 18.1054 464.832 16.4465C464.832 14.7876 463.487 13.4428 461.828 13.4428C460.169 13.4428 458.824 14.7876 458.824 16.4465C458.824 18.1054 460.169 19.4501 461.828 19.4501Z" fill="#EDEDED"/>
<path d="M471.972 19.4501C473.631 19.4501 474.976 18.1054 474.976 16.4465C474.976 14.7876 473.631 13.4428 471.972 13.4428C470.314 13.4428 468.969 14.7876 468.969 16.4465C468.969 18.1054 470.314 19.4501 471.972 19.4501Z" fill="#EDEDED"/>
<path d="M482.117 19.4501C483.776 19.4501 485.121 18.1054 485.121 16.4465C485.121 14.7876 483.776 13.4428 482.117 13.4428C480.458 13.4428 479.113 14.7876 479.113 16.4465C479.113 18.1054 480.458 19.4501 482.117 19.4501Z" fill="#EDEDED"/>
<path d="M662.869 107.758C662.869 107.917 617.928 108.053 562.502 108.053C507.076 108.053 462.111 107.917 462.111 107.758C462.111 107.599 507.053 107.463 562.502 107.463C617.951 107.463 662.869 107.588 662.869 107.758Z" fill="#979797"/>
<path d="M662.869 90.4273C662.869 90.586 617.928 90.722 562.502 90.722C507.076 90.722 462.111 90.586 462.111 90.4273C462.111 90.2686 507.053 90.1326 562.502 90.1326C617.951 90.1326 662.869 90.2573 662.869 90.4273Z" fill="#979797"/>
<path d="M662.869 73.0967C662.869 73.2554 617.928 73.3914 562.502 73.3914C507.076 73.3914 462.111 73.2554 462.111 73.0967C462.111 72.938 507.053 72.802 562.502 72.802C617.951 72.802 662.869 72.9267 662.869 73.0967Z" fill="#979797"/>
<path d="M662.869 55.7661C662.869 55.9248 617.928 56.0608 562.502 56.0608C507.076 56.0608 462.111 55.9248 462.111 55.7661C462.111 55.6075 507.053 55.4714 562.502 55.4714C617.951 55.4714 662.869 55.5961 662.869 55.7661Z" fill="#979797"/>
<path d="M648.757 107.112C644.847 97.6701 642.161 87.3556 639.168 77.5739C636.55 69.0616 636.312 65.1058 634.068 57.8857C630.543 46.5511 621.192 45.3043 614.402 48.376C608.349 51.1189 605.731 58.2257 603.725 64.6298L596.516 87.605C595.55 91.2854 594.069 94.8112 592.118 98.0781C590.033 101.24 586.848 103.87 583.119 104.357C576.975 105.162 571.478 100.028 568.86 94.349C566.242 88.6704 565.459 82.2551 563.193 76.4404C560.926 70.6258 556.018 65.1058 549.829 64.9471C542.178 64.8111 536.998 72.5413 533.859 79.6141C529.866 88.477 526.65 97.6699 524.247 107.089C523.605 110.341 522.534 113.493 521.062 116.463C519.43 119.33 516.721 121.79 513.479 122.13C509.297 122.64 505.409 119.659 502.972 116.168C500.535 112.677 499.039 108.585 496.545 105.14C494.052 101.694 490.039 98.8262 485.891 99.5516C482.162 100.209 479.487 103.473 477.288 106.59C471.32 115.037 466.155 124.023 461.861 133.431H669.511C659.922 130.189 652.668 116.554 648.757 107.112Z" fill="#C82C2C"/>
<path d="M520.167 147.089H510.362V156.893H520.167V147.089Z" fill="#C82C2C"/>
<path d="M581.464 151.985H530.368C530.067 151.985 529.779 151.866 529.566 151.653C529.354 151.441 529.234 151.153 529.234 150.852C529.234 150.551 529.354 150.263 529.566 150.05C529.779 149.838 530.067 149.719 530.368 149.719H581.464C581.765 149.719 582.053 149.838 582.266 150.05C582.478 150.263 582.598 150.551 582.598 150.852C582.598 151.153 582.478 151.441 582.266 151.653C582.053 151.866 581.765 151.985 581.464 151.985Z" fill="#263238"/>
<path d="M660.478 133.487H659.73H657.531L649.109 133.544L618.098 133.635L515.792 133.725H461.828H461.556V133.453C461.556 106.851 461.635 84.1706 461.669 68.1208C461.669 60.13 461.726 53.7826 461.748 49.4074C461.748 47.2539 461.748 45.5877 461.748 44.4316C461.748 43.8875 461.748 43.4681 461.748 43.1507C461.748 42.8334 461.748 42.72 461.748 42.72C461.758 42.8634 461.758 43.0073 461.748 43.1507C461.748 43.4681 461.748 43.8875 461.748 44.4316C461.748 45.565 461.748 47.2539 461.748 49.4074C461.748 53.7826 461.748 60.13 461.828 68.1208C461.828 84.1706 461.896 106.851 461.941 133.453L461.658 133.181H515.622L617.928 133.272L648.939 133.363H657.361H659.56L660.478 133.487Z" fill="#263238"/>
<g opacity="0.3">
<path d="M636.085 65.5026L562.388 133.487H599.236L643.6 92.4109L636.085 65.5026Z" fill="#EDEDED"/>
</g>
<g opacity="0.3">
<path d="M571.161 98.1915L530.617 133.487H520.178L568.055 92.4335L572.226 99.495" fill="#EDEDED"/>
</g>
</g>
<g filter="url(#filter1_d_177_8191)">
<path d="M373.399 238.238H170.249V360.346H373.399V238.238Z" fill="#EDEDED"/>
<path d="M373.399 238.238H170.249V257.008H373.399V238.238Z" fill="#979797"/>
<path d="M184.077 247.623C184.079 248.16 183.922 248.685 183.625 249.132C183.328 249.58 182.906 249.929 182.41 250.135C181.915 250.341 181.369 250.396 180.842 250.292C180.316 250.188 179.832 249.929 179.453 249.55C179.073 249.17 178.815 248.687 178.711 248.16C178.607 247.634 178.661 247.088 178.868 246.592C179.074 246.097 179.423 245.674 179.87 245.377C180.317 245.08 180.843 244.923 181.379 244.925C182.094 244.928 182.778 245.214 183.284 245.719C183.789 246.224 184.074 246.909 184.077 247.623Z" fill="#EDEDED"/>
<path d="M193.202 247.623C193.204 248.159 193.047 248.684 192.751 249.131C192.455 249.578 192.032 249.927 191.538 250.134C191.043 250.341 190.498 250.396 189.972 250.293C189.445 250.189 188.962 249.932 188.582 249.554C188.202 249.176 187.943 248.693 187.837 248.167C187.732 247.641 187.785 247.096 187.989 246.6C188.194 246.105 188.541 245.681 188.987 245.383C189.433 245.085 189.957 244.925 190.493 244.925C191.21 244.925 191.897 245.209 192.405 245.715C192.912 246.22 193.199 246.907 193.202 247.623Z" fill="#EDEDED"/>
<path d="M202.326 247.623C202.328 248.159 202.171 248.684 201.875 249.131C201.579 249.578 201.156 249.927 200.662 250.134C200.167 250.341 199.622 250.396 199.096 250.293C198.569 250.189 198.086 249.932 197.706 249.554C197.326 249.176 197.067 248.693 196.961 248.167C196.856 247.641 196.909 247.096 197.113 246.6C197.318 246.105 197.665 245.681 198.111 245.383C198.557 245.085 199.081 244.925 199.617 244.925C200.334 244.925 201.021 245.209 201.529 245.715C202.036 246.22 202.323 246.907 202.326 247.623Z" fill="#EDEDED"/>
<path d="M201.148 277.58H192.511V340.805H201.148V277.58Z" fill="#C82C2C"/>
<path d="M217.809 299.048H209.172V340.793H217.809V299.048Z" fill="#C82C2C"/>
<path d="M234.483 285.435H225.846V341.122H234.483V285.435Z" fill="#C82C2C"/>
<path d="M251.145 280.017H242.508V340.805H251.145V280.017Z" fill="#C82C2C"/>
<path d="M267.818 300.329H259.181V340.793H267.818V300.329Z" fill="#C82C2C"/>
<path d="M284.48 308.274H275.843V340.805H284.48V308.274Z" fill="#C82C2C"/>
<path d="M301.153 284.064H292.516V340.793H301.153V284.064Z" fill="#C82C2C"/>
<path d="M317.815 294.299H309.178V340.805H317.815V294.299Z" fill="#C82C2C"/>
<path d="M334.488 286.115H325.851V340.793H334.488V286.115Z" fill="#C82C2C"/>
<path d="M351.15 303.548H342.513V340.805H351.15V303.548Z" fill="#C82C2C"/>
<g opacity="0.3">
<path d="M217.809 299.048H209.172V340.793H217.809V299.048Z" fill="#EDEDED"/>
</g>
<g opacity="0.3">
<path d="M251.145 280.017H242.508V340.805H251.145V280.017Z" fill="#EDEDED"/>
</g>
<g opacity="0.3">
<path d="M284.48 308.274H275.843V340.805H284.48V308.274Z" fill="#EDEDED"/>
</g>
<g opacity="0.3">
<path d="M317.815 294.299H309.178V340.805H317.815V294.299Z" fill="#EDEDED"/>
</g>
<g opacity="0.3">
<path d="M351.15 303.548H342.513V340.805H351.15V303.548Z" fill="#EDEDED"/>
</g>
<path d="M363.55 340.805C363.55 340.963 323.368 341.099 273.814 341.099C224.259 341.099 184.066 340.963 184.066 340.805C184.066 340.646 224.248 340.51 273.814 340.51C323.38 340.51 363.55 340.635 363.55 340.805Z" fill="#263238"/>
</g>
<g filter="url(#filter2_d_177_8191)">
<path d="M123.433 148.982H15.1768V257.238H123.433V148.982Z" fill="#EDEDED"/>
<path d="M71.6112 211.537L101.467 211.945C101.229 227.814 87.865 240.826 71.6112 240.826H71.4072L71.6112 211.537Z" fill="#001F47"/>
<path d="M66.8737 207.287L66.4543 236.575C50.2458 236.349 36.9844 223.201 36.9844 207.287C36.9844 191.373 50.5065 177.953 66.8737 177.953C83.2408 177.953 96.729 191.18 96.729 207.242L66.8737 207.287Z" fill="#C82C2C"/>
<path d="M123.331 148.982H15.1768V170.279H123.331V148.982Z" fill="#979797"/>
<path d="M27.7924 162.697C29.4888 162.697 30.864 161.321 30.864 159.625C30.864 157.929 29.4888 156.553 27.7924 156.553C26.0959 156.553 24.7207 157.929 24.7207 159.625C24.7207 161.321 26.0959 162.697 27.7924 162.697Z" fill="#EDEDED"/>
<path d="M38.1293 162.697C39.8257 162.697 41.201 161.321 41.201 159.625C41.201 157.929 39.8257 156.553 38.1293 156.553C36.4329 156.553 35.0576 157.929 35.0576 159.625C35.0576 161.321 36.4329 162.697 38.1293 162.697Z" fill="#EDEDED"/>
<path d="M51.5496 159.625C51.5496 160.232 51.3694 160.826 51.0319 161.331C50.6944 161.837 50.2147 162.23 49.6534 162.463C49.0921 162.695 48.4745 162.756 47.8787 162.638C47.2828 162.519 46.7355 162.227 46.3059 161.797C45.8763 161.367 45.5838 160.82 45.4653 160.224C45.3468 159.628 45.4076 159.011 45.6401 158.449C45.8726 157.888 46.2663 157.408 46.7714 157.071C47.2765 156.733 47.8704 156.553 48.4779 156.553C48.8813 156.553 49.2807 156.633 49.6534 156.787C50.0261 156.941 50.3647 157.168 50.6499 157.453C50.9352 157.738 51.1614 158.077 51.3158 158.449C51.4701 158.822 51.5496 159.222 51.5496 159.625Z" fill="#EDEDED"/>
<path d="M123.422 257.295C123.422 257.295 123.422 257.114 123.422 256.774C123.422 256.434 123.422 255.924 123.422 255.278C123.422 253.94 123.422 251.991 123.422 249.452C123.422 244.362 123.422 236.904 123.354 227.428C123.354 208.488 123.286 181.467 123.229 149.038L123.479 149.288H15.2447L15.5394 148.993C15.5394 188.664 15.5394 225.785 15.5394 257.25L15.29 256.989L93.68 257.125H115.703H121.518H123.025H123.535H121.574H115.805L93.85 257.193L15.29 257.318H15.0293V257.295C15.0293 225.83 15.0293 188.676 15.0293 149.038V148.744H15.3353H123.569H123.83V149.004C123.773 181.501 123.728 208.579 123.694 227.564C123.694 237.018 123.694 244.442 123.626 249.52C123.626 252.047 123.626 253.974 123.626 255.3C123.626 255.935 123.626 256.434 123.626 256.762C123.626 257.091 123.422 257.295 123.422 257.295Z" fill="#263238"/>
</g>
<g filter="url(#filter3_d_177_8191)">
<path d="M388.052 0.294678H92.8877V213.306H388.052V0.294678Z" fill="#EDEDED"/>
<path d="M334.88 48.58H264.935C253.304 48.58 243.875 58.0087 243.875 69.6397V76.6331C243.875 88.264 253.304 97.6928 264.935 97.6928H334.88C346.511 97.6928 355.94 88.264 355.94 76.6331V69.6397C355.94 58.0087 346.511 48.58 334.88 48.58Z" fill="#B9B9B9"/>
<path d="M114.037 103.417C113.933 94.3939 116.504 85.5423 121.427 77.9795C126.349 70.4167 133.401 64.4816 141.693 60.9233C149.986 57.365 159.146 56.3432 168.019 57.9866C176.891 59.6301 185.078 63.8653 191.546 70.1576C198.013 76.4499 202.472 84.5172 204.359 93.3412C206.246 102.165 205.476 111.35 202.147 119.737C198.818 128.124 193.079 135.337 185.654 140.465C178.23 145.594 169.452 148.407 160.43 148.551C148.297 148.702 136.599 144.036 127.903 135.575C119.206 127.114 114.219 115.549 114.037 103.417ZM181.523 102.283C181.433 97.9736 180.07 93.787 177.604 90.2513C175.138 86.7155 171.681 83.9889 167.668 82.4151C163.655 80.8414 159.266 80.4909 155.054 81.4079C150.842 82.3249 146.996 84.4683 144 87.5679C141.004 90.6676 138.994 94.5847 138.221 98.8255C137.448 103.066 137.948 107.441 139.658 111.398C141.368 115.355 144.211 118.717 147.829 121.061C151.447 123.404 155.677 124.624 159.988 124.567C165.791 124.469 171.318 122.072 175.355 117.902C179.393 113.733 181.611 108.132 181.523 102.329V102.283Z" fill="white"/>
<path d="M114.037 103.417C113.828 91.2818 118.441 79.5594 126.864 70.8216C135.287 62.0838 146.833 57.0443 158.967 56.809L159.341 80.7476C156.461 80.7937 153.618 81.4067 150.975 82.5516C148.332 83.6964 145.94 85.3507 143.936 87.4199C139.889 91.5989 137.667 97.2146 137.76 103.031C137.854 108.848 140.254 114.39 144.433 118.437C148.612 122.484 154.227 124.706 160.044 124.612L160.43 148.551C148.297 148.703 136.599 144.036 127.902 135.575C119.206 127.114 114.219 115.549 114.037 103.417Z" fill="#001F47"/>
<path d="M154.864 53.1252C184.334 52.6492 207.808 75.511 208.284 105.106L180.412 105.548C180.186 91.4021 169.418 82.4931 155.34 82.7198L154.864 53.1252Z" fill="#C82C2C"/>
<path d="M388.052 0.294678H92.8877V28.7445H388.052V0.294678Z" fill="#979797"/>
<path d="M342.758 65.0605H259.811C259.342 65.0605 258.892 64.8742 258.561 64.5426C258.229 64.211 258.043 63.7613 258.043 63.2923C258.042 63.0592 258.086 62.828 258.174 62.6122C258.263 62.3963 258.393 62.2001 258.557 62.0347C258.721 61.8693 258.917 61.738 259.132 61.6484C259.347 61.5589 259.578 61.5128 259.811 61.5128H342.758C342.994 61.5083 343.229 61.5509 343.449 61.6383C343.669 61.7258 343.869 61.8561 344.038 62.0218C344.207 62.1875 344.341 62.3852 344.433 62.6034C344.524 62.8215 344.571 63.0557 344.571 63.2923C344.571 63.5284 344.524 63.7621 344.432 63.9796C344.341 64.1971 344.206 64.3941 344.037 64.5589C343.868 64.7237 343.668 64.853 343.448 64.9391C343.228 65.0253 342.994 65.0666 342.758 65.0605Z" fill="#263238"/>
<path d="M342.758 74.4682H259.811C259.342 74.4682 258.892 74.2819 258.561 73.9503C258.229 73.6187 258.043 73.169 258.043 72.7C258.042 72.4669 258.086 72.2357 258.174 72.0199C258.263 71.804 258.393 71.6078 258.557 71.4424C258.721 71.277 258.917 71.1457 259.132 71.0562C259.347 70.9666 259.578 70.9205 259.811 70.9205H342.758C342.994 70.916 343.229 70.9587 343.449 71.0461C343.669 71.1335 343.869 71.2638 344.038 71.4295C344.207 71.5952 344.341 71.7929 344.433 72.0111C344.524 72.2292 344.571 72.4634 344.571 72.7C344.571 72.9361 344.524 73.1698 344.432 73.3873C344.341 73.6049 344.206 73.8018 344.037 73.9666C343.868 74.1314 343.668 74.2607 343.448 74.3469C343.228 74.433 342.994 74.4743 342.758 74.4682Z" fill="#263238"/>
<path d="M297.51 83.8759H259.811C259.342 83.8759 258.892 83.6896 258.561 83.358C258.229 83.0264 258.043 82.5767 258.043 82.1077C258.043 81.6388 258.229 81.189 258.561 80.8574C258.892 80.5258 259.342 80.3395 259.811 80.3395H297.51C297.971 80.3514 298.409 80.5429 298.731 80.8732C299.053 81.2035 299.233 81.6465 299.233 82.1077C299.233 82.5689 299.053 83.012 298.731 83.3423C298.409 83.6726 297.971 83.8641 297.51 83.8759Z" fill="#263238"/>
<path d="M334.88 108.665H264.935C253.304 108.665 243.875 118.093 243.875 129.724V136.718C243.875 148.349 253.304 157.777 264.935 157.777H334.88C346.511 157.777 355.94 148.349 355.94 136.718V129.724C355.94 118.093 346.511 108.665 334.88 108.665Z" fill="#B9B9B9"/>
<path d="M345.059 188.403H252.41C249.834 188.403 247.363 187.38 245.541 185.558C243.72 183.737 242.696 181.266 242.696 178.69C242.699 176.115 243.724 173.648 245.545 171.828C247.367 170.009 249.836 168.987 252.41 168.987H345.059C347.632 168.987 350.1 170.01 351.92 171.829C353.739 173.649 354.761 176.116 354.761 178.69C354.763 179.965 354.513 181.228 354.026 182.406C353.539 183.585 352.825 184.656 351.924 185.558C351.022 186.46 349.952 187.176 348.774 187.664C347.597 188.152 346.334 188.403 345.059 188.403Z" fill="#B9B9B9"/>
<path d="M342.214 125.576H259.256C259.024 125.576 258.794 125.53 258.58 125.441C258.365 125.352 258.17 125.222 258.006 125.058C257.842 124.894 257.712 124.699 257.623 124.484C257.534 124.27 257.488 124.04 257.488 123.808C257.488 123.339 257.675 122.889 258.006 122.557C258.338 122.226 258.788 122.039 259.256 122.039H342.214C342.683 122.039 343.133 122.226 343.465 122.557C343.796 122.889 343.983 123.339 343.983 123.808C343.983 124.277 343.796 124.726 343.465 125.058C343.133 125.39 342.683 125.576 342.214 125.576Z" fill="#263238"/>
<path d="M338.678 180.673H255.731C255.262 180.673 254.812 180.487 254.481 180.155C254.149 179.824 253.963 179.374 253.963 178.905C253.963 178.436 254.149 177.986 254.481 177.655C254.812 177.323 255.262 177.137 255.731 177.137H338.678C338.911 177.135 339.142 177.18 339.358 177.268C339.574 177.356 339.77 177.486 339.935 177.651C340.101 177.815 340.232 178.011 340.321 178.226C340.411 178.441 340.457 178.672 340.457 178.905C340.457 179.138 340.411 179.369 340.321 179.584C340.232 179.8 340.101 179.995 339.935 180.159C339.77 180.324 339.574 180.454 339.358 180.542C339.142 180.63 338.911 180.675 338.678 180.673Z" fill="#263238"/>
<path d="M342.214 134.984H259.256C259.024 134.984 258.794 134.938 258.58 134.849C258.365 134.76 258.17 134.63 258.006 134.466C257.842 134.302 257.712 134.107 257.623 133.892C257.534 133.678 257.488 133.448 257.488 133.215C257.488 132.746 257.675 132.297 258.006 131.965C258.338 131.633 258.788 131.447 259.256 131.447H342.214C342.683 131.447 343.133 131.633 343.465 131.965C343.796 132.297 343.983 132.746 343.983 133.215C343.983 133.684 343.796 134.134 343.465 134.466C343.133 134.797 342.683 134.984 342.214 134.984Z" fill="#263238"/>
<path d="M296.967 144.391H259.256C258.788 144.391 258.338 144.205 258.006 143.873C257.675 143.542 257.488 143.092 257.488 142.623C257.488 142.154 257.675 141.704 258.006 141.373C258.338 141.041 258.788 140.855 259.256 140.855H296.967C297.436 140.855 297.885 141.041 298.217 141.373C298.549 141.704 298.735 142.154 298.735 142.623C298.735 143.092 298.549 143.542 298.217 143.873C297.885 144.205 297.436 144.391 296.967 144.391Z" fill="#263238"/>
<path d="M238.083 59.0758C237.57 59.1605 237.05 59.1985 236.53 59.1892L232.359 59.2798C228.789 59.3365 223.858 59.3705 218.406 59.3705H212.059L212.252 59.2912C209.486 62.0342 207.095 64.3691 205.383 66.0126L203.365 67.9168C203.139 68.1629 202.88 68.3765 202.595 68.5515C202.777 68.2753 202.99 68.0206 203.229 67.7921L205.077 65.7406C206.721 64.029 209.055 61.6374 211.798 58.8605L211.878 58.7811H218.35C223.802 58.7811 228.732 58.7811 232.303 58.8605L236.53 58.9511C237.051 58.941 237.571 58.9828 238.083 59.0758Z" fill="#263238"/>
<path d="M236.86 61.5128C238.162 61.5128 239.217 60.4573 239.217 59.1552C239.217 57.8531 238.162 56.7976 236.86 56.7976C235.557 56.7976 234.502 57.8531 234.502 59.1552C234.502 60.4573 235.557 61.5128 236.86 61.5128Z" fill="#263238"/>
<path d="M236.86 132.377C238.162 132.377 239.217 131.321 239.217 130.019C239.217 128.717 238.162 127.661 236.86 127.661C235.557 127.661 234.502 128.717 234.502 130.019C234.502 131.321 235.557 132.377 236.86 132.377Z" fill="#263238"/>
<path d="M235.294 130.438C233.982 130.591 232.66 130.647 231.339 130.608C228.89 130.608 225.513 130.608 221.784 130.608L212.24 130.518L209.35 130.45C208.995 130.475 208.639 130.475 208.284 130.45C209.585 130.185 210.914 130.082 212.24 130.144C214.677 130.076 218.055 130.042 221.795 130.064C225.535 130.087 228.902 130.132 231.339 130.2C232.662 130.175 233.984 130.254 235.294 130.438Z" fill="#263238"/>
<path d="M136.537 182.237H128.807V189.968H136.537V182.237Z" fill="#001F47"/>
<path d="M162.459 182.237H154.729V189.968H162.459V182.237Z" fill="#979797"/>
<path d="M190.592 182.237H182.861V189.968H190.592V182.237Z" fill="#C82C2C"/>
<path d="M112.972 14.5196C113.001 15.0531 112.92 15.5869 112.736 16.0883C112.551 16.5897 112.267 17.0483 111.899 17.4361C111.532 17.8239 111.089 18.1328 110.598 18.3438C110.107 18.5549 109.579 18.6638 109.044 18.6638C108.51 18.6638 107.981 18.5549 107.491 18.3438C107 18.1328 106.557 17.8239 106.19 17.4361C105.822 17.0483 105.537 16.5897 105.353 16.0883C105.169 15.5869 105.088 15.0531 105.117 14.5196C105.088 13.9861 105.169 13.4523 105.353 12.9509C105.537 12.4495 105.822 11.9909 106.19 11.6031C106.557 11.2153 107 10.9064 107.491 10.6953C107.981 10.4843 108.51 10.3754 109.044 10.3754C109.579 10.3754 110.107 10.4843 110.598 10.6953C111.089 10.9064 111.532 11.2153 111.899 11.6031C112.267 11.9909 112.551 12.4495 112.736 12.9509C112.92 13.4523 113.001 13.9861 112.972 14.5196Z" fill="#EDEDED"/>
<path d="M126.233 14.5196C126.233 15.5627 125.819 16.5631 125.081 17.3007C124.344 18.0383 123.343 18.4527 122.3 18.4527C121.257 18.4527 120.257 18.0383 119.519 17.3007C118.782 16.5631 118.367 15.5627 118.367 14.5196C118.367 13.4765 118.782 12.4761 119.519 11.7385C120.257 11.0009 121.257 10.5865 122.3 10.5865C123.343 10.5865 124.344 11.0009 125.081 11.7385C125.819 12.4761 126.233 13.4765 126.233 14.5196Z" fill="#EDEDED"/>
<path d="M139.483 14.5196C139.483 15.5627 139.069 16.5631 138.331 17.3007C137.594 18.0383 136.593 18.4527 135.55 18.4527C134.507 18.4527 133.507 18.0383 132.769 17.3007C132.032 16.5631 131.617 15.5627 131.617 14.5196C131.617 13.4765 132.032 12.4761 132.769 11.7385C133.507 11.0009 134.507 10.5865 135.55 10.5865C136.593 10.5865 137.594 11.0009 138.331 11.7385C139.069 12.4761 139.483 13.4765 139.483 14.5196Z" fill="#EDEDED"/>
</g>
<g filter="url(#filter4_d_177_8191)">
<path d="M509.614 140.662H299.369V297.828H509.614V140.662Z" fill="#EDEDED"/>
<path d="M508.957 140.662H298.712V160.09H508.957V140.662Z" fill="#979797"/>
<path d="M310.217 153.176C311.763 153.176 313.016 151.922 313.016 150.376C313.016 148.83 311.763 147.576 310.217 147.576C308.67 147.576 307.417 148.83 307.417 150.376C307.417 151.922 308.67 153.176 310.217 153.176Z" fill="#EDEDED"/>
<path d="M319.658 153.176C321.204 153.176 322.458 151.922 322.458 150.376C322.458 148.83 321.204 147.576 319.658 147.576C318.112 147.576 316.858 148.83 316.858 150.376C316.858 151.922 318.112 153.176 319.658 153.176Z" fill="#EDEDED"/>
<path d="M329.099 153.176C330.646 153.176 331.899 151.922 331.899 150.376C331.899 148.83 330.646 147.576 329.099 147.576C327.553 147.576 326.3 148.83 326.3 150.376C326.3 151.922 327.553 153.176 329.099 153.176Z" fill="#EDEDED"/>
<path d="M497.373 235.374C497.373 235.544 455.525 235.669 403.93 235.669C352.335 235.669 310.477 235.544 310.477 235.374C310.477 235.204 352.312 235.079 403.93 235.079C455.548 235.079 497.373 235.215 497.373 235.374Z" fill="#979797"/>
<path d="M497.373 219.245C497.373 219.404 455.525 219.54 403.93 219.54C352.335 219.54 310.477 219.404 310.477 219.245C310.477 219.086 352.312 218.95 403.93 218.95C455.548 218.95 497.373 219.075 497.373 219.245Z" fill="#979797"/>
<path d="M497.373 203.104C497.373 203.274 455.525 203.399 403.93 203.399C352.335 203.399 310.477 203.274 310.477 203.104C310.477 202.934 352.312 202.81 403.93 202.81C455.548 202.81 497.373 202.946 497.373 203.104Z" fill="#979797"/>
<path d="M497.373 187.021C497.373 187.179 455.525 187.315 403.93 187.315C352.335 187.315 310.477 187.179 310.477 187.021C310.477 186.862 352.312 186.726 403.93 186.726C455.548 186.726 497.373 186.805 497.373 187.021Z" fill="#979797"/>
<path d="M341.851 228.063H326.3V259.335H341.851V228.063Z" fill="#C82C2C"/>
<path d="M397.652 228.063H382.101V259.335H397.652V228.063Z" fill="#001F47"/>
<path d="M482.298 238.718H466.747V259.324H482.298V238.718Z" fill="#001F47"/>
<path d="M453.451 213.249H437.9V259.324H453.451V213.249Z" fill="#979797"/>
<path d="M424.922 195.318H409.371V259.335H424.922V195.318Z" fill="#C82C2C"/>
<path d="M368.635 213.249H353.084V259.324H368.635V213.249Z" fill="#979797"/>
<path d="M495.14 259.335H494.448H492.408L484.553 259.392L455.65 259.562L360.44 259.653H310.205H309.933V259.381C309.933 234.615 310.012 213.498 310.035 198.559C310.035 191.112 310.103 185.207 310.114 181.138C310.114 179.132 310.114 177.579 310.114 176.502C310.114 175.992 310.114 175.607 310.114 175.312C310.114 175.017 310.114 174.915 310.114 174.915C310.114 174.915 310.114 175.051 310.114 175.312V176.502C310.114 177.579 310.114 179.132 310.114 181.138C310.114 185.207 310.114 191.112 310.193 198.559C310.193 213.498 310.25 234.615 310.295 259.381L310.023 259.097H360.44L455.65 259.177L484.519 259.267L492.374 259.324H494.414L495.14 259.335Z" fill="#263238"/>
<path d="M349.728 275.192H342.894V282.027H349.728V275.192Z" fill="#C82C2C"/>
<path d="M391.485 274.977H384.65V281.812H391.485V274.977Z" fill="#979797"/>
<path d="M436.665 275.192H429.83V282.027H436.665V275.192Z" fill="#001F47"/>
</g>
<g filter="url(#filter5_d_177_8191)">
<path d="M480.564 91.5495H407.921V164.193H480.564V91.5495Z" fill="#EDEDED"/>
</g>
<path d="M448.385 127.99C450.479 127.062 452.254 125.542 453.493 123.616C454.732 121.69 455.38 119.444 455.356 117.154C455.356 110.682 450.493 105.423 444.429 105.389C438.365 105.355 433.423 110.58 433.401 117.052C433.356 119.362 433.996 121.634 435.241 123.581C436.485 125.527 438.279 127.061 440.394 127.99C423.494 130.529 424.265 148.902 424.265 148.902L464.22 149.084C464.22 149.084 465.138 130.518 448.385 127.99Z" fill="#C82C2C"/>
<g filter="url(#filter6_d_177_8191)">
<rect x="634.509" y="360.7" width="14.2624" height="26.5575" rx="7.13119" fill="white"/>
<rect x="545" y="219.552" width="187.87" height="151.968" rx="40" fill="white"/>
<rect x="670.151" y="191" width="13.7706" height="39.2106" rx="6.88529" transform="rotate(31.35 670.151 191)" fill="white"/>
<rect x="703.568" y="287.465" width="15.7378" height="47.2134" rx="7.8689" transform="rotate(110.001 703.568 287.465)" fill="#001F47"/>
<rect width="15.7378" height="47.2134" rx="7.8689" transform="matrix(0.342033 0.939688 0.939688 -0.342033 574.017 287.339)" fill="#001F47"/>
<rect width="13.7706" height="39.2106" rx="6.88529" transform="matrix(-0.854005 0.520265 0.520265 0.854005 606.924 191.027)" fill="white"/>
<rect width="13.7706" height="39.2106" rx="6.88529" transform="matrix(0.683332 -0.730108 -0.730108 -0.683332 674.447 416.728)" fill="white"/>
<rect x="609" y="416.728" width="13.7706" height="39.2106" rx="6.88529" transform="rotate(-133.105 609 416.728)" fill="white"/>
<path d="M636.275 318.903C638.434 317.855 641.123 318.684 641.604 321.034C641.854 322.255 641.939 323.506 641.854 324.757C641.671 327.431 640.715 330.007 639.089 332.21C637.463 334.413 635.228 336.159 632.623 337.262C630.018 338.364 627.143 338.78 624.305 338.467C621.467 338.153 618.774 337.121 616.514 335.481C614.255 333.841 612.514 331.655 611.479 329.158C610.444 326.661 610.153 323.947 610.639 321.307C610.876 320.019 611.293 318.772 611.875 317.597C612.917 315.495 615.655 315.322 617.479 316.798L618.532 317.65C619.958 318.804 619.992 320.961 619.66 322.765C619.457 323.87 619.578 325.005 620.011 326.05C620.444 327.094 621.172 328.009 622.118 328.695C623.063 329.381 624.19 329.813 625.377 329.944C626.564 330.075 627.767 329.901 628.857 329.44C629.946 328.979 630.881 328.248 631.562 327.326C632.242 326.405 632.642 325.327 632.718 324.209C632.843 322.389 633.374 320.309 635.015 319.513L636.275 318.903Z" fill="#001F47"/>
<path d="M640.12 318.903C637.961 317.855 635.272 318.684 634.791 321.034C634.541 322.255 634.455 323.506 634.541 324.757C634.724 327.431 635.679 330.007 637.306 332.21C638.932 334.413 641.167 336.159 643.772 337.262C646.376 338.364 649.252 338.78 652.089 338.467C654.927 338.153 657.621 337.121 659.88 335.481C662.14 333.841 663.881 331.655 664.916 329.158C665.951 326.661 666.241 323.947 665.755 321.307C665.519 320.019 665.101 318.772 664.519 317.597C663.477 315.495 660.74 315.322 658.916 316.798L657.863 317.65C656.437 318.804 656.403 320.961 656.735 322.765C656.938 323.87 656.816 325.005 656.383 326.05C655.95 327.094 655.222 328.009 654.277 328.695C653.331 329.381 652.205 329.813 651.018 329.944C649.83 330.075 648.627 329.901 647.538 329.44C646.448 328.979 645.513 328.248 644.833 327.326C644.153 326.405 643.753 325.327 643.676 324.209C643.552 322.389 643.021 320.309 641.379 319.513L640.12 318.903Z" fill="#001F47"/>
<path d="M618.771 403.241C618.771 390.61 629.009 380.372 641.639 380.372C654.27 380.372 664.508 390.61 664.508 403.241V428.814C664.508 441.445 654.27 451.683 641.639 451.683C629.009 451.683 618.771 441.445 618.771 428.814V403.241Z" fill="white"/>
</g>
<rect x="353" y="277" width="17" height="3" rx="1.5" fill="#001F47"/>
<rect x="396" y="277" width="17" height="3" rx="1.5" fill="#001F47"/>
<rect x="443" y="277" width="17" height="3" rx="1.5" fill="#001F47"/>
<defs>
<filter id="filter0_d_177_8191" x="445.473" y="6.01862" width="233.842" height="176.817" filterUnits="userSpaceOnUse" color-interpolation-filters="sRGB">
<feFlood flood-opacity="0" result="BackgroundImageFix"/>
<feColorMatrix in="SourceAlpha" type="matrix" values="0 0 0 0 0 0 0 0 0 0 0 0 0 0 0 0 0 0 127 0" result="hardAlpha"/>
<feOffset dy="4"/>
<feGaussianBlur stdDeviation="2"/>
<feComposite in2="hardAlpha" operator="out"/>
<feColorMatrix type="matrix" values="0 0 0 0 0 0 0 0 0 0 0 0 0 0 0 0 0 0 0.25 0"/>
<feBlend mode="normal" in2="BackgroundImageFix" result="effect1_dropShadow_177_8191"/>
<feBlend mode="normal" in="SourceGraphic" in2="effect1_dropShadow_177_8191" result="shape"/>
</filter>
<filter id="filter1_d_177_8191" x="166.249" y="238.238" width="211.149" height="130.107" filterUnits="userSpaceOnUse" color-interpolation-filters="sRGB">
<feFlood flood-opacity="0" result="BackgroundImageFix"/>
<feColorMatrix in="SourceAlpha" type="matrix" values="0 0 0 0 0 0 0 0 0 0 0 0 0 0 0 0 0 0 127 0" result="hardAlpha"/>
<feOffset dy="4"/>
<feGaussianBlur stdDeviation="2"/>
<feComposite in2="hardAlpha" operator="out"/>
<feColorMatrix type="matrix" values="0 0 0 0 0 0 0 0 0 0 0 0 0 0 0 0 0 0 0.25 0"/>
<feBlend mode="normal" in2="BackgroundImageFix" result="effect1_dropShadow_177_8191"/>
<feBlend mode="normal" in="SourceGraphic" in2="effect1_dropShadow_177_8191" result="shape"/>
</filter>
<filter id="filter2_d_177_8191" x="11.0293" y="148.744" width="116.801" height="116.574" filterUnits="userSpaceOnUse" color-interpolation-filters="sRGB">
<feFlood flood-opacity="0" result="BackgroundImageFix"/>
<feColorMatrix in="SourceAlpha" type="matrix" values="0 0 0 0 0 0 0 0 0 0 0 0 0 0 0 0 0 0 127 0" result="hardAlpha"/>
<feOffset dy="4"/>
<feGaussianBlur stdDeviation="2"/>
<feComposite in2="hardAlpha" operator="out"/>
<feColorMatrix type="matrix" values="0 0 0 0 0 0 0 0 0 0 0 0 0 0 0 0 0 0 0.25 0"/>
<feBlend mode="normal" in2="BackgroundImageFix" result="effect1_dropShadow_177_8191"/>
<feBlend mode="normal" in="SourceGraphic" in2="effect1_dropShadow_177_8191" result="shape"/>
</filter>
<filter id="filter3_d_177_8191" x="88.8877" y="0.294678" width="303.164" height="221.011" filterUnits="userSpaceOnUse" color-interpolation-filters="sRGB">
<feFlood flood-opacity="0" result="BackgroundImageFix"/>
<feColorMatrix in="SourceAlpha" type="matrix" values="0 0 0 0 0 0 0 0 0 0 0 0 0 0 0 0 0 0 127 0" result="hardAlpha"/>
<feOffset dy="4"/>
<feGaussianBlur stdDeviation="2"/>
<feComposite in2="hardAlpha" operator="out"/>
<feColorMatrix type="matrix" values="0 0 0 0 0 0 0 0 0 0 0 0 0 0 0 0 0 0 0.25 0"/>
<feBlend mode="normal" in2="BackgroundImageFix" result="effect1_dropShadow_177_8191"/>
<feBlend mode="normal" in="SourceGraphic" in2="effect1_dropShadow_177_8191" result="shape"/>
</filter>
<filter id="filter4_d_177_8191" x="294.712" y="140.662" width="218.902" height="165.165" filterUnits="userSpaceOnUse" color-interpolation-filters="sRGB">
<feFlood flood-opacity="0" result="BackgroundImageFix"/>
<feColorMatrix in="SourceAlpha" type="matrix" values="0 0 0 0 0 0 0 0 0 0 0 0 0 0 0 0 0 0 127 0" result="hardAlpha"/>
<feOffset dy="4"/>
<feGaussianBlur stdDeviation="2"/>
<feComposite in2="hardAlpha" operator="out"/>
<feColorMatrix type="matrix" values="0 0 0 0 0 0 0 0 0 0 0 0 0 0 0 0 0 0 0.25 0"/>
<feBlend mode="normal" in2="BackgroundImageFix" result="effect1_dropShadow_177_8191"/>
<feBlend mode="normal" in="SourceGraphic" in2="effect1_dropShadow_177_8191" result="shape"/>
</filter>
<filter id="filter5_d_177_8191" x="403.921" y="91.5495" width="80.6436" height="80.6434" filterUnits="userSpaceOnUse" color-interpolation-filters="sRGB">
<feFlood flood-opacity="0" result="BackgroundImageFix"/>
<feColorMatrix in="SourceAlpha" type="matrix" values="0 0 0 0 0 0 0 0 0 0 0 0 0 0 0 0 0 0 127 0" result="hardAlpha"/>
<feOffset dy="4"/>
<feGaussianBlur stdDeviation="2"/>
<feComposite in2="hardAlpha" operator="out"/>
<feColorMatrix type="matrix" values="0 0 0 0 0 0 0 0 0 0 0 0 0 0 0 0 0 0 0.25 0"/>
<feBlend mode="normal" in2="BackgroundImageFix" result="effect1_dropShadow_177_8191"/>
<feBlend mode="normal" in="SourceGraphic" in2="effect1_dropShadow_177_8191" result="shape"/>
</filter>
<filter id="filter6_d_177_8191" x="541" y="193.576" width="195.87" height="266.108" filterUnits="userSpaceOnUse" color-interpolation-filters="sRGB">
<feFlood flood-opacity="0" result="BackgroundImageFix"/>
<feColorMatrix in="SourceAlpha" type="matrix" values="0 0 0 0 0 0 0 0 0 0 0 0 0 0 0 0 0 0 127 0" result="hardAlpha"/>
<feOffset dy="4"/>
<feGaussianBlur stdDeviation="2"/>
<feComposite in2="hardAlpha" operator="out"/>
<feColorMatrix type="matrix" values="0 0 0 0 0 0 0 0 0 0 0 0 0 0 0 0 0 0 0.25 0"/>
<feBlend mode="normal" in2="BackgroundImageFix" result="effect1_dropShadow_177_8191"/>
<feBlend mode="normal" in="SourceGraphic" in2="effect1_dropShadow_177_8191" result="shape"/>
</filter>
</defs>
</svg>
