<svg width="1703" height="838" viewBox="0 0 1703 838" fill="none" xmlns="http://www.w3.org/2000/svg">
<g opacity="0.05">
<path d="M579.459 -37.8363C572.174 -32.4601 564.555 -27.6263 556.562 -23.4186C518.763 -3.4162 474.799 2.75046 432.921 -5.66569C397.786 -12.749 364.937 -30.6279 339.624 -56.0034C314.311 -81.3425 296.41 -114.179 289.333 -149.346C281.879 -186.308 285.793 -224.685 300.492 -259.356C314.398 -292.149 338.127 -320.32 367.603 -340.197C394.247 -358.115 425.594 -368.659 457.567 -370.866V-271.273C457.484 -271.273 457.649 -271.23 457.567 -271.23C456.443 -271.064 454.651 -270.856 453.57 -270.605C449.158 -269.731 444.828 -268.52 440.623 -266.979C439.417 -266.562 438.207 -266.062 437.001 -265.602H436.958C436.958 -265.602 436.915 -265.602 436.915 -265.559H436.872C436.373 -265.351 435.913 -265.142 435.414 -264.934C433.583 -264.1 431.752 -263.184 430.003 -262.268C425.964 -260.1 422.137 -257.685 418.471 -254.933C418.18 -254.724 417.889 -254.516 417.598 -254.264C417.724 -254.347 417.85 -254.473 417.972 -254.556C417.598 -254.473 416.974 -253.765 416.683 -253.513C415.976 -252.931 415.268 -252.346 414.601 -251.763C412.935 -250.347 411.355 -248.845 409.815 -247.304C408.149 -245.636 406.526 -243.929 404.985 -242.136C404.278 -241.302 403.571 -240.468 402.903 -239.635C402.695 -239.383 402.487 -239.092 402.278 -238.844C402.278 -238.844 402.278 -238.801 402.235 -238.801L402.193 -238.758C402.193 -238.758 402.193 -238.715 402.15 -238.715C399.443 -235.006 396.947 -231.215 394.739 -227.215C393.698 -225.299 392.7 -223.298 391.784 -221.296C391.576 -220.836 391.368 -220.337 391.159 -219.88C391.159 -219.837 391.159 -219.837 391.116 -219.798V-219.755C390.908 -219.255 390.7 -218.712 390.492 -218.213C390.283 -217.713 390.075 -217.171 389.91 -216.671C388.37 -212.463 387.12 -208.129 386.205 -203.752C385.914 -202.462 385.663 -201.168 385.454 -199.835C385.372 -199.292 385.246 -198.71 385.164 -198.167L385.121 -198.124C385.121 -195.831 384.661 -193.542 384.578 -191.206C384.536 -190.455 384.496 -189.747 384.496 -188.996C384.496 -188.622 384.453 -188.245 384.453 -187.871V-185.622C384.496 -182.995 384.618 -180.371 384.869 -177.748C384.952 -176.997 385.035 -176.206 385.121 -175.455C385.121 -175.29 385.164 -175.121 385.203 -174.955C385.203 -175.121 385.16 -175.247 385.121 -175.415C385.121 -175.372 385.078 -175.29 385.078 -175.207V-175.081V-174.621C385.121 -174.247 385.203 -173.87 385.286 -173.453C385.286 -173.41 385.286 -173.41 385.329 -173.371C385.372 -173.288 385.372 -173.162 385.411 -173.08C385.494 -172.788 385.537 -172.537 385.62 -172.289C385.663 -172.163 385.663 -172.08 385.702 -171.998C386.076 -169.956 386.492 -167.915 386.991 -165.914C387.573 -163.538 388.241 -161.245 389.031 -158.913C389.365 -157.871 389.738 -156.829 390.155 -155.787C390.488 -154.953 390.779 -153.328 391.361 -152.703C391.153 -153.203 391.027 -153.494 390.987 -153.62C391.03 -153.537 391.07 -153.368 391.196 -153.16C391.361 -152.826 391.487 -152.491 391.655 -152.161C391.863 -151.661 392.115 -151.161 392.363 -150.662C392.736 -149.828 393.152 -148.994 393.569 -148.204C394.567 -146.245 395.608 -144.33 396.732 -142.454C397.939 -140.412 399.231 -138.454 400.603 -136.495C401.062 -135.827 401.809 -134.246 402.559 -133.868C402.394 -134.077 402.269 -134.242 402.186 -134.368C402.229 -134.325 402.229 -134.285 402.269 -134.242C402.394 -134.116 402.477 -133.951 402.602 -133.825C402.811 -133.534 403.062 -133.243 403.27 -132.992C406.142 -129.491 409.266 -126.156 412.595 -123.073C414.218 -121.614 415.841 -120.198 417.549 -118.822C417.84 -118.613 418.131 -118.362 418.422 -118.153C418.131 -118.362 417.88 -118.57 417.589 -118.779C417.754 -118.445 418.587 -118.028 418.921 -117.819C419.794 -117.151 420.713 -116.529 421.585 -115.943C425.29 -113.442 429.161 -111.153 433.157 -109.194C434.238 -108.652 435.322 -108.152 436.403 -107.696C436.737 -107.57 437.071 -107.404 437.401 -107.279C437.067 -107.404 436.734 -107.57 436.443 -107.696C436.777 -107.404 437.567 -107.236 437.983 -107.07C440.065 -106.237 442.148 -105.529 444.27 -104.86C448.557 -103.527 452.969 -102.485 457.425 -101.777C457.799 -101.734 458.175 -101.651 458.549 -101.611C458.631 -101.611 458.714 -101.568 458.8 -101.568C458.635 -101.611 458.384 -101.611 458.05 -101.651C458.509 -101.443 459.256 -101.486 459.755 -101.443C460.922 -101.317 462.046 -101.234 463.209 -101.109C465.54 -100.943 467.873 -100.857 470.203 -100.857C473.033 -100.857 475.822 -100.983 478.655 -101.231C479.362 -101.274 480.03 -101.357 480.737 -101.439C480.82 -101.439 481.111 -101.482 481.405 -101.522C481.448 -101.522 481.531 -101.522 481.613 -101.565H481.656C482.906 -101.691 484.155 -101.982 485.361 -102.19C490.69 -103.19 495.935 -104.649 501.015 -106.564C501.848 -106.898 502.681 -107.232 503.514 -107.524C503.597 -107.567 503.68 -107.567 503.722 -107.606C503.805 -107.649 503.888 -107.689 503.974 -107.732C505.18 -108.275 506.39 -108.857 507.596 -109.439C509.887 -110.564 512.092 -111.772 514.257 -113.065C516.088 -110.941 517.962 -108.814 519.793 -106.69C521.624 -104.606 523.416 -102.481 525.247 -100.397L525.29 -100.354C528.496 -96.6455 531.702 -92.9368 534.908 -89.271C546.149 -76.3118 557.387 -63.3925 568.589 -50.4341C570.421 -48.3499 572.252 -46.2258 574.086 -44.1018C575.375 -42.6031 576.668 -41.1441 577.957 -39.6421C578.38 -39.0499 578.922 -38.4246 579.461 -37.839L579.459 -37.8363Z" fill="white"/>
</g>
<g opacity="0.05">
<path d="M1050.13 -37.8363C1042.85 -32.4601 1035.23 -27.6263 1027.24 -23.4186C989.437 -3.4162 945.472 2.75046 903.595 -5.66569C868.46 -12.749 835.611 -30.6279 810.297 -56.0034C784.985 -81.3425 767.084 -114.179 760.007 -149.346C752.553 -186.308 756.467 -224.685 771.166 -259.356C785.072 -292.149 808.8 -320.32 838.277 -340.197C864.92 -358.115 896.268 -368.659 928.24 -370.866V-271.273C928.158 -271.273 928.323 -271.23 928.24 -271.23C927.117 -271.064 925.325 -270.856 924.244 -270.605C919.832 -269.731 915.502 -268.52 911.297 -266.979C910.091 -266.562 908.881 -266.062 907.675 -265.602H907.632C907.632 -265.602 907.589 -265.602 907.589 -265.559H907.546C907.047 -265.351 906.587 -265.142 906.088 -264.934C904.257 -264.1 902.426 -263.184 900.677 -262.268C896.638 -260.1 892.81 -257.685 889.145 -254.933C888.854 -254.724 888.563 -254.516 888.272 -254.264C888.398 -254.347 888.523 -254.473 888.646 -254.556C888.272 -254.473 887.648 -253.765 887.357 -253.513C886.649 -252.931 885.942 -252.346 885.274 -251.763C883.608 -250.347 882.029 -248.845 880.488 -247.304C878.822 -245.636 877.2 -243.929 875.659 -242.136C874.952 -241.302 874.245 -240.468 873.577 -239.635C873.369 -239.383 873.161 -239.092 872.952 -238.844C872.952 -238.844 872.952 -238.801 872.909 -238.801L872.866 -238.758C872.866 -238.758 872.866 -238.715 872.823 -238.715C870.116 -235.006 867.621 -231.215 865.413 -227.215C864.372 -225.299 863.373 -223.298 862.458 -221.296C862.25 -220.836 862.041 -220.337 861.833 -219.88C861.833 -219.837 861.833 -219.837 861.79 -219.798V-219.755C861.582 -219.255 861.374 -218.712 861.166 -218.213C860.957 -217.713 860.749 -217.171 860.584 -216.671C859.044 -212.463 857.794 -208.129 856.879 -203.752C856.588 -202.462 856.336 -201.168 856.128 -199.835C856.046 -199.292 855.92 -198.71 855.837 -198.167L855.794 -198.124C855.794 -195.831 855.335 -193.542 855.252 -191.206C855.209 -190.455 855.17 -189.747 855.17 -188.996C855.17 -188.622 855.127 -188.245 855.127 -187.871V-185.622C855.17 -182.995 855.292 -180.371 855.543 -177.748C855.626 -176.997 855.708 -176.206 855.794 -175.455C855.794 -175.29 855.837 -175.121 855.877 -174.955C855.877 -175.121 855.834 -175.247 855.794 -175.415C855.794 -175.372 855.751 -175.29 855.751 -175.207V-175.081V-174.621C855.794 -174.247 855.877 -173.87 855.96 -173.453C855.96 -173.41 855.96 -173.41 856.003 -173.371C856.046 -173.288 856.046 -173.162 856.085 -173.08C856.168 -172.788 856.211 -172.537 856.293 -172.289C856.336 -172.163 856.336 -172.08 856.376 -171.998C856.75 -169.956 857.166 -167.915 857.665 -165.914C858.247 -163.538 858.915 -161.245 859.705 -158.913C860.038 -157.871 860.412 -156.829 860.828 -155.787C861.162 -154.953 861.453 -153.328 862.035 -152.703C861.827 -153.203 861.701 -153.494 861.661 -153.62C861.704 -153.537 861.744 -153.368 861.87 -153.16C862.035 -152.826 862.16 -152.491 862.329 -152.161C862.537 -151.661 862.788 -151.161 863.036 -150.662C863.41 -149.828 863.826 -148.994 864.243 -148.204C865.241 -146.245 866.282 -144.33 867.406 -142.454C868.612 -140.412 869.905 -138.454 871.277 -136.495C871.736 -135.827 872.483 -134.246 873.233 -133.868C873.068 -134.077 872.942 -134.242 872.86 -134.368C872.903 -134.325 872.903 -134.285 872.942 -134.242C873.068 -134.116 873.151 -133.951 873.276 -133.825C873.484 -133.534 873.736 -133.243 873.944 -132.992C876.816 -129.491 879.94 -126.156 883.269 -123.073C884.892 -121.614 886.514 -120.198 888.223 -118.822C888.514 -118.613 888.805 -118.362 889.096 -118.153C888.805 -118.362 888.554 -118.57 888.263 -118.779C888.428 -118.445 889.261 -118.028 889.595 -117.819C890.468 -117.151 891.386 -116.529 892.259 -115.943C895.964 -113.442 899.835 -111.153 903.831 -109.194C904.912 -108.652 905.996 -108.152 907.077 -107.696C907.411 -107.57 907.745 -107.404 908.075 -107.279C907.741 -107.404 907.407 -107.57 907.117 -107.696C907.45 -107.404 908.24 -107.236 908.657 -107.07C910.739 -106.237 912.822 -105.529 914.944 -104.86C919.231 -103.527 923.643 -102.485 928.099 -101.777C928.472 -101.734 928.849 -101.651 929.223 -101.611C929.305 -101.611 929.388 -101.568 929.474 -101.568C929.309 -101.611 929.057 -101.611 928.724 -101.651C929.183 -101.443 929.93 -101.486 930.429 -101.443C931.596 -101.317 932.72 -101.234 933.883 -101.109C936.213 -100.943 938.547 -100.857 940.877 -100.857C943.707 -100.857 946.496 -100.983 949.329 -101.231C950.036 -101.274 950.704 -101.357 951.411 -101.439C951.494 -101.439 951.785 -101.482 952.079 -101.522C952.122 -101.522 952.204 -101.522 952.287 -101.565H952.33C953.579 -101.691 954.829 -101.982 956.035 -102.19C961.363 -103.19 966.609 -104.649 971.689 -106.564C972.522 -106.898 973.355 -107.232 974.188 -107.524C974.271 -107.567 974.353 -107.567 974.396 -107.606C974.479 -107.649 974.562 -107.689 974.648 -107.732C975.854 -108.275 977.064 -108.857 978.27 -109.439C980.561 -110.564 982.765 -111.772 984.93 -113.065C986.762 -110.941 988.636 -108.814 990.467 -106.69C992.298 -104.606 994.089 -102.481 995.921 -100.397L995.963 -100.354C999.17 -96.6455 1002.38 -92.9368 1005.58 -89.271C1016.82 -76.3118 1028.06 -63.3925 1039.26 -50.4341C1041.09 -48.3499 1042.93 -46.2258 1044.76 -44.1018C1046.05 -42.6031 1047.34 -41.1441 1048.63 -39.6421C1049.05 -39.0499 1049.6 -38.4246 1050.13 -37.839L1050.13 -37.8363Z" fill="white"/>
</g>
<g opacity="0.05">
<path d="M1991.48 -37.8363C1984.19 -32.4601 1976.57 -27.6263 1968.58 -23.4186C1930.78 -3.4162 1886.82 2.75046 1844.94 -5.66569C1809.81 -12.749 1776.96 -30.6279 1751.64 -56.0034C1726.33 -81.3425 1708.43 -114.179 1701.35 -149.346C1693.9 -186.308 1697.81 -224.685 1712.51 -259.356C1726.42 -292.149 1750.15 -320.32 1779.62 -340.197C1806.27 -358.115 1837.61 -368.659 1869.59 -370.866V-271.273C1869.5 -271.273 1869.67 -271.23 1869.59 -271.23C1868.46 -271.064 1866.67 -270.856 1865.59 -270.605C1861.18 -269.731 1856.85 -268.52 1852.64 -266.979C1851.44 -266.562 1850.23 -266.062 1849.02 -265.602H1848.98C1848.98 -265.602 1848.93 -265.602 1848.93 -265.559H1848.89C1848.39 -265.351 1847.93 -265.142 1847.43 -264.934C1845.6 -264.1 1843.77 -263.184 1842.02 -262.268C1837.98 -260.1 1834.16 -257.685 1830.49 -254.933C1830.2 -254.724 1829.91 -254.516 1829.62 -254.264C1829.74 -254.347 1829.87 -254.473 1829.99 -254.556C1829.62 -254.473 1828.99 -253.765 1828.7 -253.513C1828 -252.931 1827.29 -252.346 1826.62 -251.763C1824.95 -250.347 1823.37 -248.845 1821.83 -247.304C1820.17 -245.636 1818.55 -243.929 1817.01 -242.136C1816.3 -241.302 1815.59 -240.468 1814.92 -239.635C1814.71 -239.383 1814.51 -239.092 1814.3 -238.844C1814.3 -238.844 1814.3 -238.801 1814.26 -238.801L1814.21 -238.758C1814.21 -238.758 1814.21 -238.715 1814.17 -238.715C1811.46 -235.006 1808.97 -231.215 1806.76 -227.215C1805.72 -225.299 1804.72 -223.298 1803.8 -221.296C1803.6 -220.836 1803.39 -220.337 1803.18 -219.88C1803.18 -219.837 1803.18 -219.837 1803.14 -219.798V-219.755C1802.93 -219.255 1802.72 -218.712 1802.51 -218.213C1802.3 -217.713 1802.09 -217.171 1801.93 -216.671C1800.39 -212.463 1799.14 -208.129 1798.22 -203.752C1797.93 -202.462 1797.68 -201.168 1797.47 -199.835C1797.39 -199.292 1797.27 -198.71 1797.18 -198.167L1797.14 -198.124C1797.14 -195.831 1796.68 -193.542 1796.6 -191.206C1796.56 -190.455 1796.52 -189.747 1796.52 -188.996C1796.52 -188.622 1796.47 -188.245 1796.47 -187.871V-185.622C1796.52 -182.995 1796.64 -180.371 1796.89 -177.748C1796.97 -176.997 1797.05 -176.206 1797.14 -175.455C1797.14 -175.29 1797.18 -175.121 1797.22 -174.955C1797.22 -175.121 1797.18 -175.247 1797.14 -175.415C1797.14 -175.372 1797.1 -175.29 1797.1 -175.207V-175.081V-174.621C1797.14 -174.247 1797.22 -173.87 1797.31 -173.453C1797.31 -173.41 1797.31 -173.41 1797.35 -173.371C1797.39 -173.288 1797.39 -173.162 1797.43 -173.08C1797.51 -172.788 1797.56 -172.537 1797.64 -172.289C1797.68 -172.163 1797.68 -172.08 1797.72 -171.998C1798.1 -169.956 1798.51 -167.915 1799.01 -165.914C1799.59 -163.538 1800.26 -161.245 1801.05 -158.913C1801.38 -157.871 1801.76 -156.829 1802.17 -155.787C1802.51 -154.953 1802.8 -153.328 1803.38 -152.703C1803.17 -153.203 1803.05 -153.494 1803.01 -153.62C1803.05 -153.537 1803.09 -153.368 1803.22 -153.16C1803.38 -152.826 1803.51 -152.491 1803.67 -152.161C1803.88 -151.661 1804.13 -151.161 1804.38 -150.662C1804.76 -149.828 1805.17 -148.994 1805.59 -148.204C1806.59 -146.245 1807.63 -144.33 1808.75 -142.454C1809.96 -140.412 1811.25 -138.454 1812.62 -136.495C1813.08 -135.827 1813.83 -134.246 1814.58 -133.868C1814.41 -134.077 1814.29 -134.242 1814.21 -134.368C1814.25 -134.325 1814.25 -134.285 1814.29 -134.242C1814.41 -134.116 1814.5 -133.951 1814.62 -133.825C1814.83 -133.534 1815.08 -133.243 1815.29 -132.992C1818.16 -129.491 1821.29 -126.156 1824.61 -123.073C1826.24 -121.614 1827.86 -120.198 1829.57 -118.822C1829.86 -118.613 1830.15 -118.362 1830.44 -118.153C1830.15 -118.362 1829.9 -118.57 1829.61 -118.779C1829.77 -118.445 1830.61 -118.028 1830.94 -117.819C1831.81 -117.151 1832.73 -116.529 1833.6 -115.943C1837.31 -113.442 1841.18 -111.153 1845.18 -109.194C1846.26 -108.652 1847.34 -108.152 1848.42 -107.696C1848.76 -107.57 1849.09 -107.404 1849.42 -107.279C1849.09 -107.404 1848.75 -107.57 1848.46 -107.696C1848.8 -107.404 1849.59 -107.236 1850 -107.07C1852.08 -106.237 1854.17 -105.529 1856.29 -104.86C1860.58 -103.527 1864.99 -102.485 1869.44 -101.777C1869.82 -101.734 1870.19 -101.651 1870.57 -101.611C1870.65 -101.611 1870.73 -101.568 1870.82 -101.568C1870.65 -101.611 1870.4 -101.611 1870.07 -101.651C1870.53 -101.443 1871.28 -101.486 1871.77 -101.443C1872.94 -101.317 1874.07 -101.234 1875.23 -101.109C1877.56 -100.943 1879.89 -100.857 1882.22 -100.857C1885.05 -100.857 1887.84 -100.983 1890.67 -101.231C1891.38 -101.274 1892.05 -101.357 1892.76 -101.439C1892.84 -101.439 1893.13 -101.482 1893.42 -101.522C1893.47 -101.522 1893.55 -101.522 1893.63 -101.565H1893.68C1894.93 -101.691 1896.17 -101.982 1897.38 -102.19C1902.71 -103.19 1907.95 -104.649 1913.03 -106.564C1913.87 -106.898 1914.7 -107.232 1915.53 -107.524C1915.62 -107.567 1915.7 -107.567 1915.74 -107.606C1915.82 -107.649 1915.91 -107.689 1915.99 -107.732C1917.2 -108.275 1918.41 -108.857 1919.62 -109.439C1921.91 -110.564 1924.11 -111.772 1926.28 -113.065C1928.11 -110.941 1929.98 -108.814 1931.81 -106.69C1933.64 -104.606 1935.44 -102.481 1937.27 -100.397L1937.31 -100.354C1940.52 -96.6455 1943.72 -92.9368 1946.93 -89.271C1958.17 -76.3118 1969.41 -63.3925 1980.61 -50.4341C1982.44 -48.3499 1984.27 -46.2258 1986.11 -44.1018C1987.39 -42.6031 1988.69 -41.1441 1989.98 -39.6421C1990.4 -39.0499 1990.94 -38.4246 1991.48 -37.839L1991.48 -37.8363Z" fill="white"/>
</g>
<g opacity="0.05">
<path d="M294.148 381.957C286.863 387.333 279.245 392.167 271.252 396.374C233.452 416.377 189.488 422.544 147.611 414.127C112.476 407.044 79.6267 389.165 54.313 363.79C29.0009 338.451 11.0995 305.614 4.02221 270.447C-3.43129 233.485 0.48221 195.108 15.1814 160.437C29.0872 127.644 52.8161 99.4733 82.2922 79.5962C108.936 61.6781 140.284 51.1344 172.256 48.9272V148.52C172.173 148.52 172.339 148.563 172.256 148.563C171.132 148.729 169.341 148.937 168.26 149.188C163.847 150.062 159.517 151.273 155.313 152.814C154.106 153.231 152.897 153.731 151.69 154.191H151.647C151.647 154.191 151.604 154.191 151.604 154.234H151.561C151.062 154.442 150.603 154.651 150.104 154.859C148.272 155.693 146.441 156.609 144.693 157.526C140.654 159.693 136.826 162.108 133.16 164.86C132.87 165.069 132.579 165.277 132.288 165.529C132.413 165.446 132.539 165.32 132.661 165.238C132.288 165.32 131.663 166.028 131.372 166.28C130.665 166.862 129.958 167.448 129.29 168.03C127.624 169.446 126.044 170.948 124.504 172.49C122.838 174.157 121.215 175.864 119.675 177.657C118.968 178.491 118.26 179.325 117.593 180.158C117.384 180.41 117.176 180.701 116.968 180.949C116.968 180.949 116.968 180.992 116.925 180.992L116.882 181.035C116.882 181.035 116.882 181.078 116.839 181.078C114.132 184.787 111.636 188.578 109.428 192.578C108.387 194.494 107.389 196.495 106.474 198.497C106.265 198.957 106.057 199.456 105.849 199.913C105.849 199.956 105.849 199.956 105.806 199.996V200.039C105.598 200.538 105.389 201.081 105.181 201.58C104.973 202.08 104.765 202.622 104.599 203.122C103.059 207.33 101.81 211.664 100.894 216.041C100.603 217.332 100.352 218.625 100.144 219.958C100.061 220.501 99.9356 221.083 99.853 221.626L99.81 221.669C99.81 223.962 99.3506 226.251 99.2679 228.587C99.225 229.338 99.1853 230.046 99.1853 230.797C99.1853 231.171 99.1423 231.548 99.1423 231.922V234.171C99.1853 236.798 99.3076 239.422 99.5588 242.045C99.6414 242.796 99.7241 243.587 99.81 244.338C99.81 244.504 99.853 244.672 99.8927 244.838C99.8927 244.672 99.8497 244.547 99.81 244.378C99.81 244.421 99.7671 244.504 99.7671 244.586V244.712V245.172C99.81 245.546 99.8927 245.923 99.9753 246.34C99.9753 246.383 99.9753 246.383 100.018 246.422C100.061 246.505 100.061 246.631 100.101 246.714C100.184 247.005 100.226 247.256 100.309 247.504C100.352 247.63 100.352 247.713 100.392 247.795C100.765 249.837 101.182 251.878 101.681 253.88C102.263 256.255 102.93 258.548 103.72 260.88C104.054 261.922 104.428 262.964 104.844 264.007C105.178 264.84 105.469 266.465 106.05 267.09C105.842 266.59 105.717 266.299 105.677 266.174C105.72 266.256 105.76 266.425 105.885 266.633C106.05 266.968 106.176 267.302 106.345 267.633C106.553 268.132 106.804 268.632 107.052 269.131C107.425 269.965 107.842 270.799 108.258 271.589C109.257 273.548 110.298 275.463 111.422 277.339C112.628 279.381 113.92 281.339 115.292 283.298C115.752 283.966 116.499 285.548 117.249 285.925C117.084 285.716 116.958 285.551 116.875 285.425C116.918 285.468 116.918 285.508 116.958 285.551C117.084 285.677 117.166 285.842 117.292 285.968C117.5 286.259 117.751 286.55 117.96 286.801C120.832 290.302 123.955 293.637 127.284 296.72C128.907 298.179 130.53 299.595 132.239 300.971C132.53 301.18 132.821 301.431 133.111 301.64C132.821 301.431 132.569 301.223 132.279 301.014C132.444 301.349 133.277 301.765 133.611 301.974C134.483 302.642 135.402 303.264 136.275 303.85C139.98 306.351 143.85 308.64 147.847 310.599C148.928 311.141 150.012 311.641 151.093 312.098C151.426 312.223 151.76 312.389 152.091 312.514C151.757 312.389 151.423 312.223 151.132 312.098C151.466 312.389 152.256 312.557 152.672 312.723C154.755 313.557 156.837 314.265 158.959 314.933C163.246 316.266 167.659 317.308 172.114 318.016C172.488 318.059 172.865 318.142 173.238 318.182C173.321 318.182 173.404 318.225 173.489 318.225C173.324 318.182 173.073 318.182 172.739 318.142C173.199 318.35 173.946 318.307 174.445 318.35C175.611 318.476 176.735 318.559 177.899 318.685C180.229 318.85 182.563 318.936 184.893 318.936C187.722 318.936 190.512 318.81 193.344 318.562C194.052 318.519 194.719 318.436 195.427 318.354C195.509 318.354 195.8 318.311 196.094 318.271C196.137 318.271 196.22 318.271 196.303 318.228H196.346C197.595 318.102 198.844 317.811 200.051 317.603C205.379 316.604 210.625 315.145 215.705 313.229C216.538 312.895 217.371 312.561 218.204 312.27C218.286 312.227 218.369 312.227 218.412 312.187C218.495 312.144 218.577 312.104 218.663 312.061C219.87 311.519 221.079 310.936 222.286 310.354C224.576 309.229 226.781 308.022 228.946 306.728C230.777 308.852 232.651 310.979 234.482 313.103C236.314 315.188 238.105 317.312 239.936 319.396L239.979 319.439C243.185 323.148 246.391 326.856 249.597 330.522C260.839 343.481 272.077 356.401 283.279 369.359C285.11 371.443 286.941 373.567 288.776 375.691C290.065 377.19 291.357 378.649 292.646 380.151C293.069 380.743 293.611 381.369 294.15 381.954L294.148 381.957Z" fill="white"/>
<path d="M353.971 306.857C344.478 328.94 330.451 349.069 313.131 365.819C311.299 363.734 309.508 361.61 307.677 359.526C305.846 357.402 304.014 355.318 302.18 353.194C299.099 349.611 296.019 346.068 292.895 342.484C281.614 329.482 270.33 316.484 259.049 303.481C257.217 301.357 255.386 299.273 253.552 297.149C252.302 295.733 251.096 294.317 249.847 292.898C249.265 292.19 248.64 291.521 248.055 290.813C249.136 289.645 250.177 288.481 251.179 287.27C251.678 286.688 252.22 286.062 252.676 285.437C252.676 285.394 252.719 285.394 252.719 285.354C252.802 285.189 252.927 285.063 252.97 285.02C253.72 284.021 254.467 282.979 255.178 281.937C256.593 279.853 257.925 277.729 259.174 275.519C260.424 273.309 261.59 271.059 262.671 268.769C262.922 268.187 263.213 267.602 263.461 267.019C263.504 266.937 263.587 266.768 263.669 266.559C263.669 266.602 263.626 266.642 263.626 266.685C264.208 265.56 264.585 264.267 265.001 263.102C266.75 258.226 268.125 253.227 269.08 248.142C269.246 247.268 269.371 246.434 269.497 245.558C269.497 245.432 269.579 245.141 269.622 244.85C269.622 244.807 269.665 244.724 269.665 244.684C269.831 243.559 269.917 242.352 269.999 241.227C270.207 238.561 270.333 235.894 270.333 233.184C270.333 230.852 270.25 228.516 270.082 226.184C269.999 225.016 269.874 223.891 269.748 222.727C269.705 222.267 269.748 221.476 269.54 221.019C269.622 221.519 269.665 221.81 269.665 221.979C269.665 221.896 269.622 221.727 269.622 221.519C269.579 221.311 269.579 221.145 269.54 220.976C268.872 216.517 267.834 212.1 266.542 207.809C265.834 205.516 265.044 203.227 264.169 200.974C264.003 200.557 263.835 199.723 263.544 199.432C263.669 199.683 263.752 199.892 263.795 200.014C263.752 199.971 263.752 199.932 263.712 199.889C263.63 199.723 263.547 199.554 263.504 199.389C263.045 198.39 262.589 197.387 262.129 196.388C260.215 192.428 258.007 188.637 255.594 184.971C254.887 183.929 254.137 182.887 253.387 181.845C253.178 181.511 252.762 180.72 252.428 180.512C252.593 180.72 252.719 180.885 252.801 181.011C252.759 180.968 252.759 180.928 252.719 180.885C252.593 180.76 252.511 180.594 252.385 180.469C251.136 178.884 249.847 177.385 248.515 175.886C245.477 172.512 242.188 169.385 238.691 166.467C238.149 166.008 237.568 165.551 236.986 165.091C235.819 164.132 237.32 165.3 237.359 165.382C237.026 164.714 235.36 163.884 234.735 163.467C232.943 162.216 231.112 161.009 229.238 159.884C227.199 158.633 225.116 157.508 222.994 156.427C222.079 155.967 221.203 155.553 220.287 155.093C219.497 154.719 218.374 153.968 217.541 153.843C217.832 153.968 218.083 154.051 218.208 154.134C218.126 154.091 218.083 154.091 218 154.051C217.666 153.925 217.332 153.76 216.959 153.634C216.46 153.426 215.918 153.217 215.419 153.052C214.377 152.678 213.336 152.301 212.295 151.927C210.173 151.219 208.008 150.594 205.843 150.051C203.635 149.509 201.431 149.009 199.223 148.635C198.681 148.553 197.848 148.261 197.058 148.136C197.101 146.051 197.058 51.5071 197.058 48.873C202.303 49.2469 207.8 49.7894 213.003 50.5405C248.64 55.834 282.275 72.2106 308.966 96.4182C335.445 120.421 354.718 152.38 363.543 187.008C373.707 226.927 370.127 269.182 353.974 306.852L353.971 306.857Z" fill="white"/>
</g>
<g opacity="0.05">
<path d="M764.821 381.957C757.536 387.333 749.918 392.167 741.925 396.374C704.125 416.377 660.161 422.544 618.284 414.127C583.148 407.044 550.3 389.165 524.986 363.79C499.674 338.451 481.772 305.614 474.695 270.447C467.242 233.485 471.155 195.108 485.854 160.437C499.76 127.644 523.489 99.4733 552.965 79.5962C579.609 61.6781 610.957 51.1344 642.929 48.9272V148.52C642.846 148.52 643.012 148.563 642.929 148.563C641.805 148.729 640.014 148.937 638.933 149.188C634.52 150.062 630.19 151.273 625.986 152.814C624.779 153.231 623.569 153.731 622.363 154.191H622.32C622.32 154.191 622.277 154.191 622.277 154.234H622.234C621.735 154.442 621.276 154.651 620.776 154.859C618.945 155.693 617.114 156.609 615.366 157.526C611.327 159.693 607.499 162.108 603.833 164.86C603.542 165.069 603.252 165.277 602.961 165.529C603.086 165.446 603.212 165.32 603.334 165.238C602.961 165.32 602.336 166.028 602.045 166.28C601.338 166.862 600.631 167.448 599.963 168.03C598.297 169.446 596.717 170.948 595.177 172.49C593.511 174.157 591.888 175.864 590.348 177.657C589.64 178.491 588.933 179.325 588.265 180.158C588.057 180.41 587.849 180.701 587.641 180.949C587.641 180.949 587.641 180.992 587.598 180.992L587.555 181.035C587.555 181.035 587.555 181.078 587.512 181.078C584.805 184.787 582.309 188.578 580.101 192.578C579.06 194.494 578.062 196.495 577.146 198.497C576.938 198.957 576.73 199.456 576.522 199.913C576.522 199.956 576.522 199.956 576.479 199.996V200.039C576.27 200.538 576.062 201.081 575.854 201.58C575.646 202.08 575.438 202.622 575.272 203.122C573.732 207.33 572.483 211.664 571.567 216.041C571.276 217.332 571.025 218.625 570.817 219.958C570.734 220.501 570.608 221.083 570.526 221.626L570.483 221.669C570.483 223.962 570.023 226.251 569.941 228.587C569.898 229.338 569.858 230.046 569.858 230.797C569.858 231.171 569.815 231.548 569.815 231.922V234.171C569.858 236.798 569.98 239.422 570.232 242.045C570.314 242.796 570.397 243.587 570.483 244.338C570.483 244.504 570.526 244.672 570.566 244.838C570.566 244.672 570.523 244.547 570.483 244.378C570.483 244.421 570.44 244.504 570.44 244.586V244.712V245.172C570.483 245.546 570.566 245.923 570.648 246.34C570.648 246.383 570.648 246.383 570.691 246.422C570.734 246.505 570.734 246.631 570.774 246.714C570.856 247.005 570.899 247.256 570.982 247.504C571.025 247.63 571.025 247.713 571.065 247.795C571.438 249.837 571.855 251.878 572.354 253.88C572.935 256.255 573.603 258.548 574.393 260.88C574.727 261.922 575.1 262.964 575.517 264.007C575.851 264.84 576.142 266.465 576.723 267.09C576.515 266.59 576.389 266.299 576.35 266.174C576.393 266.256 576.432 266.425 576.558 266.633C576.723 266.968 576.849 267.302 577.017 267.633C577.226 268.132 577.477 268.632 577.725 269.131C578.098 269.965 578.515 270.799 578.931 271.589C579.93 273.548 580.971 275.463 582.094 277.339C583.301 279.381 584.593 281.339 585.965 283.298C586.424 283.966 587.171 285.548 587.922 285.925C587.756 285.716 587.631 285.551 587.548 285.425C587.591 285.468 587.591 285.508 587.631 285.551C587.756 285.677 587.839 285.842 587.965 285.968C588.173 286.259 588.424 286.55 588.632 286.801C591.505 290.302 594.628 293.637 597.957 296.72C599.58 298.179 601.203 299.595 602.912 300.971C603.203 301.18 603.494 301.431 603.784 301.64C603.493 301.431 603.242 301.223 602.951 301.014C603.117 301.349 603.95 301.765 604.283 301.974C605.156 302.642 606.075 303.264 606.947 303.85C610.653 306.351 614.523 308.64 618.52 310.599C619.6 311.141 620.685 311.641 621.765 312.098C622.099 312.223 622.433 312.389 622.764 312.514C622.43 312.389 622.096 312.223 621.805 312.098C622.139 312.389 622.929 312.557 623.345 312.723C625.428 313.557 627.51 314.265 629.632 314.933C633.919 316.266 638.331 317.308 642.787 318.016C643.161 318.059 643.538 318.142 643.911 318.182C643.994 318.182 644.076 318.225 644.162 318.225C643.997 318.182 643.746 318.182 643.412 318.142C643.871 318.35 644.618 318.307 645.118 318.35C646.284 318.476 647.408 318.559 648.572 318.685C650.902 318.85 653.235 318.936 655.566 318.936C658.395 318.936 661.185 318.81 664.017 318.562C664.725 318.519 665.392 318.436 666.1 318.354C666.182 318.354 666.473 318.311 666.767 318.271C666.81 318.271 666.893 318.271 666.976 318.228H667.018C668.268 318.102 669.517 317.811 670.724 317.603C676.052 316.604 681.297 315.145 686.378 313.229C687.211 312.895 688.044 312.561 688.877 312.27C688.959 312.227 689.042 312.227 689.085 312.187C689.167 312.144 689.25 312.104 689.336 312.061C690.542 311.519 691.752 310.936 692.959 310.354C695.249 309.229 697.454 308.022 699.619 306.728C701.45 308.852 703.324 310.979 705.155 313.103C706.986 315.188 708.778 317.312 710.609 319.396L710.652 319.439C713.858 323.148 717.064 326.856 720.27 330.522C731.512 343.481 742.749 356.401 753.952 369.359C755.783 371.443 757.614 373.567 759.449 375.691C760.738 377.19 762.03 378.649 763.319 380.151C763.742 380.743 764.284 381.369 764.823 381.954L764.821 381.957Z" fill="white"/>
<path d="M824.644 306.857C815.151 328.94 801.123 349.069 783.803 365.819C781.972 363.734 780.181 361.61 778.35 359.526C776.518 357.402 774.687 355.318 772.853 353.194C769.772 349.611 766.692 346.068 763.568 342.484C752.287 329.482 741.002 316.484 729.721 303.481C727.89 301.357 726.059 299.273 724.225 297.149C722.975 295.733 721.769 294.317 720.519 292.898C719.938 292.19 719.313 291.521 718.728 290.813C719.809 289.645 720.85 288.481 721.851 287.27C722.351 286.688 722.893 286.062 723.349 285.437C723.349 285.394 723.392 285.394 723.392 285.354C723.474 285.189 723.6 285.063 723.643 285.02C724.393 284.021 725.14 282.979 725.851 281.937C727.266 279.853 728.598 277.729 729.847 275.519C731.097 273.309 732.263 271.059 733.344 268.769C733.595 268.187 733.886 267.602 734.134 267.019C734.177 266.937 734.26 266.768 734.342 266.559C734.342 266.602 734.299 266.642 734.299 266.685C734.881 265.56 735.258 264.267 735.674 263.102C737.423 258.226 738.798 253.227 739.753 248.142C739.918 247.268 740.044 246.434 740.17 245.558C740.17 245.432 740.252 245.141 740.295 244.85C740.295 244.807 740.338 244.724 740.338 244.684C740.503 243.559 740.589 242.352 740.672 241.227C740.88 238.561 741.006 235.894 741.006 233.184C741.006 230.852 740.923 228.516 740.755 226.184C740.672 225.016 740.546 223.891 740.421 222.727C740.378 222.267 740.421 221.476 740.213 221.019C740.295 221.519 740.338 221.81 740.338 221.979C740.338 221.896 740.295 221.727 740.295 221.519C740.252 221.311 740.252 221.145 740.213 220.976C739.545 216.517 738.507 212.1 737.215 207.809C736.507 205.516 735.717 203.227 734.841 200.974C734.676 200.557 734.508 199.723 734.217 199.432C734.342 199.683 734.425 199.892 734.468 200.014C734.425 199.971 734.425 199.932 734.385 199.889C734.303 199.723 734.22 199.554 734.177 199.389C733.718 198.39 733.261 197.387 732.802 196.388C730.888 192.428 728.68 188.637 726.267 184.971C725.56 183.929 724.81 182.887 724.059 181.845C723.851 181.511 723.435 180.72 723.101 180.512C723.266 180.72 723.392 180.885 723.474 181.011C723.431 180.968 723.431 180.928 723.392 180.885C723.266 180.76 723.183 180.594 723.058 180.469C721.808 178.884 720.519 177.385 719.187 175.886C716.15 172.512 712.861 169.385 709.364 166.467C708.822 166.008 708.24 165.551 707.659 165.091C706.492 164.132 707.993 165.3 708.032 165.382C707.698 164.714 706.033 163.884 705.408 163.467C703.616 162.216 701.785 161.009 699.911 159.884C697.872 158.633 695.789 157.508 693.667 156.427C692.752 155.967 691.876 155.553 690.96 155.093C690.17 154.719 689.046 153.968 688.214 153.843C688.504 153.968 688.756 154.051 688.881 154.134C688.799 154.091 688.756 154.091 688.673 154.051C688.339 153.925 688.005 153.76 687.632 153.634C687.133 153.426 686.591 153.217 686.092 153.052C685.05 152.678 684.009 152.301 682.968 151.927C680.846 151.219 678.681 150.594 676.516 150.051C674.308 149.509 672.103 149.009 669.895 148.635C669.353 148.553 668.52 148.261 667.73 148.136C667.773 146.051 667.73 51.5071 667.73 48.873C672.976 49.2469 678.473 49.7894 683.676 50.5405C719.313 55.834 752.948 72.2106 779.639 96.4182C806.118 120.421 825.391 152.38 834.216 187.008C844.38 226.927 840.8 269.182 824.647 306.852L824.644 306.857Z" fill="white"/>
</g>
<g opacity="0.1">
<path d="M579.459 801.747C572.174 807.123 564.555 811.957 556.562 816.164C518.763 836.167 474.799 842.333 432.921 833.917C397.786 826.834 364.937 808.955 339.624 783.579C314.311 758.24 296.41 725.404 289.333 690.237C281.879 653.275 285.793 614.898 300.492 580.227C314.398 547.433 338.127 519.263 367.603 499.386C394.247 481.468 425.594 470.924 457.567 468.717V568.31C457.484 568.31 457.649 568.353 457.567 568.353C456.443 568.518 454.651 568.727 453.57 568.978C449.158 569.852 444.828 571.063 440.623 572.604C439.417 573.021 438.207 573.521 437.001 573.981H436.958C436.958 573.981 436.915 573.98 436.915 574.024H436.872C436.373 574.232 435.913 574.44 435.414 574.649C433.583 575.483 431.752 576.399 430.003 577.315C425.964 579.482 422.137 581.898 418.471 584.65C418.18 584.859 417.889 585.067 417.598 585.318C417.724 585.236 417.85 585.11 417.972 585.027C417.598 585.11 416.974 585.818 416.683 586.069C415.976 586.652 415.268 587.237 414.601 587.82C412.935 589.236 411.355 590.738 409.815 592.279C408.149 593.947 406.526 595.654 404.985 597.447C404.278 598.281 403.571 599.114 402.903 599.948C402.695 600.2 402.487 600.491 402.278 600.739C402.278 600.739 402.278 600.782 402.235 600.782L402.193 600.825C402.193 600.825 402.193 600.868 402.15 600.868C399.443 604.577 396.947 608.368 394.739 612.368C393.698 614.283 392.7 616.285 391.784 618.287C391.576 618.746 391.368 619.246 391.159 619.703C391.159 619.746 391.159 619.746 391.116 619.785V619.828C390.908 620.328 390.7 620.87 390.492 621.37C390.283 621.87 390.075 622.412 389.91 622.912C388.37 627.12 387.12 631.454 386.205 635.831C385.914 637.121 385.663 638.415 385.454 639.748C385.372 640.291 385.246 640.873 385.164 641.416L385.121 641.459C385.121 643.751 384.661 646.041 384.578 648.377C384.536 649.128 384.496 649.836 384.496 650.587C384.496 650.96 384.453 651.338 384.453 651.711V653.961C384.496 656.588 384.618 659.212 384.869 661.835C384.952 662.586 385.035 663.377 385.121 664.128C385.121 664.293 385.164 664.462 385.203 664.627C385.203 664.462 385.16 664.336 385.121 664.168C385.121 664.211 385.078 664.293 385.078 664.376V664.502V664.962C385.121 665.335 385.203 665.713 385.286 666.129C385.286 666.172 385.286 666.172 385.329 666.212C385.372 666.295 385.372 666.421 385.411 666.503C385.494 666.794 385.537 667.046 385.62 667.294C385.663 667.42 385.663 667.502 385.702 667.585C386.076 669.626 386.492 671.668 386.991 673.669C387.573 676.045 388.241 678.337 389.031 680.67C389.365 681.712 389.738 682.754 390.155 683.796C390.488 684.63 390.779 686.254 391.361 686.88C391.153 686.38 391.027 686.089 390.987 685.963C391.03 686.046 391.07 686.215 391.196 686.423C391.361 686.757 391.487 687.091 391.655 687.422C391.863 687.922 392.115 688.421 392.363 688.921C392.736 689.755 393.152 690.588 393.569 691.379C394.567 693.338 395.608 695.253 396.732 697.129C397.939 699.17 399.231 701.129 400.603 703.088C401.062 703.756 401.809 705.337 402.559 705.714C402.394 705.506 402.269 705.341 402.186 705.215C402.229 705.258 402.229 705.298 402.269 705.341C402.394 705.466 402.477 705.632 402.602 705.758C402.811 706.049 403.062 706.34 403.27 706.591C406.142 710.091 409.266 713.426 412.595 716.51C414.218 717.969 415.841 719.385 417.549 720.761C417.84 720.97 418.131 721.221 418.422 721.429C418.131 721.221 417.88 721.013 417.589 720.804C417.754 721.138 418.587 721.555 418.921 721.764C419.794 722.432 420.713 723.054 421.585 723.639C425.29 726.141 429.161 728.43 433.157 730.389C434.238 730.931 435.322 731.431 436.403 731.887C436.737 732.013 437.071 732.178 437.401 732.304C437.067 732.178 436.734 732.013 436.443 731.887C436.777 732.178 437.567 732.347 437.983 732.513C440.065 733.346 442.148 734.054 444.27 734.723C448.557 736.056 452.969 737.098 457.425 737.806C457.799 737.849 458.175 737.932 458.549 737.971C458.631 737.971 458.714 738.014 458.8 738.014C458.635 737.971 458.384 737.971 458.05 737.932C458.509 738.14 459.256 738.097 459.755 738.14C460.922 738.266 462.046 738.349 463.209 738.474C465.54 738.64 467.873 738.726 470.203 738.726C473.033 738.726 475.822 738.6 478.655 738.352C479.362 738.309 480.03 738.226 480.737 738.143C480.82 738.143 481.111 738.1 481.405 738.061C481.448 738.061 481.531 738.061 481.613 738.018H481.656C482.906 737.892 484.155 737.601 485.361 737.392C490.69 736.393 495.935 734.934 501.015 733.019C501.848 732.685 502.681 732.35 503.514 732.059C503.597 732.016 503.68 732.016 503.722 731.977C503.805 731.934 503.888 731.894 503.974 731.851C505.18 731.308 506.39 730.726 507.596 730.144C509.887 729.019 512.092 727.811 514.257 726.518C516.088 728.642 517.962 730.769 519.793 732.893C521.624 734.977 523.416 737.101 525.247 739.186L525.29 739.229C528.496 742.937 531.702 746.646 534.908 750.312C546.149 763.271 557.387 776.19 568.589 789.149C570.421 791.233 572.252 793.357 574.086 795.481C575.375 796.98 576.668 798.439 577.957 799.941C578.38 800.533 578.922 801.158 579.461 801.744L579.459 801.747Z" fill="white"/>
<path d="M639.282 726.646C629.789 748.73 615.761 768.858 598.441 785.608C596.61 783.524 594.818 781.4 592.987 779.316C591.156 777.192 589.325 775.107 587.491 772.983C584.41 769.4 581.329 765.857 578.206 762.274C566.925 749.271 555.64 736.273 544.359 723.271C542.528 721.147 540.697 719.063 538.862 716.939C537.613 715.523 536.407 714.107 535.157 712.687C534.575 711.979 533.951 711.311 533.366 710.603C534.446 709.435 535.488 708.271 536.489 707.06C536.988 706.477 537.53 705.852 537.986 705.227C537.986 705.184 538.029 705.184 538.029 705.144C538.112 704.979 538.238 704.853 538.281 704.81C539.031 703.811 539.778 702.769 540.489 701.727C541.903 699.642 543.235 697.518 544.485 695.308C545.734 693.098 546.901 690.849 547.982 688.559C548.233 687.977 548.524 687.391 548.772 686.809C548.815 686.726 548.897 686.558 548.98 686.349C548.98 686.392 548.937 686.432 548.937 686.475C549.519 685.35 549.896 684.056 550.312 682.892C552.061 678.015 553.436 673.016 554.391 667.931C554.556 667.058 554.682 666.224 554.807 665.347C554.807 665.222 554.89 664.931 554.933 664.639C554.933 664.596 554.976 664.514 554.976 664.474C555.141 663.349 555.227 662.142 555.31 661.017C555.518 658.35 555.644 655.684 555.644 652.974C555.644 650.642 555.561 648.306 555.392 645.973C555.31 644.806 555.184 643.681 555.058 642.516C555.016 642.056 555.058 641.266 554.85 640.809C554.933 641.309 554.976 641.6 554.976 641.769C554.976 641.686 554.933 641.517 554.933 641.309C554.89 641.1 554.89 640.935 554.85 640.766C554.183 636.306 553.145 631.89 551.852 627.599C551.145 625.306 550.355 623.016 549.479 620.763C549.314 620.346 549.145 619.513 548.854 619.222C548.98 619.473 549.063 619.682 549.106 619.804C549.063 619.761 549.063 619.721 549.023 619.678C548.94 619.513 548.858 619.344 548.815 619.179C548.355 618.18 547.899 617.177 547.44 616.178C545.526 612.218 543.318 608.426 540.905 604.761C540.198 603.719 539.447 602.677 538.697 601.635C538.489 601.3 538.072 600.51 537.739 600.301C537.904 600.51 538.029 600.675 538.112 600.801C538.069 600.758 538.069 600.718 538.029 600.675C537.904 600.549 537.821 600.384 537.696 600.258C536.446 598.674 535.157 597.175 533.825 595.676C530.788 592.302 527.499 589.175 524.002 586.257C523.46 585.797 522.878 585.341 522.296 584.881C521.13 583.921 522.63 585.089 522.67 585.172C522.336 584.504 520.67 583.673 520.045 583.256C518.254 582.006 516.423 580.798 514.549 579.673C512.509 578.423 510.427 577.298 508.305 576.216C507.389 575.756 506.514 575.343 505.598 574.883C504.808 574.509 503.684 573.758 502.851 573.632C503.142 573.758 503.393 573.841 503.519 573.923C503.436 573.88 503.393 573.88 503.311 573.841C502.977 573.715 502.643 573.55 502.269 573.424C501.77 573.215 501.228 573.007 500.729 572.842C499.688 572.468 498.647 572.091 497.606 571.717C495.484 571.009 493.319 570.383 491.154 569.841C488.946 569.298 486.741 568.799 484.533 568.425C483.991 568.342 483.158 568.051 482.368 567.925C482.411 565.841 482.368 471.297 482.368 468.663C487.614 469.037 493.11 469.579 498.313 470.33C533.951 475.624 567.586 492 594.276 516.208C620.755 540.21 640.028 572.169 648.854 606.798C659.018 646.717 655.438 688.971 639.285 726.641L639.282 726.646Z" fill="white"/>
</g>
</svg>
