<svg width="1911" height="251" viewBox="0 0 1911 251" fill="none" xmlns="http://www.w3.org/2000/svg">
<g clip-path="url(#clip0_145_706)">
<rect width="1911" height="251" fill="url(#paint0_linear_145_706)"/>
<g opacity="0.8">
<g opacity="0.05">
<path d="M797.459 210.528C790.174 215.904 782.555 220.738 774.562 224.946C736.763 244.948 692.799 251.115 650.921 242.699C615.786 235.615 582.937 217.736 557.624 192.361C532.311 167.022 514.41 134.186 507.333 99.0186C499.879 62.0568 503.793 23.6797 518.492 -10.9919C532.398 -43.785 556.127 -71.9554 585.603 -91.8325C612.247 -109.751 643.594 -120.294 675.567 -122.501V-22.9085C675.484 -22.9085 675.649 -22.8655 675.567 -22.8655C674.443 -22.7001 672.651 -22.4916 671.57 -22.2402C667.158 -21.3668 662.828 -20.1559 658.623 -18.6142C657.417 -18.1974 656.207 -17.6978 655.001 -17.2379H654.958C654.958 -17.2379 654.915 -17.2379 654.915 -17.1949H654.872C654.373 -16.9865 653.913 -16.7781 653.414 -16.5696C651.583 -15.7359 649.752 -14.8195 648.003 -13.9031C643.964 -11.7361 640.137 -9.32093 636.471 -6.56834C636.18 -6.35991 635.889 -6.15148 635.598 -5.90004C635.724 -5.98275 635.85 -6.10847 635.972 -6.19118C635.598 -6.10847 634.974 -5.40048 634.683 -5.14901C633.976 -4.56673 633.268 -3.98115 632.601 -3.39887C630.935 -1.98285 629.355 -0.480872 627.815 1.06083C626.149 2.72831 624.526 4.43542 622.985 6.22858C622.278 7.06229 621.571 7.89605 620.903 8.72971C620.695 8.98115 620.487 9.27229 620.278 9.52042C620.278 9.52042 620.278 9.56342 620.235 9.56342L620.193 9.60643C620.193 9.60643 620.193 9.64944 620.15 9.64944C617.443 13.3582 614.947 17.1496 612.739 21.1493C611.698 23.0649 610.7 25.0665 609.784 27.0681C609.576 27.528 609.368 28.0275 609.159 28.4841C609.159 28.5271 609.159 28.5271 609.116 28.5668V28.6098C608.908 29.1094 608.7 29.652 608.492 30.1515C608.283 30.6511 608.075 31.1937 607.91 31.6932C606.37 35.9016 605.12 40.2356 604.205 44.6126C603.914 45.9029 603.663 47.1965 603.454 48.5298C603.372 49.0724 603.246 49.6546 603.164 50.1972L603.121 50.2403C603.121 52.533 602.661 54.8224 602.578 57.1581C602.536 57.9091 602.496 58.6172 602.496 59.3682C602.496 59.742 602.453 60.1192 602.453 60.493V62.7427C602.496 65.3696 602.618 67.9931 602.869 70.6167C602.952 71.3677 603.035 72.1584 603.121 72.9094C603.121 73.0748 603.164 73.2435 603.203 73.409C603.203 73.2435 603.16 73.1178 603.121 72.9491C603.121 72.9921 603.078 73.0748 603.078 73.1575V73.2832V73.7431C603.121 74.117 603.203 74.4941 603.286 74.911C603.286 74.954 603.286 74.954 603.329 74.9937C603.372 75.0764 603.372 75.2021 603.411 75.2848C603.494 75.576 603.537 75.8274 603.62 76.0755C603.663 76.2013 603.663 76.284 603.702 76.3667C604.076 78.408 604.492 80.4492 604.991 82.4508C605.573 84.8263 606.241 87.119 607.031 89.4514C607.365 90.4936 607.738 91.5356 608.155 92.5778C608.488 93.4115 608.779 95.0359 609.361 95.6612C609.153 95.1617 609.027 94.8705 608.987 94.7448C609.03 94.8275 609.07 94.9963 609.196 95.2047C609.361 95.5388 609.487 95.873 609.655 96.2038C609.863 96.7034 610.115 97.203 610.363 97.7025C610.736 98.5363 611.152 99.37 611.569 100.161C612.567 102.119 613.608 104.035 614.732 105.911C615.939 107.952 617.231 109.911 618.603 111.869C619.062 112.537 619.809 114.119 620.559 114.496C620.394 114.288 620.269 114.122 620.186 113.996C620.229 114.039 620.229 114.079 620.269 114.122C620.394 114.248 620.477 114.413 620.602 114.539C620.811 114.83 621.062 115.121 621.27 115.373C624.142 118.873 627.266 122.208 630.595 125.291C632.218 126.75 633.841 128.166 635.549 129.543C635.84 129.751 636.131 130.003 636.422 130.211C636.131 130.003 635.88 129.794 635.589 129.586C635.754 129.92 636.587 130.337 636.921 130.545C637.794 131.213 638.713 131.835 639.585 132.421C643.29 134.922 647.161 137.211 651.157 139.17C652.238 139.713 653.322 140.212 654.403 140.669C654.737 140.795 655.071 140.96 655.401 141.086C655.067 140.96 654.734 140.795 654.443 140.669C654.777 140.96 655.567 141.129 655.983 141.294C658.065 142.128 660.148 142.836 662.27 143.504C666.557 144.837 670.969 145.88 675.425 146.588C675.799 146.631 676.175 146.713 676.549 146.753C676.631 146.753 676.714 146.796 676.8 146.796C676.635 146.753 676.384 146.753 676.05 146.713C676.509 146.922 677.256 146.879 677.755 146.922C678.922 147.047 680.046 147.13 681.209 147.256C683.54 147.421 685.873 147.507 688.203 147.507C691.033 147.507 693.822 147.382 696.655 147.133C697.362 147.09 698.03 147.008 698.737 146.925C698.82 146.925 699.111 146.882 699.405 146.842C699.448 146.842 699.531 146.842 699.613 146.799H699.656C700.906 146.674 702.155 146.382 703.361 146.174C708.69 145.175 713.935 143.716 719.015 141.8C719.848 141.466 720.681 141.132 721.514 140.841C721.597 140.798 721.68 140.798 721.722 140.758C721.805 140.715 721.888 140.675 721.974 140.632C723.18 140.09 724.39 139.508 725.596 138.925C727.887 137.8 730.092 136.593 732.257 135.299C734.088 137.423 735.962 139.551 737.793 141.675C739.624 143.759 741.416 145.883 743.247 147.967L743.29 148.01C746.496 151.719 749.702 155.428 752.908 159.093C764.149 172.053 775.387 184.972 786.589 197.93C788.421 200.015 790.252 202.139 792.086 204.263C793.375 205.761 794.668 207.22 795.957 208.722C796.38 209.315 796.922 209.94 797.461 210.525L797.459 210.528Z" fill="#001F47"/>
<path d="M857.282 135.428C847.789 157.511 833.762 177.64 816.442 194.39C814.61 192.306 812.819 190.182 810.988 188.097C809.157 185.973 807.326 183.889 805.491 181.765C802.411 178.182 799.33 174.639 796.206 171.055C784.925 158.053 773.641 145.055 762.36 132.052C760.528 129.929 758.697 127.844 756.863 125.72C755.613 124.304 754.407 122.888 753.158 121.469C752.576 120.761 751.951 120.093 751.366 119.385C752.447 118.217 753.488 117.052 754.49 115.841C754.989 115.259 755.531 114.634 755.987 114.008C755.987 113.965 756.03 113.965 756.03 113.926C756.113 113.76 756.238 113.635 756.281 113.592C757.031 112.592 757.778 111.55 758.489 110.508C759.904 108.424 761.236 106.3 762.485 104.09C763.735 101.88 764.901 99.6302 765.982 97.3407C766.234 96.7585 766.524 96.1729 766.772 95.5906C766.815 95.5079 766.898 95.3392 766.98 95.1307C766.98 95.1737 766.938 95.2134 766.938 95.2564C767.519 94.1316 767.896 92.838 768.313 91.6734C770.061 86.7969 771.436 81.798 772.391 76.7129C772.557 75.8395 772.682 75.0058 772.808 74.129C772.808 74.0033 772.89 73.7122 772.933 73.421C772.933 73.378 772.976 73.2953 772.976 73.2556C773.142 72.1308 773.228 70.9232 773.31 69.7984C773.518 67.1318 773.644 64.4652 773.644 61.7556C773.644 59.4232 773.561 57.0875 773.393 54.755C773.31 53.5872 773.185 52.4624 773.059 51.2978C773.016 50.8379 773.059 50.0472 772.851 49.5907C772.933 50.0903 772.976 50.3814 772.976 50.5501C772.976 50.4674 772.933 50.2987 772.933 50.0903C772.89 49.8818 772.89 49.7164 772.851 49.5477C772.183 45.088 771.145 40.6716 769.853 36.3801C769.145 34.0874 768.356 31.7979 767.48 29.545C767.314 29.1281 767.146 28.2944 766.855 28.0033C766.98 28.2547 767.063 28.4632 767.106 28.5856C767.063 28.5426 767.063 28.5028 767.023 28.4598C766.941 28.2944 766.858 28.1257 766.815 27.9603C766.356 26.9611 765.9 25.9587 765.44 24.9595C763.526 20.9994 761.318 17.208 758.906 13.5426C758.198 12.5005 757.448 11.4584 756.698 10.4162C756.489 10.082 756.073 9.29136 755.739 9.08292C755.904 9.29135 756.03 9.45678 756.113 9.58249C756.07 9.53948 756.07 9.49978 756.03 9.45677C755.904 9.33105 755.822 9.16561 755.696 9.03989C754.447 7.45516 753.158 5.95649 751.826 4.45773C748.788 1.08314 745.499 -2.0433 742.002 -4.96121C741.46 -5.42108 740.879 -5.87762 740.297 -6.33751C739.13 -7.29694 740.631 -6.12908 740.67 -6.04637C740.337 -6.71467 738.671 -7.54504 738.046 -7.96191C736.254 -9.21252 734.423 -10.42 732.549 -11.5449C730.51 -12.7955 728.427 -13.9204 726.305 -15.0022C725.39 -15.4621 724.514 -15.8756 723.598 -16.3355C722.808 -16.7093 721.685 -17.4603 720.852 -17.5861C721.143 -17.4604 721.394 -17.3776 721.519 -17.2949C721.437 -17.3379 721.394 -17.3379 721.311 -17.3776C720.977 -17.5034 720.643 -17.6688 720.27 -17.7945C719.771 -18.0029 719.229 -18.2114 718.73 -18.3768C717.688 -18.7506 716.647 -19.1278 715.606 -19.5016C713.484 -20.2096 711.319 -20.8349 709.154 -21.3775C706.946 -21.92 704.742 -22.4196 702.534 -22.7935C701.992 -22.8762 701.159 -23.1673 700.369 -23.293C700.412 -25.3773 700.369 -119.922 700.369 -122.556C705.614 -122.182 711.111 -121.639 716.314 -120.888C751.952 -115.595 785.586 -99.2181 812.277 -75.0106C838.756 -51.008 858.029 -19.0491 866.854 15.5793C877.018 55.4986 873.438 97.753 857.285 135.423L857.282 135.428Z" fill="#001F47"/>
</g>
<g opacity="0.05">
<path d="M1268.13 210.528C1260.85 215.904 1253.23 220.738 1245.24 224.946C1207.44 244.948 1163.47 251.115 1121.59 242.699C1086.46 235.615 1053.61 217.736 1028.3 192.361C1002.98 167.022 985.083 134.186 978.006 99.0186C970.553 62.0568 974.466 23.6797 989.165 -10.9919C1003.07 -43.785 1026.8 -71.9554 1056.28 -91.8325C1082.92 -109.751 1114.27 -120.294 1146.24 -122.501V-22.9085C1146.16 -22.9085 1146.32 -22.8655 1146.24 -22.8655C1145.12 -22.7001 1143.32 -22.4916 1142.24 -22.2402C1137.83 -21.3668 1133.5 -20.1559 1129.3 -18.6142C1128.09 -18.1974 1126.88 -17.6978 1125.67 -17.2379H1125.63C1125.63 -17.2379 1125.59 -17.2379 1125.59 -17.1949H1125.55C1125.05 -16.9865 1124.59 -16.7781 1124.09 -16.5696C1122.26 -15.7359 1120.43 -14.8195 1118.68 -13.9031C1114.64 -11.7361 1110.81 -9.32093 1107.14 -6.56834C1106.85 -6.35991 1106.56 -6.15148 1106.27 -5.90004C1106.4 -5.98275 1106.52 -6.10847 1106.65 -6.19118C1106.27 -6.10847 1105.65 -5.40048 1105.36 -5.14901C1104.65 -4.56673 1103.94 -3.98115 1103.27 -3.39887C1101.61 -1.98285 1100.03 -0.480872 1098.49 1.06083C1096.82 2.72831 1095.2 4.43542 1093.66 6.22858C1092.95 7.06229 1092.24 7.89605 1091.58 8.72971C1091.37 8.98115 1091.16 9.27229 1090.95 9.52042C1090.95 9.52042 1090.95 9.56342 1090.91 9.56342L1090.87 9.60643C1090.87 9.60643 1090.87 9.64944 1090.82 9.64944C1088.12 13.3582 1085.62 17.1496 1083.41 21.1493C1082.37 23.0649 1081.37 25.0665 1080.46 27.0681C1080.25 27.528 1080.04 28.0275 1079.83 28.4841C1079.83 28.5271 1079.83 28.5271 1079.79 28.5668V28.6098C1079.58 29.1094 1079.37 29.652 1079.17 30.1515C1078.96 30.6511 1078.75 31.1937 1078.58 31.6932C1077.04 35.9016 1075.79 40.2356 1074.88 44.6126C1074.59 45.9029 1074.34 47.1965 1074.13 48.5298C1074.05 49.0724 1073.92 49.6546 1073.84 50.1972L1073.79 50.2403C1073.79 52.533 1073.33 54.8224 1073.25 57.1581C1073.21 57.9091 1073.17 58.6172 1073.17 59.3682C1073.17 59.742 1073.13 60.1192 1073.13 60.493V62.7427C1073.17 65.3696 1073.29 67.9931 1073.54 70.6167C1073.63 71.3677 1073.71 72.1584 1073.79 72.9094C1073.79 73.0748 1073.84 73.2435 1073.88 73.409C1073.88 73.2435 1073.83 73.1178 1073.79 72.9491C1073.79 72.9921 1073.75 73.0748 1073.75 73.1575V73.2832V73.7431C1073.79 74.117 1073.88 74.4941 1073.96 74.911C1073.96 74.954 1073.96 74.954 1074 74.9937C1074.05 75.0764 1074.05 75.2021 1074.08 75.2848C1074.17 75.576 1074.21 75.8274 1074.29 76.0755C1074.34 76.2013 1074.34 76.284 1074.38 76.3667C1074.75 78.408 1075.17 80.4492 1075.66 82.4508C1076.25 84.8263 1076.91 87.119 1077.7 89.4514C1078.04 90.4936 1078.41 91.5356 1078.83 92.5778C1079.16 93.4115 1079.45 95.0359 1080.03 95.6612C1079.83 95.1617 1079.7 94.8705 1079.66 94.7448C1079.7 94.8275 1079.74 94.9963 1079.87 95.2047C1080.03 95.5388 1080.16 95.873 1080.33 96.2038C1080.54 96.7034 1080.79 97.203 1081.04 97.7025C1081.41 98.5363 1081.83 99.37 1082.24 100.161C1083.24 102.119 1084.28 104.035 1085.41 105.911C1086.61 107.952 1087.9 109.911 1089.28 111.869C1089.74 112.537 1090.48 114.119 1091.23 114.496C1091.07 114.288 1090.94 114.122 1090.86 113.996C1090.9 114.039 1090.9 114.079 1090.94 114.122C1091.07 114.248 1091.15 114.413 1091.28 114.539C1091.48 114.83 1091.74 115.121 1091.94 115.373C1094.82 118.873 1097.94 122.208 1101.27 125.291C1102.89 126.75 1104.51 128.166 1106.22 129.543C1106.51 129.751 1106.8 130.003 1107.1 130.211C1106.8 130.003 1106.55 129.794 1106.26 129.586C1106.43 129.92 1107.26 130.337 1107.59 130.545C1108.47 131.213 1109.39 131.835 1110.26 132.421C1113.96 134.922 1117.83 137.211 1121.83 139.17C1122.91 139.713 1124 140.212 1125.08 140.669C1125.41 140.795 1125.74 140.96 1126.07 141.086C1125.74 140.96 1125.41 140.795 1125.12 140.669C1125.45 140.96 1126.24 141.129 1126.66 141.294C1128.74 142.128 1130.82 142.836 1132.94 143.504C1137.23 144.837 1141.64 145.88 1146.1 146.588C1146.47 146.631 1146.85 146.713 1147.22 146.753C1147.3 146.753 1147.39 146.796 1147.47 146.796C1147.31 146.753 1147.06 146.753 1146.72 146.713C1147.18 146.922 1147.93 146.879 1148.43 146.922C1149.6 147.047 1150.72 147.13 1151.88 147.256C1154.21 147.421 1156.55 147.507 1158.88 147.507C1161.71 147.507 1164.5 147.382 1167.33 147.133C1168.04 147.09 1168.7 147.008 1169.41 146.925C1169.49 146.925 1169.78 146.882 1170.08 146.842C1170.12 146.842 1170.2 146.842 1170.29 146.799H1170.33C1171.58 146.674 1172.83 146.382 1174.03 146.174C1179.36 145.175 1184.61 143.716 1189.69 141.8C1190.52 141.466 1191.35 141.132 1192.19 140.841C1192.27 140.798 1192.35 140.798 1192.4 140.758C1192.48 140.715 1192.56 140.675 1192.65 140.632C1193.85 140.09 1195.06 139.508 1196.27 138.925C1198.56 137.8 1200.76 136.593 1202.93 135.299C1204.76 137.423 1206.64 139.551 1208.47 141.675C1210.3 143.759 1212.09 145.883 1213.92 147.967L1213.96 148.01C1217.17 151.719 1220.38 155.428 1223.58 159.093C1234.82 172.053 1246.06 184.972 1257.26 197.93C1259.09 200.015 1260.93 202.139 1262.76 204.263C1264.05 205.761 1265.34 207.22 1266.63 208.722C1267.05 209.315 1267.6 209.94 1268.13 210.525L1268.13 210.528Z" fill="#001F47"/>
<path d="M1327.96 135.428C1318.46 157.511 1304.43 177.64 1287.11 194.39C1285.28 192.306 1283.49 190.182 1281.66 188.097C1279.83 185.973 1278 183.889 1276.16 181.765C1273.08 178.182 1270 174.639 1266.88 171.055C1255.6 158.053 1244.31 145.055 1233.03 132.052C1231.2 129.929 1229.37 127.844 1227.54 125.72C1226.29 124.304 1225.08 122.888 1223.83 121.469C1223.25 120.761 1222.62 120.093 1222.04 119.385C1223.12 118.217 1224.16 117.052 1225.16 115.841C1225.66 115.259 1226.2 114.634 1226.66 114.008C1226.66 113.965 1226.7 113.965 1226.7 113.926C1226.79 113.76 1226.91 113.635 1226.95 113.592C1227.7 112.592 1228.45 111.55 1229.16 110.508C1230.58 108.424 1231.91 106.3 1233.16 104.09C1234.41 101.88 1235.57 99.6302 1236.66 97.3407C1236.91 96.7585 1237.2 96.1729 1237.45 95.5906C1237.49 95.5079 1237.57 95.3392 1237.65 95.1307C1237.65 95.1737 1237.61 95.2134 1237.61 95.2564C1238.19 94.1316 1238.57 92.838 1238.99 91.6734C1240.73 86.7969 1242.11 81.798 1243.06 76.7129C1243.23 75.8395 1243.36 75.0058 1243.48 74.129C1243.48 74.0033 1243.56 73.7122 1243.61 73.421C1243.61 73.378 1243.65 73.2953 1243.65 73.2556C1243.81 72.1308 1243.9 70.9232 1243.98 69.7984C1244.19 67.1318 1244.32 64.4652 1244.32 61.7556C1244.32 59.4232 1244.23 57.0875 1244.07 54.755C1243.98 53.5872 1243.86 52.4624 1243.73 51.2978C1243.69 50.8379 1243.73 50.0472 1243.52 49.5907C1243.61 50.0903 1243.65 50.3814 1243.65 50.5501C1243.65 50.4674 1243.61 50.2987 1243.61 50.0903C1243.56 49.8818 1243.56 49.7164 1243.52 49.5477C1242.86 45.088 1241.82 40.6716 1240.53 36.3801C1239.82 34.0874 1239.03 31.7979 1238.15 29.545C1237.99 29.1281 1237.82 28.2944 1237.53 28.0033C1237.65 28.2547 1237.74 28.4632 1237.78 28.5856C1237.74 28.5426 1237.74 28.5028 1237.7 28.4598C1237.61 28.2944 1237.53 28.1257 1237.49 27.9603C1237.03 26.9611 1236.57 25.9587 1236.11 24.9595C1234.2 20.9994 1231.99 17.208 1229.58 13.5426C1228.87 12.5005 1228.12 11.4584 1227.37 10.4162C1227.16 10.082 1226.75 9.29136 1226.41 9.08292C1226.58 9.29135 1226.7 9.45678 1226.79 9.58249C1226.74 9.53948 1226.74 9.49978 1226.7 9.45677C1226.58 9.33105 1226.49 9.16561 1226.37 9.03989C1225.12 7.45516 1223.83 5.95649 1222.5 4.45773C1219.46 1.08314 1216.17 -2.0433 1212.68 -4.96121C1212.13 -5.42108 1211.55 -5.87762 1210.97 -6.33751C1209.8 -7.29694 1211.3 -6.12908 1211.34 -6.04637C1211.01 -6.71467 1209.34 -7.54504 1208.72 -7.96191C1206.93 -9.21252 1205.1 -10.42 1203.22 -11.5449C1201.18 -12.7955 1199.1 -13.9204 1196.98 -15.0022C1196.06 -15.4621 1195.19 -15.8756 1194.27 -16.3355C1193.48 -16.7093 1192.36 -17.4603 1191.53 -17.5861C1191.82 -17.4604 1192.07 -17.3776 1192.19 -17.2949C1192.11 -17.3379 1192.07 -17.3379 1191.98 -17.3776C1191.65 -17.5034 1191.32 -17.6688 1190.94 -17.7945C1190.44 -18.0029 1189.9 -18.2114 1189.4 -18.3768C1188.36 -18.7506 1187.32 -19.1278 1186.28 -19.5016C1184.16 -20.2096 1181.99 -20.8349 1179.83 -21.3775C1177.62 -21.92 1175.41 -22.4196 1173.21 -22.7935C1172.66 -22.8762 1171.83 -23.1673 1171.04 -23.293C1171.08 -25.3773 1171.04 -119.922 1171.04 -122.556C1176.29 -122.182 1181.78 -121.639 1186.99 -120.888C1222.62 -115.595 1256.26 -99.2181 1282.95 -75.0106C1309.43 -51.008 1328.7 -19.0491 1337.53 15.5793C1347.69 55.4986 1344.11 97.753 1327.96 135.423L1327.96 135.428Z" fill="#001F47"/>
</g>
<g opacity="0.05">
<path d="M328.143 163.859C320.858 169.235 313.239 174.069 305.246 178.276C267.447 198.279 223.483 204.445 181.605 196.029C146.47 188.946 113.621 171.067 88.3076 145.692C62.9955 120.352 45.0941 87.5162 38.0168 52.3491C30.5633 15.3873 34.4768 -22.9897 49.176 -57.6613C63.0818 -90.4544 86.8108 -118.625 116.287 -138.502C142.931 -156.42 174.278 -166.964 206.251 -169.171V-69.5779C206.168 -69.5779 206.333 -69.5349 206.251 -69.5349C205.127 -69.3695 203.335 -69.1611 202.255 -68.9096C197.842 -68.0363 193.512 -66.8254 189.307 -65.2837C188.101 -64.8668 186.891 -64.3673 185.685 -63.9074H185.642C185.642 -63.9074 185.599 -63.9074 185.599 -63.8644H185.556C185.057 -63.6559 184.597 -63.4475 184.098 -63.2391C182.267 -62.4054 180.436 -61.489 178.687 -60.5726C174.648 -58.4056 170.821 -55.9904 167.155 -53.2378C166.864 -53.0293 166.573 -52.8209 166.283 -52.5695C166.408 -52.6522 166.534 -52.7779 166.656 -52.8606C166.283 -52.7779 165.658 -52.0699 165.367 -51.8184C164.66 -51.2362 163.952 -50.6506 163.285 -50.0683C161.619 -48.6523 160.039 -47.1503 158.499 -45.6086C156.833 -43.9411 155.21 -42.234 153.67 -40.4409C152.962 -39.6071 152.255 -38.7734 151.587 -37.9397C151.379 -37.6883 151.171 -37.3971 150.963 -37.149C150.963 -37.149 150.963 -37.106 150.92 -37.106L150.877 -37.063C150.877 -37.063 150.877 -37.02 150.834 -37.02C148.127 -33.3113 145.631 -29.5198 143.423 -25.5201C142.382 -23.6045 141.384 -21.6029 140.468 -19.6013C140.26 -19.1415 140.052 -18.6419 139.843 -18.1853C139.843 -18.1423 139.843 -18.1423 139.8 -18.1026V-18.0596C139.592 -17.5601 139.384 -17.0174 139.176 -16.5179C138.968 -16.0183 138.759 -15.4757 138.594 -14.9762C137.054 -10.7679 135.804 -6.43384 134.889 -2.0568C134.598 -0.766557 134.347 0.527075 134.138 1.86035C134.056 2.40292 133.93 2.98517 133.848 3.52781L133.805 3.57082C133.805 5.86352 133.345 8.15298 133.263 10.4887C133.22 11.2397 133.18 11.9478 133.18 12.6988C133.18 13.0726 133.137 13.4497 133.137 13.8236V16.0733C133.18 18.7002 133.302 21.3237 133.553 23.9473C133.636 24.6983 133.719 25.489 133.805 26.24C133.805 26.4054 133.848 26.5741 133.887 26.7395C133.887 26.5741 133.844 26.4484 133.805 26.2797C133.805 26.3227 133.762 26.4054 133.762 26.4881V26.6138V27.0737C133.805 27.4475 133.887 27.8247 133.97 28.2415C133.97 28.2845 133.97 28.2845 134.013 28.3242C134.056 28.407 134.056 28.5327 134.096 28.6154C134.178 28.9065 134.221 29.158 134.304 29.4061C134.347 29.5318 134.347 29.6145 134.386 29.6972C134.76 31.7386 135.176 33.7798 135.675 35.7814C136.257 38.1568 136.925 40.4495 137.715 42.7819C138.049 43.8241 138.422 44.8662 138.839 45.9084C139.172 46.7421 139.463 48.3665 140.045 48.9918C139.837 48.4922 139.711 48.2011 139.672 48.0754C139.715 48.1581 139.754 48.3268 139.88 48.5353C140.045 48.8694 140.171 49.2036 140.339 49.5344C140.547 50.034 140.799 50.5336 141.047 51.0331C141.42 51.8668 141.837 52.7006 142.253 53.4912C143.251 55.4498 144.292 57.3653 145.416 59.2412C146.623 61.2826 147.915 63.2411 149.287 65.1997C149.746 65.868 150.493 67.4494 151.244 67.8266C151.078 67.6182 150.953 67.4527 150.87 67.327C150.913 67.37 150.913 67.4097 150.953 67.4527C151.078 67.5785 151.161 67.7439 151.286 67.8696C151.495 68.1608 151.746 68.4519 151.954 68.7033C154.826 72.2036 157.95 75.5385 161.279 78.622C162.902 80.081 164.525 81.497 166.234 82.8733C166.524 83.0817 166.815 83.3331 167.106 83.5416C166.815 83.3331 166.564 83.1247 166.273 82.9163C166.438 83.2504 167.271 83.6673 167.605 83.8757C168.478 84.544 169.397 85.1659 170.269 85.7515C173.975 88.2526 177.845 90.542 181.841 92.5007C182.922 93.0433 184.006 93.5429 185.087 93.9994C185.421 94.1251 185.755 94.2905 186.085 94.4163C185.752 94.2905 185.418 94.1251 185.127 93.9994C185.461 94.2905 186.251 94.4592 186.667 94.6246C188.749 95.4584 190.832 96.1664 192.954 96.8347C197.241 98.168 201.653 99.2101 206.109 99.9181C206.483 99.9611 206.859 100.044 207.233 100.084C207.316 100.084 207.398 100.127 207.484 100.127C207.319 100.084 207.068 100.084 206.734 100.044C207.193 100.252 207.94 100.209 208.439 100.252C209.606 100.378 210.73 100.461 211.893 100.586C214.224 100.752 216.557 100.838 218.887 100.838C221.717 100.838 224.506 100.712 227.339 100.464C228.046 100.421 228.714 100.338 229.421 100.256C229.504 100.256 229.795 100.213 230.089 100.173C230.132 100.173 230.215 100.173 230.297 100.13H230.34C231.59 100.004 232.839 99.713 234.046 99.5045C239.374 98.5054 244.619 97.0464 249.7 95.1308C250.532 94.7967 251.365 94.4625 252.198 94.1714C252.281 94.1284 252.364 94.1284 252.407 94.0887C252.489 94.0457 252.572 94.0059 252.658 93.9629C253.864 93.4204 255.074 92.8381 256.28 92.2558C258.571 91.131 260.776 89.9234 262.941 88.6299C264.772 90.7539 266.646 92.8811 268.477 95.0051C270.308 97.0894 272.1 99.2135 273.931 101.298L273.974 101.341C277.18 105.049 280.386 108.758 283.592 112.424C294.833 125.383 306.071 138.302 317.274 151.261C319.105 153.345 320.936 155.469 322.77 157.593C324.059 159.092 325.352 160.551 326.641 162.053C327.064 162.645 327.606 163.27 328.145 163.856L328.143 163.859Z" fill="#001F47"/>
<path d="M387.966 88.7584C378.473 110.842 364.446 130.97 347.126 147.721C345.294 145.636 343.503 143.512 341.672 141.428C339.841 139.304 338.01 137.22 336.175 135.096C333.095 131.513 330.014 127.969 326.89 124.386C315.609 111.384 304.325 98.3854 293.044 85.3831C291.213 83.2591 289.381 81.1747 287.547 79.0508C286.298 77.6347 285.091 76.2187 283.842 74.7995C283.26 74.0915 282.635 73.4232 282.05 72.7152C283.131 71.5474 284.172 70.3828 285.174 69.1719C285.673 68.5896 286.215 67.9643 286.671 67.339C286.671 67.296 286.714 67.296 286.714 67.2563C286.797 67.0909 286.922 66.9652 286.965 66.9222C287.716 65.923 288.463 64.8809 289.173 63.8388C290.588 61.7545 291.92 59.6304 293.169 57.4205C294.419 55.2105 295.586 52.9608 296.666 50.6713C296.918 50.089 297.208 49.5034 297.456 48.9212C297.499 48.8385 297.582 48.6697 297.665 48.4613C297.665 48.5043 297.622 48.544 297.622 48.587C298.203 47.4622 298.58 46.1685 298.997 45.004C300.745 40.1274 302.12 35.1285 303.075 30.0435C303.241 29.1701 303.366 28.3364 303.492 27.4596C303.492 27.3339 303.574 27.0427 303.617 26.7516C303.617 26.7086 303.66 26.6259 303.66 26.5862C303.826 25.4613 303.912 24.2538 303.994 23.1289C304.202 20.4624 304.328 17.7957 304.328 15.0862C304.328 12.7537 304.245 10.418 304.077 8.08561C303.994 6.91775 303.869 5.79292 303.743 4.62836C303.7 4.16849 303.743 3.37776 303.535 2.92125C303.617 3.42082 303.66 3.71197 303.66 3.88069C303.66 3.79798 303.617 3.62925 303.617 3.42082C303.574 3.21239 303.574 3.04696 303.535 2.87824C302.867 -1.58146 301.829 -5.9978 300.537 -10.2893C299.83 -12.582 299.04 -14.8715 298.164 -17.1245C297.998 -17.5413 297.83 -18.3751 297.539 -18.6661C297.665 -18.4147 297.747 -18.2063 297.79 -18.0839C297.747 -18.1269 297.747 -18.1666 297.708 -18.2096C297.625 -18.375 297.542 -18.5437 297.499 -18.7092C297.04 -19.7083 296.584 -20.7108 296.124 -21.7099C294.21 -25.6701 292.003 -29.4615 289.59 -33.1268C288.882 -34.169 288.132 -35.2111 287.382 -36.2532C287.173 -36.5874 286.757 -37.3781 286.423 -37.5865C286.588 -37.3781 286.714 -37.2127 286.797 -37.0869C286.754 -37.13 286.754 -37.1696 286.714 -37.2127C286.588 -37.3384 286.506 -37.5038 286.38 -37.6295C285.131 -39.2143 283.842 -40.7129 282.51 -42.2117C279.472 -45.5863 276.183 -48.7127 272.687 -51.6306C272.144 -52.0905 271.563 -52.547 270.981 -53.0069C269.814 -53.9664 271.315 -52.7985 271.355 -52.7158C271.021 -53.3841 269.355 -54.2145 268.73 -54.6313C266.939 -55.882 265.107 -57.0894 263.233 -58.2144C261.194 -59.465 259.112 -60.5898 256.99 -61.6716C256.074 -62.1315 255.198 -62.545 254.283 -63.0049C253.493 -63.3788 252.369 -64.1297 251.536 -64.2555C251.827 -64.1298 252.078 -64.0471 252.203 -63.9644C252.121 -64.0074 252.078 -64.0074 251.995 -64.0471C251.661 -64.1728 251.328 -64.3382 250.954 -64.4639C250.455 -64.6724 249.913 -64.8808 249.414 -65.0462C248.373 -65.4201 247.331 -65.7972 246.29 -66.171C244.168 -66.879 242.003 -67.5043 239.838 -68.0469C237.63 -68.5895 235.426 -69.0891 233.218 -69.4629C232.676 -69.5456 231.843 -69.8367 231.053 -69.9625C231.096 -72.0467 231.053 -166.591 231.053 -169.225C236.298 -168.851 241.795 -168.309 246.998 -167.558C282.636 -162.264 316.271 -145.888 342.961 -121.68C369.44 -97.6774 388.713 -65.7186 397.538 -31.0901C407.703 8.82921 404.123 51.0836 387.969 88.7534L387.966 88.7584Z" fill="#001F47"/>
</g>
<g opacity="0.05">
<path d="M42.8312 583.65C35.5463 589.026 27.9278 593.86 19.935 598.068C-17.8648 618.07 -61.8288 624.237 -103.706 615.821C-138.841 608.737 -171.69 590.859 -197.004 565.483C-222.316 540.144 -240.217 507.308 -247.295 472.141C-254.748 435.179 -250.835 396.802 -236.136 362.13C-222.23 329.337 -198.501 301.167 -169.025 281.29C-142.381 263.371 -111.033 252.828 -79.0609 250.621V350.214C-79.1435 350.214 -78.9782 350.257 -79.0609 350.257C-80.1847 350.422 -81.9761 350.63 -83.057 350.882C-87.4696 351.755 -91.7996 352.966 -96.0041 354.508C-97.2106 354.925 -98.4204 355.424 -99.6267 355.884H-99.6697C-99.6697 355.884 -99.7127 355.884 -99.7127 355.927H-99.7557C-100.255 356.136 -100.714 356.344 -101.213 356.552C-103.044 357.386 -104.876 358.303 -106.624 359.219C-110.663 361.386 -114.491 363.801 -118.156 366.554C-118.447 366.762 -118.738 366.971 -119.029 367.222C-118.903 367.139 -118.778 367.014 -118.655 366.931C-119.029 367.014 -119.654 367.722 -119.945 367.973C-120.652 368.555 -121.359 369.141 -122.027 369.723C-123.693 371.139 -125.273 372.641 -126.813 374.183C-128.479 375.85 -130.102 377.557 -131.642 379.351C-132.349 380.184 -133.057 381.018 -133.724 381.852C-133.933 382.103 -134.141 382.394 -134.349 382.642C-134.349 382.642 -134.349 382.685 -134.392 382.685L-134.435 382.729C-134.435 382.729 -134.435 382.772 -134.478 382.772C-137.185 386.48 -139.68 390.272 -141.888 394.271C-142.93 396.187 -143.928 398.189 -144.843 400.19C-145.052 400.65 -145.26 401.15 -145.468 401.606C-145.468 401.649 -145.468 401.649 -145.511 401.689V401.732C-145.719 402.231 -145.928 402.774 -146.136 403.274C-146.344 403.773 -146.552 404.316 -146.717 404.815C-148.258 409.024 -149.507 413.358 -150.423 417.735C-150.714 419.025 -150.965 420.319 -151.173 421.652C-151.256 422.194 -151.381 422.777 -151.464 423.319L-151.507 423.362C-151.507 425.655 -151.966 427.944 -152.049 430.28C-152.092 431.031 -152.132 431.739 -152.132 432.49C-152.132 432.864 -152.175 433.241 -152.175 433.615V435.865C-152.132 438.492 -152.009 441.115 -151.758 443.739C-151.675 444.49 -151.593 445.28 -151.507 446.031C-151.507 446.197 -151.464 446.366 -151.424 446.531C-151.424 446.366 -151.467 446.24 -151.507 446.071C-151.507 446.114 -151.55 446.197 -151.55 446.28V446.405V446.865C-151.507 447.239 -151.424 447.616 -151.342 448.033C-151.342 448.076 -151.342 448.076 -151.299 448.116C-151.256 448.198 -151.256 448.324 -151.216 448.407C-151.133 448.698 -151.09 448.949 -151.008 449.198C-150.965 449.323 -150.965 449.406 -150.925 449.489C-150.552 451.53 -150.135 453.571 -149.636 455.573C-149.054 457.948 -148.387 460.241 -147.597 462.573C-147.263 463.616 -146.889 464.658 -146.473 465.7C-146.139 466.534 -145.848 468.158 -145.266 468.783C-145.475 468.284 -145.6 467.993 -145.64 467.867C-145.597 467.95 -145.557 468.118 -145.432 468.327C-145.266 468.661 -145.141 468.995 -144.972 469.326C-144.764 469.825 -144.513 470.325 -144.265 470.825C-143.891 471.658 -143.475 472.492 -143.058 473.283C-142.06 475.241 -141.019 477.157 -139.895 479.033C-138.689 481.074 -137.396 483.033 -136.025 484.991C-135.565 485.659 -134.818 487.241 -134.068 487.618C-134.233 487.41 -134.359 487.244 -134.441 487.119C-134.399 487.162 -134.399 487.201 -134.359 487.244C-134.233 487.37 -134.151 487.535 -134.025 487.661C-133.817 487.952 -133.566 488.243 -133.357 488.495C-130.485 491.995 -127.362 495.33 -124.033 498.413C-122.41 499.873 -120.787 501.288 -119.078 502.665C-118.787 502.873 -118.496 503.125 -118.205 503.333C-118.496 503.125 -118.747 502.916 -119.038 502.708C-118.873 503.042 -118.04 503.459 -117.706 503.667C-116.834 504.335 -115.915 504.957 -115.042 505.543C-111.337 508.044 -107.466 510.334 -103.47 512.292C-102.389 512.835 -101.305 513.334 -100.224 513.791C-99.8905 513.917 -99.5567 514.082 -99.2262 514.208C-99.56 514.082 -99.8938 513.917 -100.185 513.791C-99.8509 514.082 -99.0609 514.251 -98.6444 514.416C-96.5621 515.25 -94.4797 515.958 -92.3577 516.626C-88.0707 517.959 -83.6583 519.002 -79.2024 519.71C-78.8289 519.753 -78.4521 519.835 -78.0786 519.875C-77.996 519.875 -77.9134 519.918 -77.8274 519.918C-77.9927 519.875 -78.2439 519.875 -78.5777 519.835C-78.1183 520.044 -77.3713 520.001 -76.8722 520.044C-75.7054 520.169 -74.5816 520.252 -73.4182 520.378C-71.0879 520.543 -68.7544 520.629 -66.4241 520.629C-63.5947 520.629 -60.8051 520.504 -57.9724 520.255C-57.2651 520.212 -56.5974 520.13 -55.8901 520.047C-55.8075 520.047 -55.5166 520.004 -55.2225 519.964C-55.1795 519.964 -55.0968 519.964 -55.0142 519.921H-54.9712C-53.7218 519.796 -52.4724 519.504 -51.266 519.296C-45.9378 518.297 -40.6924 516.838 -35.612 514.922C-34.7791 514.588 -33.9461 514.254 -33.1132 513.963C-33.0306 513.92 -32.9479 513.92 -32.905 513.88C-32.8223 513.837 -32.7397 513.797 -32.6538 513.754C-31.4473 513.212 -30.2375 512.63 -29.0312 512.047C-26.7406 510.923 -24.5359 509.715 -22.3709 508.421C-20.5398 510.545 -18.6657 512.673 -16.8345 514.797C-15.0033 516.881 -13.2119 519.005 -11.3808 521.089L-11.3378 521.132C-8.1316 524.841 -4.92548 528.55 -1.71946 532.215C9.5218 545.175 20.7597 558.094 31.962 571.052C33.7932 573.137 35.6243 575.261 37.4588 577.385C38.7478 578.883 40.0402 580.342 41.3292 581.844C41.7523 582.437 42.2944 583.062 42.8332 583.647L42.8312 583.65Z" fill="#001F47"/>
<path d="M102.655 508.55C93.1619 530.633 79.1342 550.762 61.8141 567.512C59.983 565.428 58.1915 563.304 56.3604 561.22C54.5292 559.096 52.6981 557.011 50.8636 554.887C47.7831 551.304 44.7025 547.761 41.5787 544.178C30.2976 531.175 19.0132 518.177 7.7322 505.175C5.90102 503.051 4.06994 500.966 2.23546 498.842C0.986015 497.426 -0.220363 496.01 -1.46981 494.591C-2.05154 493.883 -2.67625 493.215 -3.26129 492.507C-2.18049 491.339 -1.13928 490.174 -0.137762 488.963C0.361338 488.381 0.903441 487.756 1.35952 487.131C1.35952 487.088 1.40249 487.088 1.40249 487.048C1.48512 486.882 1.61072 486.757 1.6537 486.714C2.404 485.715 3.15098 484.672 3.86167 483.63C5.27637 481.546 6.60839 479.422 7.85783 477.212C9.10727 475.002 10.2741 472.752 11.3549 470.463C11.6061 469.881 11.8969 469.295 12.1448 468.713C12.1878 468.63 12.2704 468.461 12.353 468.253C12.353 468.296 12.3101 468.336 12.3101 468.379C12.8918 467.254 13.2686 465.96 13.6851 464.795C15.4336 459.919 16.8086 454.92 17.7638 449.835C17.9291 448.962 18.0547 448.128 18.1803 447.251C18.1803 447.125 18.2629 446.834 18.3059 446.543C18.3059 446.5 18.3489 446.417 18.3489 446.378C18.5141 445.253 18.6001 444.045 18.6827 442.92C18.891 440.254 19.0166 437.587 19.0166 434.878C19.0166 432.545 18.9339 430.21 18.7654 427.877C18.6827 426.709 18.5571 425.584 18.4315 424.42C18.3885 423.96 18.4315 423.169 18.2233 422.713C18.3059 423.212 18.3489 423.503 18.3489 423.672C18.3489 423.589 18.3059 423.421 18.3059 423.212C18.2629 423.004 18.2629 422.838 18.2233 422.67C17.5556 418.21 16.5178 413.794 15.2253 409.502C14.518 407.21 13.7281 404.92 12.8521 402.667C12.6869 402.25 12.5183 401.416 12.2274 401.125C12.353 401.377 12.4356 401.585 12.4786 401.708C12.4356 401.665 12.4356 401.625 12.396 401.582C12.3133 401.416 12.2307 401.248 12.1877 401.082C11.7283 400.083 11.2722 399.081 10.8127 398.082C8.89897 394.121 6.69101 390.33 4.27809 386.665C3.57075 385.623 2.82041 384.58 2.07011 383.538C1.86188 383.204 1.4454 382.413 1.11157 382.205C1.27684 382.413 1.40244 382.579 1.48507 382.705C1.4421 382.662 1.4421 382.622 1.40244 382.579C1.27684 382.453 1.19421 382.288 1.0686 382.162C-0.18084 380.577 -1.46987 379.079 -2.8019 377.58C-5.83945 374.205 -9.12832 371.079 -12.625 368.161C-13.1671 367.701 -13.7488 367.244 -14.3305 366.785C-15.4973 365.825 -13.9967 366.993 -13.957 367.076C-14.2909 366.407 -15.9567 365.577 -16.5815 365.16C-18.373 363.91 -20.204 362.702 -22.0782 361.577C-24.1176 360.327 -26.2 359.202 -28.322 358.12C-29.2375 357.66 -30.1134 357.246 -31.029 356.787C-31.819 356.413 -32.9428 355.662 -33.7757 355.536C-33.4849 355.662 -33.2337 355.744 -33.1081 355.827C-33.1907 355.784 -33.2337 355.784 -33.3163 355.744C-33.6501 355.619 -33.984 355.453 -34.3575 355.328C-34.8566 355.119 -35.3987 354.911 -35.8977 354.745C-36.9389 354.371 -37.9801 353.994 -39.0213 353.62C-41.1433 352.912 -43.3083 352.287 -45.4733 351.745C-47.6812 351.202 -49.8858 350.702 -52.0938 350.329C-52.6358 350.246 -53.4688 349.955 -54.2588 349.829C-54.2158 347.745 -54.2588 253.2 -54.2588 250.566C-49.0133 250.94 -43.5167 251.483 -38.3137 252.234C-2.67591 257.527 30.959 273.904 57.6495 298.112C84.1284 322.114 103.401 354.073 112.227 388.701C122.391 428.621 118.811 470.875 102.658 508.545L102.655 508.55Z" fill="#001F47"/>
</g>
</g>
</g>
<defs>
<linearGradient id="paint0_linear_145_706" x1="20.0001" y1="-2.37087e-05" x2="602.614" y2="1007.56" gradientUnits="userSpaceOnUse">
<stop stop-color="white"/>
<stop offset="0.206731" stop-color="#C1D0DE"/>
<stop offset="0.524038" stop-color="#6288AB"/>
<stop offset="0.817308" stop-color="#0A467C"/>
<stop offset="1" stop-color="#001F47"/>
</linearGradient>
<clipPath id="clip0_145_706">
<rect width="1911" height="251" fill="white"/>
</clipPath>
</defs>
</svg>
