<svg width="901" height="901" viewBox="0 0 901 901" fill="none" xmlns="http://www.w3.org/2000/svg">
<circle cx="450.5" cy="450.5" r="450.5" fill="#007FA7"/>
<g filter="url(#filter0_d_156_816)">
<rect x="442" y="530.054" width="29" height="54" rx="10" fill="white"/>
<rect x="260" y="243.055" width="382" height="309" rx="68" fill="white"/>
<rect x="514.472" y="185" width="28" height="79.7278" rx="14" transform="rotate(31.35 514.472 185)" fill="white"/>
<rect x="582.422" y="381.145" width="32" height="96" rx="14" transform="rotate(110.001 582.422 381.145)" fill="#007FA7"/>
<rect width="32" height="96" rx="14" transform="matrix(0.342033 0.939688 0.939688 -0.342033 319 380.889)" fill="#007FA7"/>
<rect width="28" height="79.7278" rx="14" transform="matrix(-0.854005 0.520265 0.520265 0.854005 385.912 185.055)" fill="white"/>
<rect width="28" height="79.7278" rx="14" transform="matrix(0.683332 -0.730108 -0.730108 -0.683332 523.21 643.978)" fill="white"/>
<rect x="390.133" y="643.978" width="28" height="79.7278" rx="14" transform="rotate(-133.105 390.133 643.978)" fill="white"/>
<path d="M453.409 465.041C449.019 467.17 443.551 465.486 442.573 460.706C442.065 458.224 441.892 455.681 442.065 453.136C442.437 447.7 444.38 442.461 447.687 437.982C450.993 433.503 455.538 429.952 460.834 427.711C466.13 425.47 471.977 424.622 477.747 425.26C483.518 425.898 488.994 427.997 493.588 431.331C498.183 434.666 501.723 439.11 503.827 444.188C505.932 449.265 506.522 454.784 505.535 460.152C505.053 462.771 504.204 465.306 503.021 467.694C500.902 471.969 495.336 472.322 491.627 469.32L489.486 467.587C486.587 465.241 486.518 460.855 487.192 457.187C487.605 454.941 487.358 452.632 486.478 450.508C485.597 448.384 484.117 446.525 482.195 445.13C480.273 443.735 477.982 442.857 475.568 442.59C473.154 442.323 470.708 442.678 468.492 443.615C466.277 444.553 464.375 446.038 462.992 447.912C461.609 449.786 460.796 451.977 460.64 454.252C460.388 457.952 459.307 462.18 455.97 463.799L453.409 465.041Z" fill="#007FA7"/>
<path d="M445.591 465.041C449.981 467.17 455.449 465.486 456.427 460.706C456.935 458.224 457.108 455.681 456.935 453.136C456.563 447.7 454.62 442.461 451.313 437.982C448.007 433.503 443.462 429.952 438.166 427.711C432.87 425.47 427.023 424.622 421.253 425.26C415.482 425.898 410.006 427.997 405.412 431.331C400.817 434.666 397.277 439.11 395.173 444.188C393.068 449.265 392.478 454.784 393.465 460.152C393.947 462.771 394.796 465.306 395.979 467.694C398.098 471.969 403.664 472.322 407.373 469.32L409.514 467.587C412.413 465.241 412.482 460.855 411.808 457.187C411.395 454.941 411.642 452.632 412.522 450.508C413.403 448.384 414.883 446.525 416.805 445.13C418.727 443.735 421.018 442.857 423.432 442.59C425.846 442.323 428.292 442.678 430.508 443.615C432.723 444.553 434.625 446.038 436.008 447.912C437.391 449.786 438.204 451.977 438.36 454.252C438.612 457.952 439.693 462.18 443.03 463.799L445.591 465.041Z" fill="#007FA7"/>
<path d="M410 600.054C410 583.485 423.431 570.054 440 570.054H473C489.569 570.054 503 583.485 503 600.054V685.054C503 701.622 489.569 715.054 473 715.054H440C423.431 715.054 410 701.622 410 685.054V600.054Z" fill="white"/>
<rect x="358.528" y="628.374" width="14" height="37" rx="7" transform="rotate(-71.5776 358.528 628.374)" fill="#9A9A9A"/>
<path d="M316.069 650.067C314.586 649.573 314.217 647.645 315.414 646.639L344.519 622.164L351.385 602.24C352.814 598.093 357.315 595.871 361.477 597.257L368.081 599.456C372.273 600.853 374.539 605.383 373.143 609.575L366.509 629.489L378.043 667.383C378.516 668.936 377.039 670.376 375.498 669.863L316.069 650.067Z" fill="white"/>
<rect x="304.144" y="658.743" width="14" height="79" rx="7" transform="rotate(-71.5776 304.144 658.743)" fill="#9A9A9A"/>
<path d="M344.569 622.13L351.184 602.268C352.58 598.077 357.11 595.81 361.302 597.207L368.133 599.482C372.325 600.878 374.591 605.408 373.195 609.6L366.58 629.461L344.569 622.13Z" fill="#9A9A9A"/>
</g>
<defs>
<filter id="filter0_d_156_816" x="230" y="190.238" width="442" height="594.816" filterUnits="userSpaceOnUse" color-interpolation-filters="sRGB">
<feFlood flood-opacity="0" result="BackgroundImageFix"/>
<feColorMatrix in="SourceAlpha" type="matrix" values="0 0 0 0 0 0 0 0 0 0 0 0 0 0 0 0 0 0 127 0" result="hardAlpha"/>
<feOffset dy="40"/>
<feGaussianBlur stdDeviation="15"/>
<feComposite in2="hardAlpha" operator="out"/>
<feColorMatrix type="matrix" values="0 0 0 0 0 0 0 0 0 0 0 0 0 0 0 0 0 0 0.25 0"/>
<feBlend mode="normal" in2="BackgroundImageFix" result="effect1_dropShadow_156_816"/>
<feBlend mode="normal" in="SourceGraphic" in2="effect1_dropShadow_156_816" result="shape"/>
</filter>
</defs>
</svg>
